Vollkorn-Black.ufo
<glyph name="exclam" format="2">
  <advance width="411"/>
  <unicode hex="0021"/>
  <outline>
    <contour>
      <point x="298" y="635" type="curve" smooth="yes"/>
      <point x="306" y="689"/>
      <point x="298" y="710"/>
      <point x="270" y="717" type="curve"/>
      <point x="226" y="699"/>
      <point x="155" y="679"/>
      <point x="101" y="675" type="curve"/>
      <point x="125" y="535"/>
      <point x="143" y="390"/>
      <point x="156" y="245" type="curve"/>
      <point x="191" y="245"/>
      <point x="225" y="247"/>
      <point x="259" y="258" type="curve"/>
      <point x="270" y="388"/>
      <point x="286" y="546"/>
    </contour>
    <contour>
      <point x="310" y="98" type="curve" smooth="yes"/>
      <point x="310" y="146"/>
      <point x="272" y="192"/>
      <point x="212" y="192" type="curve" smooth="yes"/>
      <point x="150" y="192"/>
      <point x="103" y="155"/>
      <point x="103" y="93" type="curve" smooth="yes"/>
      <point x="103" y="31"/>
      <point x="142" y="-8"/>
      <point x="206" y="-8" type="curve" smooth="yes"/>
      <point x="273" y="-8"/>
      <point x="310" y="41"/>
    </contour>
  </outline>
</glyph>
<glyph name="quotedbl" format="2">
  <advance width="412"/>
  <unicode hex="0022"/>
  <outline>
    <contour>
      <point x="183" y="713"/>
      <point x="164" y="717" type="curve"/>
      <point x="129" y="700"/>
      <point x="101" y="693"/>
      <point x="60" y="688" type="curve"/>
      <point x="78" y="604"/>
      <point x="85" y="514"/>
      <point x="89" y="425" type="curve"/>
      <point x="100" y="417"/>
      <point x="139" y="412"/>
      <point x="161" y="412" type="curve"/>
      <point x="172" y="510"/>
      <point x="180" y="588"/>
      <point x="191" y="650" type="curve" smooth="yes"/>
      <point x="192" y="655"/>
      <point x="193" y="667"/>
      <point x="193" y="675" type="curve" smooth="yes"/>
      <point x="193" y="690"/>
    </contour>
    <contour>
      <point x="341" y="713"/>
      <point x="321" y="717" type="curve"/>
      <point x="293" y="702"/>
      <point x="260" y="693"/>
      <point x="226" y="688" type="curve"/>
      <point x="241" y="604"/>
      <point x="245" y="512"/>
      <point x="251" y="422" type="curve"/>
      <point x="272" y="413"/>
      <point x="292" y="411"/>
      <point x="326" y="411" type="curve"/>
      <point x="336" y="521"/>
      <point x="339" y="585"/>
      <point x="350" y="649" type="curve" smooth="yes"/>
      <point x="352" y="663"/>
      <point x="352" y="668"/>
      <point x="352" y="671" type="curve" smooth="yes"/>
      <point x="352" y="694"/>
    </contour>
  </outline>
</glyph>
<glyph name="parenright" format="2">
  <advance width="353"/>
  <unicode hex="0029"/>
  <outline>
    <contour>
      <point x="118" y="741" type="curve"/>
      <point x="95" y="741"/>
      <point x="71" y="733"/>
      <point x="53" y="719" type="curve"/>
      <point x="131" y="593"/>
      <point x="168" y="458"/>
      <point x="168" y="244" type="curve" smooth="yes"/>
      <point x="168" y="19"/>
      <point x="134" y="-110"/>
      <point x="47" y="-256" type="curve"/>
      <point x="64" y="-266"/>
      <point x="86" y="-271"/>
      <point x="113" y="-271" type="curve"/>
      <point x="217" y="-161"/>
      <point x="318" y="27"/>
      <point x="318" y="270" type="curve" smooth="yes"/>
      <point x="318" y="458"/>
      <point x="237" y="609"/>
    </contour>
  </outline>
</glyph>
<glyph name="asterisk" format="2">
  <advance width="507"/>
  <unicode hex="002A"/>
  <outline>
    <contour>
      <point x="330" y="706"/>
      <point x="361" y="752" type="curve"/>
      <point x="323" y="772"/>
      <point x="270" y="782"/>
      <point x="223" y="782" type="curve"/>
      <point x="229" y="728"/>
      <point x="232" y="682"/>
      <point x="232" y="630" type="curve"/>
      <point x="188" y="672"/>
      <point x="165" y="698"/>
      <point x="130" y="741" type="curve"/>
      <point x="97" y="711"/>
      <point x="73" y="666"/>
      <point x="60" y="623" type="curve"/>
      <point x="120" y="611"/>
      <point x="157" y="603"/>
      <point x="204" y="586" type="curve"/>
      <point x="159" y="561"/>
      <point x="120" y="543"/>
      <point x="69" y="522" type="curve"/>
      <point x="86" y="475"/>
      <point x="116" y="444"/>
      <point x="157" y="415" type="curve"/>
      <point x="187" y="466"/>
      <point x="210" y="501"/>
      <point x="240" y="544" type="curve"/>
      <point x="250" y="488"/>
      <point x="253" y="445"/>
      <point x="256" y="390" type="curve"/>
      <point x="307" y="394"/>
      <point x="357" y="419"/>
      <point x="395" y="450" type="curve"/>
      <point x="354" y="493"/>
      <point x="326" y="524"/>
      <point x="290" y="565" type="curve"/>
      <point x="347" y="556"/>
      <point x="381" y="548"/>
      <point x="444" y="530" type="curve"/>
      <point x="450" y="585"/>
      <point x="448" y="630"/>
      <point x="429" y="678" type="curve"/>
      <point x="372" y="652"/>
      <point x="342" y="641"/>
      <point x="286" y="623" type="curve"/>
      <point x="311" y="674"/>
    </contour>
  </outline>
</glyph>
<glyph name="plus" format="2">
  <advance width="550"/>
  <unicode hex="002B"/>
  <outline>
    <contour>
      <point x="229" y="1" type="curve"/>
      <point x="262" y="1"/>
      <point x="304" y="3"/>
      <point x="321" y="14" type="curve"/>
      <point x="321" y="504" type="line"/>
      <point x="277" y="504"/>
      <point x="257" y="502"/>
      <point x="230" y="491" type="curve"/>
      <point x="231" y="388"/>
      <point x="231" y="339"/>
      <point x="231" y="250" type="curve" smooth="yes"/>
      <point x="231" y="139"/>
      <point x="231" y="75"/>
    </contour>
    <contour>
      <point x="37" y="211" type="curve"/>
      <point x="113" y="212"/>
      <point x="158" y="213"/>
      <point x="260" y="213" type="curve" smooth="yes"/>
      <point x="348" y="213"/>
      <point x="399" y="213"/>
      <point x="499" y="212" type="curve"/>
      <point x="512" y="240"/>
      <point x="512" y="267"/>
      <point x="512" y="300" type="curve"/>
      <point x="50" y="300" type="line"/>
      <point x="37" y="267"/>
      <point x="37" y="245"/>
    </contour>
  </outline>
</glyph>
<glyph name="comma" format="2">
  <advance width="316"/>
  <unicode hex="002C"/>
  <outline>
    <contour>
      <point x="241" y="149"/>
      <point x="202" y="160" type="curve"/>
      <point x="172" y="140"/>
      <point x="129" y="130"/>
      <point x="76" y="128" type="curve"/>
      <point x="62" y="83"/>
      <point x="60" y="58"/>
      <point x="60" y="13" type="curve"/>
      <point x="105" y="7"/>
      <point x="131" y="-10"/>
      <point x="131" y="-35" type="curve" smooth="yes"/>
      <point x="131" y="-68"/>
      <point x="108" y="-110"/>
      <point x="64" y="-160" type="curve"/>
      <point x="80" y="-173"/>
      <point x="111" y="-185"/>
      <point x="144" y="-187" type="curve"/>
      <point x="213" y="-122"/>
      <point x="256" y="-29"/>
      <point x="256" y="55" type="curve" smooth="yes"/>
      <point x="256" y="127"/>
    </contour>
  </outline>
</glyph>
<glyph name="hyphen" format="2">
  <advance width="419"/>
  <unicode hex="002D"/>
  <outline>
    <contour>
      <point x="359" y="306" type="curve"/>
      <point x="77" y="306" type="line"/>
      <point x="65" y="273"/>
      <point x="60" y="229"/>
      <point x="60" y="201" type="curve"/>
      <point x="162" y="209"/>
      <point x="262" y="209"/>
      <point x="346" y="209" type="curve"/>
      <point x="357" y="243"/>
      <point x="359" y="281"/>
    </contour>
  </outline>
</glyph>
<glyph name="period" format="2">
  <advance width="327"/>
  <unicode hex="002E"/>
  <outline>
    <contour>
      <point x="163" y="-8" type="curve" smooth="yes"/>
      <point x="230" y="-8"/>
      <point x="267" y="41"/>
      <point x="267" y="98" type="curve" smooth="yes"/>
      <point x="267" y="146"/>
      <point x="229" y="192"/>
      <point x="169" y="192" type="curve" smooth="yes"/>
      <point x="107" y="192"/>
      <point x="60" y="155"/>
      <point x="60" y="93" type="curve" smooth="yes"/>
      <point x="60" y="31"/>
      <point x="99" y="-8"/>
    </contour>
  </outline>
</glyph>
<glyph name="zero" format="2">
  <advance width="629"/>
  <unicode hex="0030"/>
  <outline>
    <contour>
      <point x="251" y="431"/>
      <point x="300" y="431" type="curve" smooth="yes"/>
      <point x="369" y="431"/>
      <point x="409" y="314"/>
      <point x="409" y="224" type="curve" smooth="yes"/>
      <point x="409" y="144"/>
      <point x="383" y="72"/>
      <point x="331" y="72" type="curve" smooth="yes"/>
      <point x="259" y="72"/>
      <point x="217" y="192"/>
      <point x="217" y="285" type="curve" smooth="yes"/>
      <point x="217" y="360"/>
    </contour>
    <contour>
      <point x="487" y="506"/>
      <point x="318" y="506" type="curve" smooth="yes"/>
      <point x="165" y="506"/>
      <point x="30" y="424"/>
      <point x="30" y="255" type="curve" smooth="yes"/>
      <point x="30" y="86"/>
      <point x="154" y="-9"/>
      <point x="318" y="-9" type="curve" smooth="yes"/>
      <point x="476" y="-9"/>
      <point x="599" y="87"/>
      <point x="599" y="255" type="curve" smooth="yes"/>
      <point x="599" y="416"/>
    </contour>
  </outline>
</glyph>
<glyph name="one" format="2">
  <advance width="414"/>
  <unicode hex="0031"/>
  <outline>
    <contour>
      <point x="302" y="189" type="curve" smooth="yes"/>
      <point x="302" y="318" type="line" smooth="yes"/>
      <point x="302" y="409"/>
      <point x="314" y="422"/>
      <point x="371" y="425" type="curve"/>
      <point x="377" y="449"/>
      <point x="379" y="474"/>
      <point x="379" y="503" type="curve"/>
      <point x="347" y="501"/>
      <point x="249" y="500"/>
      <point x="207" y="500" type="curve" smooth="yes"/>
      <point x="175" y="500"/>
      <point x="67" y="501"/>
      <point x="35" y="503" type="curve"/>
      <point x="35" y="472"/>
      <point x="37" y="449"/>
      <point x="43" y="425" type="curve"/>
      <point x="99" y="422"/>
      <point x="112" y="409"/>
      <point x="112" y="318" type="curve" smooth="yes"/>
      <point x="112" y="187" type="line" smooth="yes"/>
      <point x="112" y="95"/>
      <point x="103" y="84"/>
      <point x="43" y="75" type="curve"/>
      <point x="38" y="56"/>
      <point x="35" y="26"/>
      <point x="35" y="-3" type="curve"/>
      <point x="71" y="-1"/>
      <point x="171" y="0"/>
      <point x="207" y="0" type="curve" smooth="yes"/>
      <point x="232" y="0"/>
      <point x="340" y="-1"/>
      <point x="379" y="-3" type="curve"/>
      <point x="379" y="25"/>
      <point x="378" y="51"/>
      <point x="371" y="75" type="curve"/>
      <point x="313" y="77"/>
      <point x="302" y="90"/>
    </contour>
  </outline>
</glyph>
<glyph name="two" format="2">
  <advance width="504"/>
  <unicode hex="0032"/>
  <outline>
    <contour>
      <point x="274" y="506" type="curve" smooth="yes"/>
      <point x="166" y="506"/>
      <point x="103" y="489"/>
      <point x="44" y="458" type="curve"/>
      <point x="52" y="422"/>
      <point x="51" y="357"/>
      <point x="47" y="322" type="curve"/>
      <point x="75" y="313"/>
      <point x="101" y="307"/>
      <point x="145" y="307" type="curve"/>
      <point x="154" y="400"/>
      <point x="172" y="428"/>
      <point x="212" y="428" type="curve" smooth="yes"/>
      <point x="253" y="428"/>
      <point x="273" y="402"/>
      <point x="273" y="366" type="curve" smooth="yes"/>
      <point x="273" y="320"/>
      <point x="255" y="291"/>
      <point x="168" y="217" type="curve" smooth="yes"/>
      <point x="105" y="165"/>
      <point x="66" y="133"/>
      <point x="30" y="97" type="curve"/>
      <point x="30" y="58"/>
      <point x="38" y="24"/>
      <point x="55" y="-2" type="curve"/>
      <point x="93" y="-1"/>
      <point x="160" y="0"/>
      <point x="230" y="0" type="curve" smooth="yes"/>
      <point x="299" y="0"/>
      <point x="377" y="-1"/>
      <point x="417" y="-2" type="curve" smooth="yes"/>
      <point x="447" y="-2"/>
      <point x="470" y="13"/>
      <point x="479" y="41" type="curve"/>
      <point x="471" y="78"/>
      <point x="468" y="141"/>
      <point x="468" y="202" type="curve"/>
      <point x="449" y="209"/>
      <point x="411" y="211"/>
      <point x="381" y="211" type="curve"/>
      <point x="373" y="166"/>
      <point x="365" y="160"/>
      <point x="291" y="160" type="curve" smooth="yes"/>
      <point x="173" y="160" type="line"/>
      <point x="204" y="138" type="line"/>
      <point x="237" y="163"/>
      <point x="272" y="186"/>
      <point x="317" y="214" type="curve" smooth="yes"/>
      <point x="426" y="283"/>
      <point x="465" y="321"/>
      <point x="465" y="388" type="curve" smooth="yes"/>
      <point x="465" y="460"/>
      <point x="408" y="506"/>
    </contour>
  </outline>
</glyph>
<glyph name="three" format="2">
  <advance width="508"/>
  <unicode hex="0033"/>
  <outline>
    <contour>
      <point x="197" y="-171" type="curve" smooth="yes"/>
      <point x="378" y="-171"/>
      <point x="478" y="-91"/>
      <point x="478" y="45" type="curve" smooth="yes"/>
      <point x="478" y="148"/>
      <point x="421" y="202"/>
      <point x="302" y="208" type="curve"/>
      <point x="351" y="275"/>
      <point x="414" y="358"/>
      <point x="464" y="422" type="curve"/>
      <point x="466" y="452"/>
      <point x="456" y="482"/>
      <point x="442" y="504" type="curve"/>
      <point x="404" y="502"/>
      <point x="316" y="500"/>
      <point x="249" y="500" type="curve" smooth="yes"/>
      <point x="179" y="500"/>
      <point x="88" y="502"/>
      <point x="43" y="504" type="curve"/>
      <point x="43" y="418"/>
      <point x="43" y="357"/>
      <point x="31" y="283" type="curve"/>
      <point x="52" y="267"/>
      <point x="86" y="263"/>
      <point x="117" y="263" type="curve"/>
      <point x="140" y="330"/>
      <point x="156" y="340"/>
      <point x="213" y="340" type="curve" smooth="yes"/>
      <point x="286" y="340" type="line"/>
      <point x="249" y="288"/>
      <point x="206" y="235"/>
      <point x="154" y="173" type="curve"/>
      <point x="152" y="147"/>
      <point x="161" y="117"/>
      <point x="178" y="99" type="curve"/>
      <point x="190" y="102"/>
      <point x="200" y="103"/>
      <point x="209" y="103" type="curve" smooth="yes"/>
      <point x="262" y="103"/>
      <point x="286" y="71"/>
      <point x="286" y="21" type="curve" smooth="yes"/>
      <point x="286" y="-47"/>
      <point x="242" y="-89"/>
      <point x="163" y="-89" type="curve" smooth="yes"/>
      <point x="118" y="-89"/>
      <point x="90" y="-76"/>
      <point x="60" y="-53" type="curve"/>
      <point x="40" y="-72"/>
      <point x="28" y="-98"/>
      <point x="25" y="-123" type="curve"/>
      <point x="62" y="-155"/>
      <point x="121" y="-171"/>
    </contour>
  </outline>
</glyph>
<glyph name="four" format="2">
  <advance width="605"/>
  <unicode hex="0034"/>
  <outline>
    <contour>
      <point x="261" y="0" type="curve" smooth="yes"/>
      <point x="566" y="0" type="line"/>
      <point x="566" y="57"/>
      <point x="569" y="79"/>
      <point x="590" y="130" type="curve"/>
      <point x="575" y="154"/>
      <point x="559" y="161"/>
      <point x="531" y="161" type="curve" smooth="yes"/>
      <point x="447" y="161" type="line"/>
      <point x="423" y="141" type="line"/>
      <point x="76" y="140" type="line"/>
      <point x="139" y="128" type="line"/>
      <point x="376" y="435" type="line"/>
      <point x="310" y="432" type="line"/>
      <point x="310" y="44" type="line"/>
      <point x="290" y="24" type="line"/>
      <point x="290" y="-107" type="line" smooth="yes"/>
      <point x="290" y="-142"/>
      <point x="298" y="-157"/>
      <point x="316" y="-171" type="curve"/>
      <point x="368" y="-151"/>
      <point x="415" y="-142"/>
      <point x="480" y="-142" type="curve"/>
      <point x="480" y="500" type="line"/>
      <point x="435" y="506"/>
      <point x="388" y="508"/>
      <point x="339" y="506" type="curve"/>
      <point x="25" y="128" type="line"/>
      <point x="25" y="80"/>
      <point x="39" y="34"/>
      <point x="60" y="-7" type="curve"/>
      <point x="136" y="-1"/>
      <point x="197" y="0"/>
    </contour>
  </outline>
</glyph>
<glyph name="five" format="2">
  <advance width="481"/>
  <unicode hex="0035"/>
  <outline>
    <contour>
      <point x="101" y="505" type="curve"/>
      <point x="39" y="206" type="line"/>
      <point x="43" y="180"/>
      <point x="52" y="159"/>
      <point x="71" y="138" type="curve"/>
      <point x="228" y="108"/>
      <point x="264" y="68"/>
      <point x="264" y="13" type="curve" smooth="yes"/>
      <point x="264" y="-51"/>
      <point x="210" y="-90"/>
      <point x="133" y="-90" type="curve" smooth="yes"/>
      <point x="83" y="-90"/>
      <point x="62" y="-84"/>
      <point x="50" y="-78" type="curve"/>
      <point x="35" y="-97"/>
      <point x="30" y="-120"/>
      <point x="30" y="-148" type="curve"/>
      <point x="56" y="-163"/>
      <point x="95" y="-171"/>
      <point x="166" y="-171" type="curve" smooth="yes"/>
      <point x="310" y="-171"/>
      <point x="456" y="-107"/>
      <point x="456" y="45" type="curve" smooth="yes"/>
      <point x="456" y="173"/>
      <point x="383" y="250"/>
      <point x="134" y="286" type="curve"/>
      <point x="145" y="339" type="line"/>
      <point x="198" y="343"/>
      <point x="276" y="343"/>
      <point x="384" y="343" type="curve" smooth="yes"/>
      <point x="409" y="343"/>
      <point x="427" y="352"/>
      <point x="435" y="373" type="curve"/>
      <point x="435" y="435"/>
      <point x="436" y="506"/>
      <point x="442" y="563" type="curve"/>
      <point x="415" y="563"/>
      <point x="380" y="563"/>
      <point x="356" y="555" type="curve"/>
      <point x="356" y="521"/>
      <point x="339" y="500"/>
      <point x="308" y="500" type="curve" smooth="yes"/>
      <point x="203" y="500"/>
      <point x="169" y="501"/>
    </contour>
  </outline>
</glyph>
<glyph name="six" format="2">
  <advance width="588"/>
  <unicode hex="0036"/>
  <outline>
    <contour>
      <point x="451" y="638" type="curve"/>
      <point x="294" y="631"/>
      <point x="35" y="538"/>
      <point x="35" y="240" type="curve" smooth="yes"/>
      <point x="35" y="56"/>
      <point x="136" y="-9"/>
      <point x="297" y="-9" type="curve" smooth="yes"/>
      <point x="411" y="-9"/>
      <point x="558" y="38"/>
      <point x="558" y="212" type="curve" smooth="yes"/>
      <point x="558" y="322"/>
      <point x="483" y="395"/>
      <point x="352" y="395" type="curve" smooth="yes"/>
      <point x="286" y="395"/>
      <point x="226" y="376"/>
      <point x="164" y="333" type="curve"/>
      <point x="174" y="276" type="line"/>
      <point x="201" y="299"/>
      <point x="248" y="314"/>
      <point x="276" y="314" type="curve" smooth="yes"/>
      <point x="327" y="314"/>
      <point x="367" y="264"/>
      <point x="367" y="185" type="curve" smooth="yes"/>
      <point x="367" y="116"/>
      <point x="343" y="75"/>
      <point x="302" y="75" type="curve" smooth="yes"/>
      <point x="257" y="75"/>
      <point x="225" y="133"/>
      <point x="225" y="241" type="curve" smooth="yes"/>
      <point x="225" y="411"/>
      <point x="279" y="526"/>
      <point x="467" y="565" type="curve"/>
      <point x="469" y="595"/>
      <point x="464" y="624"/>
    </contour>
  </outline>
</glyph>
<glyph name="nine" format="2">
  <advance width="583"/>
  <unicode hex="0039"/>
  <outline>
    <contour>
      <point x="424" y="154" type="curve"/>
      <point x="414" y="211" type="line"/>
      <point x="387" y="188"/>
      <point x="341" y="173"/>
      <point x="312" y="173" type="curve" smooth="yes"/>
      <point x="261" y="173"/>
      <point x="221" y="233"/>
      <point x="221" y="312" type="curve" smooth="yes"/>
      <point x="221" y="381"/>
      <point x="245" y="422"/>
      <point x="286" y="422" type="curve" smooth="yes"/>
      <point x="331" y="422"/>
      <point x="363" y="364"/>
      <point x="363" y="238" type="curve" smooth="yes"/>
      <point x="363" y="72"/>
      <point x="284" y="-55"/>
      <point x="88" y="-96" type="curve"/>
      <point x="86" y="-126"/>
      <point x="92" y="-155"/>
      <point x="104" y="-169" type="curve"/>
      <point x="270" y="-162"/>
      <point x="553" y="-44"/>
      <point x="553" y="256" type="curve" smooth="yes"/>
      <point x="553" y="441"/>
      <point x="452" y="506"/>
      <point x="291" y="506" type="curve" smooth="yes"/>
      <point x="177" y="506"/>
      <point x="30" y="461"/>
      <point x="30" y="283" type="curve" smooth="yes"/>
      <point x="30" y="174"/>
      <point x="105" y="92"/>
      <point x="236" y="92" type="curve" smooth="yes"/>
      <point x="302" y="92"/>
      <point x="363" y="111"/>
    </contour>
  </outline>
</glyph>
<glyph name="less" format="2">
  <advance width="550"/>
  <unicode hex="003C"/>
  <outline>
    <contour>
      <point x="450" y="-7" type="curve"/>
      <point x="467" y="15"/>
      <point x="471" y="66"/>
      <point x="464" y="102" type="curve"/>
      <point x="161" y="260" type="line"/>
      <point x="496" y="448" type="line"/>
      <point x="471" y="478"/>
      <point x="444" y="496"/>
      <point x="409" y="503" type="curve"/>
      <point x="71" y="307" type="line"/>
      <point x="54" y="277"/>
      <point x="49" y="245"/>
      <point x="54" y="213" type="curve"/>
      <point x="174" y="153"/>
      <point x="304" y="81"/>
    </contour>
  </outline>
</glyph>
<glyph name="equal" format="2">
  <advance width="550"/>
  <unicode hex="003D"/>
  <outline>
    <contour>
      <point x="45" y="117" type="curve"/>
      <point x="137" y="119"/>
      <point x="192" y="119"/>
      <point x="281" y="119" type="curve" smooth="yes"/>
      <point x="369" y="119"/>
      <point x="410" y="119"/>
      <point x="491" y="118" type="curve"/>
      <point x="501" y="145"/>
      <point x="505" y="175"/>
      <point x="505" y="206" type="curve"/>
      <point x="59" y="206" type="line"/>
      <point x="48" y="181"/>
      <point x="45" y="147"/>
    </contour>
    <contour>
      <point x="46" y="303" type="curve"/>
      <point x="138" y="305"/>
      <point x="192" y="305"/>
      <point x="281" y="305" type="curve" smooth="yes"/>
      <point x="369" y="305"/>
      <point x="409" y="305"/>
      <point x="490" y="304" type="curve"/>
      <point x="503" y="333"/>
      <point x="504" y="359"/>
      <point x="504" y="392" type="curve"/>
      <point x="60" y="392" type="line"/>
      <point x="50" y="366"/>
      <point x="46" y="340"/>
    </contour>
  </outline>
</glyph>
<glyph name="greater" format="2">
  <advance width="550"/>
  <unicode hex="003E"/>
  <outline>
    <contour>
      <point x="126" y="1" type="curve"/>
      <point x="261" y="88"/>
      <point x="355" y="145"/>
      <point x="470" y="206" type="curve"/>
      <point x="487" y="233"/>
      <point x="492" y="263"/>
      <point x="484" y="294" type="curve"/>
      <point x="148" y="512" type="line"/>
      <point x="116" y="501"/>
      <point x="88" y="474"/>
      <point x="76" y="446" type="curve"/>
      <point x="413" y="241" type="line"/>
      <point x="414" y="278" type="line"/>
      <point x="89" y="91" type="line"/>
      <point x="88" y="53"/>
      <point x="101" y="23"/>
    </contour>
  </outline>
</glyph>
<glyph name="question" format="2">
  <advance width="537"/>
  <unicode hex="003F"/>
  <outline>
    <contour>
      <point x="315" y="717" type="curve" smooth="yes"/>
      <point x="224" y="717"/>
      <point x="155" y="694"/>
      <point x="108" y="672" type="curve"/>
      <point x="113" y="630"/>
      <point x="112" y="577"/>
      <point x="108" y="529" type="curve"/>
      <point x="137" y="513"/>
      <point x="166" y="506"/>
      <point x="210" y="506" type="curve"/>
      <point x="222" y="615"/>
      <point x="241" y="640"/>
      <point x="267" y="640" type="curve" smooth="yes"/>
      <point x="291" y="640"/>
      <point x="312" y="622"/>
      <point x="312" y="574" type="curve" smooth="yes"/>
      <point x="312" y="478"/>
      <point x="204" y="475"/>
      <point x="204" y="351" type="curve" smooth="yes"/>
      <point x="204" y="298"/>
      <point x="231" y="243"/>
      <point x="264" y="223" type="curve"/>
      <point x="293" y="223"/>
      <point x="332" y="230"/>
      <point x="354" y="242" type="curve"/>
      <point x="344" y="272"/>
      <point x="339" y="295"/>
      <point x="339" y="325" type="curve" smooth="yes"/>
      <point x="339" y="448"/>
      <point x="502" y="451"/>
      <point x="502" y="595" type="curve" smooth="yes"/>
      <point x="502" y="670"/>
      <point x="443" y="717"/>
    </contour>
    <component base="period" xOffset="140"/>
  </outline>
</glyph>
<glyph name="at" format="2">
  <advance width="1001"/>
  <unicode hex="0040"/>
  <outline>
    <contour>
      <point x="742" y="454"/>
      <point x="718" y="467" type="curve"/>
      <point x="688" y="458"/>
      <point x="637" y="455"/>
      <point x="569" y="455" type="curve"/>
      <point x="564" y="358"/>
      <point x="562" y="161"/>
      <point x="562" y="89" type="curve" smooth="yes"/>
      <point x="562" y="28"/>
      <point x="603" y="-9"/>
      <point x="657" y="-9" type="curve" smooth="yes"/>
      <point x="820" y="-9"/>
      <point x="921" y="127"/>
      <point x="921" y="339" type="curve" smooth="yes"/>
      <point x="921" y="519"/>
      <point x="801" y="660"/>
      <point x="540" y="660" type="curve" smooth="yes"/>
      <point x="247" y="660"/>
      <point x="80" y="467"/>
      <point x="80" y="228" type="curve" smooth="yes"/>
      <point x="80" y="-21"/>
      <point x="214" y="-202"/>
      <point x="519" y="-202" type="curve" smooth="yes"/>
      <point x="663" y="-202"/>
      <point x="798" y="-153"/>
      <point x="861" y="-68" type="curve"/>
      <point x="850" y="-47"/>
      <point x="834" y="-28"/>
      <point x="812" y="-20" type="curve"/>
      <point x="742" y="-92"/>
      <point x="641" y="-124"/>
      <point x="532" y="-124" type="curve" smooth="yes"/>
      <point x="277" y="-124"/>
      <point x="175" y="45"/>
      <point x="175" y="234" type="curve" smooth="yes"/>
      <point x="175" y="429"/>
      <point x="291" y="586"/>
      <point x="524" y="586" type="curve" smooth="yes"/>
      <point x="751" y="586"/>
      <point x="834" y="458"/>
      <point x="834" y="308" type="curve" smooth="yes"/>
      <point x="834" y="157"/>
      <point x="800" y="104"/>
      <point x="776" y="104" type="curve" smooth="yes"/>
      <point x="755" y="104"/>
      <point x="747" y="119"/>
      <point x="747" y="228" type="curve" smooth="yes"/>
      <point x="747" y="371" type="line" smooth="yes"/>
      <point x="747" y="440"/>
    </contour>
    <contour>
      <point x="503" y="467"/>
      <point x="460" y="467" type="curve" smooth="yes"/>
      <point x="351" y="467"/>
      <point x="250" y="360"/>
      <point x="250" y="205" type="curve" smooth="yes"/>
      <point x="250" y="66"/>
      <point x="296" y="-9"/>
      <point x="398" y="-9" type="curve" smooth="yes"/>
      <point x="539" y="-9"/>
      <point x="610" y="128"/>
      <point x="621" y="343" type="curve"/>
      <point x="568" y="328" type="line"/>
      <point x="556" y="179"/>
      <point x="528" y="99"/>
      <point x="484" y="99" type="curve" smooth="yes"/>
      <point x="456" y="99"/>
      <point x="440" y="140"/>
      <point x="440" y="243" type="curve" smooth="yes"/>
      <point x="440" y="370"/>
      <point x="457" y="390"/>
      <point x="506" y="390" type="curve" smooth="yes"/>
      <point x="528" y="390"/>
      <point x="554" y="381"/>
      <point x="576" y="360" type="curve"/>
      <point x="582" y="454" type="line"/>
      <point x="536" y="464"/>
    </contour>
  </outline>
</glyph>
<glyph name="A" format="2">
  <advance width="717"/>
  <unicode hex="0041"/>
  <anchor x="299" y="0" name="bottom"/>
  <anchor x="626" y="0" name="ogonek"/>
  <anchor x="350" y="676" name="top"/>
  <outline>
    <contour>
      <point x="388" y="682" type="line"/>
      <point x="357" y="682"/>
      <point x="338" y="682"/>
      <point x="312" y="676" type="curve"/>
      <point x="100" y="176" type="line" smooth="yes"/>
      <point x="67" y="99"/>
      <point x="52" y="81"/>
      <point x="20" y="75" type="curve"/>
      <point x="12" y="50"/>
      <point x="10" y="27"/>
      <point x="10" y="-3" type="curve"/>
      <point x="30" y="-1"/>
      <point x="73" y="0"/>
      <point x="106" y="0" type="curve" smooth="yes"/>
      <point x="139" y="0"/>
      <point x="200" y="-1"/>
      <point x="223" y="-3" type="curve"/>
      <point x="223" y="29"/>
      <point x="220" y="54"/>
      <point x="215" y="75" type="curve"/>
      <point x="172" y="82"/>
      <point x="165" y="123"/>
      <point x="177" y="152" type="curve" smooth="yes"/>
      <point x="241" y="316" type="line" smooth="yes"/>
      <point x="273" y="395"/>
      <point x="294" y="465"/>
      <point x="310" y="528" type="curve"/>
      <point x="273" y="528" type="line"/>
      <point x="283" y="467"/>
      <point x="304" y="396"/>
      <point x="340" y="316" type="curve" smooth="yes"/>
      <point x="413" y="151" type="line" smooth="yes"/>
      <point x="433" y="106"/>
      <point x="426" y="85"/>
      <point x="382" y="75" type="curve"/>
      <point x="377" y="55"/>
      <point x="374" y="34"/>
      <point x="374" y="-3" type="curve"/>
      <point x="412" y="0"/>
      <point x="518" y="0"/>
      <point x="550" y="0" type="curve" smooth="yes"/>
      <point x="582" y="0"/>
      <point x="667" y="0"/>
      <point x="707" y="-3" type="curve"/>
      <point x="707" y="29"/>
      <point x="704" y="58"/>
      <point x="699" y="75" type="curve"/>
      <point x="670" y="78"/>
      <point x="657" y="92"/>
      <point x="610" y="195" type="curve" smooth="yes"/>
    </contour>
    <contour>
      <point x="406" y="231" type="line"/>
      <point x="161" y="231" type="line"/>
      <point x="146" y="153" type="line"/>
      <point x="242" y="164"/>
      <point x="337" y="166"/>
      <point x="427" y="166" type="curve"/>
    </contour>
  </outline>
</glyph>
<glyph name="D" format="2">
  <advance width="739"/>
  <unicode hex="0044"/>
  <anchor x="320" y="0" name="bottom"/>
  <anchor x="222" y="348" name="center"/>
  <anchor x="350" y="676" name="top"/>
  <outline>
    <contour>
      <point x="30" y="-3" type="curve"/>
      <point x="76" y="-2"/>
      <point x="269" y="0"/>
      <point x="339" y="0" type="curve" smooth="yes"/>
      <point x="438" y="0"/>
      <point x="704" y="31"/>
      <point x="704" y="355" type="curve" smooth="yes"/>
      <point x="704" y="627"/>
      <point x="539" y="678"/>
      <point x="344" y="678" type="curve" smooth="yes"/>
      <point x="301" y="678"/>
      <point x="267" y="676"/>
      <point x="239" y="676" type="curve" smooth="yes"/>
      <point x="166" y="676"/>
      <point x="77" y="677"/>
      <point x="30" y="679" type="curve"/>
      <point x="30" y="657"/>
      <point x="32" y="621"/>
      <point x="37" y="601" type="curve"/>
      <point x="93" y="593"/>
      <point x="104" y="581"/>
      <point x="104" y="491" type="curve" smooth="yes"/>
      <point x="104" y="187" type="line" smooth="yes"/>
      <point x="104" y="95"/>
      <point x="92" y="79"/>
      <point x="38" y="75" type="curve"/>
      <point x="33" y="56"/>
      <point x="30" y="26"/>
    </contour>
    <contour>
      <point x="382" y="75" type="curve" smooth="yes"/>
      <point x="322" y="75"/>
      <point x="304" y="100"/>
      <point x="304" y="192" type="curve" smooth="yes"/>
      <point x="304" y="629" type="line"/>
      <point x="289" y="585" type="line"/>
      <point x="300" y="596"/>
      <point x="321" y="603"/>
      <point x="344" y="603" type="curve" smooth="yes"/>
      <point x="426" y="603"/>
      <point x="502" y="550"/>
      <point x="502" y="337" type="curve" smooth="yes"/>
      <point x="502" y="95"/>
      <point x="412" y="75"/>
    </contour>
  </outline>
</glyph>
<glyph name="E" format="2">
  <advance width="646"/>
  <unicode hex="0045"/>
  <anchor x="343" y="0" name="bottom"/>
  <anchor x="550" y="0" name="ogonek"/>
  <anchor x="314" y="676" name="top"/>
  <outline>
    <contour>
      <point x="30" y="679" type="curve"/>
      <point x="30" y="657"/>
      <point x="32" y="621"/>
      <point x="37" y="601" type="curve"/>
      <point x="93" y="593"/>
      <point x="104" y="581"/>
      <point x="104" y="491" type="curve" smooth="yes"/>
      <point x="104" y="187" type="line" smooth="yes"/>
      <point x="104" y="95"/>
      <point x="92" y="79"/>
      <point x="38" y="75" type="curve"/>
      <point x="33" y="56"/>
      <point x="30" y="26"/>
      <point x="30" y="-3" type="curve"/>
      <point x="76" y="-2"/>
      <point x="269" y="0"/>
      <point x="339" y="0" type="curve"/>
      <point x="382" y="75" type="line"/>
      <point x="322" y="75"/>
      <point x="304" y="100"/>
      <point x="304" y="192" type="curve" smooth="yes"/>
      <point x="304" y="676" type="line"/>
      <point x="230" y="676"/>
      <point x="93" y="677"/>
    </contour>
    <contour>
      <point x="529" y="211" type="curve"/>
      <point x="503" y="115"/>
      <point x="467" y="75"/>
      <point x="399" y="75" type="curve" smooth="yes"/>
      <point x="382" y="75" type="line"/>
      <point x="339" y="0" type="line"/>
      <point x="423" y="0"/>
      <point x="541" y="-1"/>
      <point x="600" y="-2" type="curve"/>
      <point x="605" y="63"/>
      <point x="616" y="131"/>
      <point x="631" y="177" type="curve"/>
      <point x="614" y="193"/>
      <point x="573" y="207"/>
    </contour>
    <contour>
      <point x="474" y="457" type="curve"/>
      <point x="444" y="457"/>
      <point x="409" y="454"/>
      <point x="386" y="445" type="curve"/>
      <point x="385" y="393"/>
      <point x="370" y="374"/>
      <point x="305" y="374" type="curve" smooth="yes"/>
      <point x="248" y="374" type="line"/>
      <point x="248" y="299" type="line"/>
      <point x="305" y="299" type="line" smooth="yes"/>
      <point x="364" y="299"/>
      <point x="383" y="286"/>
      <point x="388" y="231" type="curve"/>
      <point x="411" y="223"/>
      <point x="437" y="221"/>
      <point x="474" y="221" type="curve"/>
      <point x="472" y="250"/>
      <point x="470" y="284"/>
      <point x="470" y="340" type="curve" smooth="yes"/>
      <point x="470" y="390"/>
      <point x="472" y="425"/>
    </contour>
    <contour>
      <point x="571" y="679" type="curve"/>
      <point x="514" y="677"/>
      <point x="444" y="676"/>
      <point x="294" y="676" type="curve"/>
      <point x="260" y="601" type="line"/>
      <point x="353" y="601" type="line" smooth="yes"/>
      <point x="452" y="601"/>
      <point x="478" y="555"/>
      <point x="491" y="483" type="curve"/>
      <point x="537" y="483"/>
      <point x="566" y="491"/>
      <point x="592" y="501" type="curve"/>
      <point x="579" y="548"/>
      <point x="572" y="628"/>
    </contour>
  </outline>
</glyph>
<glyph name="F" format="2">
  <advance width="617"/>
  <unicode hex="0046"/>
  <anchor x="204" y="182" name="center"/>
  <outline>
    <contour>
      <point x="30" y="-3" type="curve"/>
      <point x="76" y="-1"/>
      <point x="160" y="0"/>
      <point x="232" y="0" type="curve" smooth="yes"/>
      <point x="295" y="0"/>
      <point x="384" y="-1"/>
      <point x="422" y="-3" type="curve"/>
      <point x="422" y="22"/>
      <point x="421" y="53"/>
      <point x="413" y="75" type="curve"/>
      <point x="329" y="81"/>
      <point x="304" y="111"/>
      <point x="304" y="197" type="curve" smooth="yes"/>
      <point x="304" y="676" type="line"/>
      <point x="235" y="676"/>
      <point x="93" y="677"/>
      <point x="30" y="679" type="curve"/>
      <point x="30" y="647"/>
      <point x="34" y="621"/>
      <point x="39" y="601" type="curve"/>
      <point x="95" y="593"/>
      <point x="104" y="581"/>
      <point x="104" y="491" type="curve" smooth="yes"/>
      <point x="104" y="187" type="line" smooth="yes"/>
      <point x="104" y="95"/>
      <point x="91" y="79"/>
      <point x="37" y="75" type="curve"/>
      <point x="32" y="56"/>
      <point x="30" y="33"/>
    </contour>
    <contour>
      <point x="504" y="186" type="curve"/>
      <point x="502" y="215"/>
      <point x="500" y="249"/>
      <point x="500" y="305" type="curve" smooth="yes"/>
      <point x="500" y="355"/>
      <point x="502" y="390"/>
      <point x="504" y="422" type="curve"/>
      <point x="474" y="422"/>
      <point x="439" y="419"/>
      <point x="416" y="410" type="curve"/>
      <point x="415" y="358"/>
      <point x="400" y="339"/>
      <point x="335" y="339" type="curve" smooth="yes"/>
      <point x="278" y="339" type="line"/>
      <point x="278" y="264" type="line"/>
      <point x="335" y="264" type="line" smooth="yes"/>
      <point x="394" y="264"/>
      <point x="413" y="251"/>
      <point x="418" y="196" type="curve"/>
      <point x="441" y="188"/>
      <point x="467" y="186"/>
    </contour>
    <contour>
      <point x="501" y="483" type="curve"/>
      <point x="547" y="483"/>
      <point x="576" y="491"/>
      <point x="602" y="501" type="curve"/>
      <point x="589" y="548"/>
      <point x="582" y="628"/>
      <point x="581" y="679" type="curve"/>
      <point x="524" y="677"/>
      <point x="454" y="676"/>
      <point x="294" y="676" type="curve"/>
      <point x="260" y="601" type="line"/>
      <point x="363" y="601" type="line" smooth="yes"/>
      <point x="462" y="601"/>
      <point x="488" y="555"/>
    </contour>
  </outline>
</glyph>
<glyph name="I" format="2">
  <advance width="408"/>
  <unicode hex="0049"/>
  <anchor x="204" y="0" name="bottom"/>
  <anchor x="306" y="0" name="ogonek"/>
  <anchor x="204" y="676" name="top"/>
  <outline>
    <contour>
      <point x="104" y="491" type="curve" smooth="yes"/>
      <point x="104" y="187" type="line" smooth="yes"/>
      <point x="104" y="95"/>
      <point x="94" y="79"/>
      <point x="40" y="75" type="curve"/>
      <point x="35" y="56"/>
      <point x="30" y="21"/>
      <point x="30" y="-3" type="curve"/>
      <point x="77" y="-1"/>
      <point x="150" y="0"/>
      <point x="219" y="0" type="curve" smooth="yes"/>
      <point x="288" y="0"/>
      <point x="348" y="-1"/>
      <point x="378" y="-3" type="curve"/>
      <point x="378" y="23"/>
      <point x="375" y="57"/>
      <point x="370" y="75" type="curve"/>
      <point x="316" y="79"/>
      <point x="304" y="95"/>
      <point x="304" y="187" type="curve" smooth="yes"/>
      <point x="304" y="491" type="line" smooth="yes"/>
      <point x="304" y="581"/>
      <point x="314" y="595"/>
      <point x="369" y="601" type="curve"/>
      <point x="378" y="627"/>
      <point x="378" y="652"/>
      <point x="378" y="679" type="curve"/>
      <point x="338" y="677"/>
      <point x="257" y="676"/>
      <point x="209" y="676" type="curve" smooth="yes"/>
      <point x="161" y="676"/>
      <point x="63" y="677"/>
      <point x="30" y="679" type="curve"/>
      <point x="30" y="653"/>
      <point x="34" y="621"/>
      <point x="39" y="601" type="curve"/>
      <point x="95" y="593"/>
      <point x="104" y="581"/>
    </contour>
  </outline>
</glyph>
<glyph name="L" format="2">
  <advance width="641"/>
  <unicode hex="004C"/>
  <anchor x="321" y="0" name="bottom"/>
  <anchor x="204" y="338" name="center"/>
  <anchor x="204" y="676" name="top"/>
  <anchor x="378" y="458" name="topright"/>
  <outline>
    <contour>
      <point x="399" y="75" type="curve" smooth="yes"/>
      <point x="382" y="75" type="line" smooth="yes"/>
      <point x="322" y="75"/>
      <point x="304" y="100"/>
      <point x="304" y="192" type="curve" smooth="yes"/>
      <point x="304" y="491" type="line" smooth="yes"/>
      <point x="304" y="581"/>
      <point x="314" y="595"/>
      <point x="369" y="601" type="curve"/>
      <point x="378" y="622"/>
      <point x="378" y="652"/>
      <point x="378" y="679" type="curve"/>
      <point x="338" y="677"/>
      <point x="252" y="676"/>
      <point x="204" y="676" type="curve" smooth="yes"/>
      <point x="130" y="676"/>
      <point x="93" y="677"/>
      <point x="30" y="679" type="curve"/>
      <point x="30" y="657"/>
      <point x="32" y="621"/>
      <point x="37" y="601" type="curve"/>
      <point x="93" y="593"/>
      <point x="104" y="580"/>
      <point x="104" y="491" type="curve" smooth="yes"/>
      <point x="104" y="187" type="line" smooth="yes"/>
      <point x="104" y="95"/>
      <point x="92" y="79"/>
      <point x="38" y="75" type="curve"/>
      <point x="33" y="56"/>
      <point x="30" y="26"/>
      <point x="30" y="-3" type="curve"/>
      <point x="76" y="-2"/>
      <point x="269" y="0"/>
      <point x="339" y="0" type="curve" smooth="yes"/>
      <point x="423" y="0"/>
      <point x="541" y="-1"/>
      <point x="600" y="-2" type="curve"/>
      <point x="605" y="63"/>
      <point x="616" y="131"/>
      <point x="631" y="177" type="curve"/>
      <point x="614" y="193"/>
      <point x="573" y="207"/>
      <point x="529" y="211" type="curve"/>
      <point x="503" y="115"/>
      <point x="467" y="75"/>
    </contour>
  </outline>
</glyph>
<glyph name="M" format="2">
  <advance width="998"/>
  <unicode hex="004D"/>
  <anchor x="447" y="0" name="bottom"/>
  <anchor x="981" y="76" name="bottomright"/>
  <anchor x="499" y="676" name="top"/>
  <outline>
    <contour>
      <point x="414" y="-9" type="line"/>
      <point x="438" y="-9"/>
      <point x="472" y="-7"/>
      <point x="489" y="-1" type="curve"/>
      <point x="693" y="519" type="line"/>
      <point x="671" y="519" type="line"/>
      <point x="705" y="200" type="line" smooth="yes"/>
      <point x="716" y="95"/>
      <point x="709" y="82"/>
      <point x="648" y="75" type="curve"/>
      <point x="643" y="51"/>
      <point x="639" y="30"/>
      <point x="639" y="-3" type="curve"/>
      <point x="663" y="-2"/>
      <point x="744" y="0"/>
      <point x="793" y="0" type="curve" smooth="yes"/>
      <point x="842" y="0"/>
      <point x="962" y="-1"/>
      <point x="988" y="-3" type="curve"/>
      <point x="988" y="28"/>
      <point x="986" y="53"/>
      <point x="981" y="76" type="curve"/>
      <point x="927" y="82"/>
      <point x="916" y="92"/>
      <point x="904" y="211" type="curve" smooth="yes"/>
      <point x="876" y="485" type="line" smooth="yes"/>
      <point x="867" y="574"/>
      <point x="879" y="601"/>
      <point x="940" y="601" type="curve"/>
      <point x="946" y="621"/>
      <point x="948" y="651"/>
      <point x="948" y="679" type="curve"/>
      <point x="918" y="677"/>
      <point x="845" y="676"/>
      <point x="813" y="676" type="curve" smooth="yes"/>
      <point x="781" y="676"/>
      <point x="705" y="677"/>
      <point x="669" y="679" type="curve"/>
      <point x="496" y="200" type="line"/>
      <point x="533" y="200" type="line"/>
      <point x="332" y="679" type="line"/>
      <point x="312" y="677"/>
      <point x="228" y="676"/>
      <point x="196" y="676" type="curve" smooth="yes"/>
      <point x="164" y="676"/>
      <point x="86" y="677"/>
      <point x="56" y="679" type="curve"/>
      <point x="56" y="647"/>
      <point x="57" y="625"/>
      <point x="64" y="601" type="curve"/>
      <point x="121" y="601"/>
      <point x="135" y="582"/>
      <point x="126" y="486" type="curve" smooth="yes"/>
      <point x="104" y="242" type="line" smooth="yes"/>
      <point x="92" y="113"/>
      <point x="69" y="78"/>
      <point x="18" y="75" type="curve"/>
      <point x="12" y="52"/>
      <point x="10" y="26"/>
      <point x="10" y="-3" type="curve"/>
      <point x="30" y="-2"/>
      <point x="94" y="0"/>
      <point x="136" y="0" type="curve" smooth="yes"/>
      <point x="178" y="0"/>
      <point x="226" y="-1"/>
      <point x="246" y="-3" type="curve"/>
      <point x="246" y="26"/>
      <point x="244" y="52"/>
      <point x="238" y="75" type="curve"/>
      <point x="183" y="79"/>
      <point x="165" y="106"/>
      <point x="179" y="246" type="curve" smooth="yes"/>
      <point x="208" y="522" type="line"/>
      <point x="181" y="522" type="line"/>
    </contour>
  </outline>
</glyph>
<glyph name="N" format="2">
  <advance width="711"/>
  <unicode hex="004E"/>
  <anchor x="389" y="0" name="bottom"/>
  <anchor x="358" y="373" name="center"/>
  <anchor x="360" y="676" name="top"/>
  <outline>
    <contour>
      <point x="520" y="-9" type="line"/>
      <point x="553" y="277" type="line"/>
      <point x="261" y="679" type="line"/>
      <point x="234" y="676"/>
      <point x="181" y="676"/>
      <point x="148" y="676" type="curve" smooth="yes"/>
      <point x="115" y="676"/>
      <point x="41" y="677"/>
      <point x="15" y="679" type="curve"/>
      <point x="15" y="649"/>
      <point x="17" y="623"/>
      <point x="23" y="601" type="curve"/>
      <point x="66" y="597"/>
      <point x="79" y="591"/>
      <point x="90" y="573" type="curve" smooth="yes"/>
    </contour>
    <contour>
      <point x="15" y="-3" type="curve"/>
      <point x="39" y="-1"/>
      <point x="110" y="0"/>
      <point x="144" y="0" type="curve" smooth="yes"/>
      <point x="178" y="0"/>
      <point x="237" y="-1"/>
      <point x="265" y="-3" type="curve"/>
      <point x="265" y="24"/>
      <point x="264" y="53"/>
      <point x="258" y="75" type="curve"/>
      <point x="193" y="82"/>
      <point x="179" y="104"/>
      <point x="179" y="218" type="curve" smooth="yes"/>
      <point x="179" y="607" type="line"/>
      <point x="104" y="615" type="line"/>
      <point x="104" y="218" type="line" smooth="yes"/>
      <point x="104" y="104"/>
      <point x="85" y="82"/>
      <point x="23" y="75" type="curve"/>
      <point x="16" y="53"/>
      <point x="15" y="29"/>
    </contour>
    <contour>
      <point x="520" y="-9" type="line"/>
      <point x="557" y="-9"/>
      <point x="584" y="-8"/>
      <point x="611" y="0" type="curve"/>
      <point x="611" y="458" type="line" smooth="yes"/>
      <point x="611" y="575"/>
      <point x="622" y="594"/>
      <point x="674" y="601" type="curve"/>
      <point x="681" y="627"/>
      <point x="681" y="652"/>
      <point x="681" y="679" type="curve"/>
      <point x="657" y="677"/>
      <point x="609" y="676"/>
      <point x="575" y="676" type="curve" smooth="yes"/>
      <point x="541" y="676"/>
      <point x="472" y="677"/>
      <point x="444" y="679" type="curve"/>
      <point x="444" y="656"/>
      <point x="445" y="624"/>
      <point x="451" y="601" type="curve"/>
      <point x="523" y="593"/>
      <point x="536" y="572"/>
      <point x="536" y="458" type="curve" smooth="yes"/>
      <point x="536" y="180" type="line"/>
    </contour>
  </outline>
</glyph>
<glyph name="S" format="2">
  <advance width="564"/>
  <unicode hex="0053"/>
  <anchor x="286" y="0" name="bottom"/>
  <anchor x="290" y="676" name="top"/>
  <outline>
    <contour>
      <point x="274" y="-9" type="curve" smooth="yes"/>
      <point x="449" y="-9"/>
      <point x="544" y="69"/>
      <point x="544" y="198" type="curve" smooth="yes"/>
      <point x="544" y="444"/>
      <point x="197" y="427"/>
      <point x="197" y="547" type="curve" smooth="yes"/>
      <point x="197" y="587"/>
      <point x="231" y="605"/>
      <point x="273" y="605" type="curve" smooth="yes"/>
      <point x="330" y="605"/>
      <point x="368" y="574"/>
      <point x="385" y="467" type="curve"/>
      <point x="419" y="467"/>
      <point x="472" y="472"/>
      <point x="500" y="490" type="curve"/>
      <point x="495" y="521"/>
      <point x="493" y="583"/>
      <point x="493" y="641" type="curve"/>
      <point x="454" y="666"/>
      <point x="362" y="685"/>
      <point x="287" y="685" type="curve" smooth="yes"/>
      <point x="157" y="685"/>
      <point x="43" y="629"/>
      <point x="43" y="478" type="curve" smooth="yes"/>
      <point x="43" y="230"/>
      <point x="365" y="245"/>
      <point x="365" y="140" type="curve" smooth="yes"/>
      <point x="365" y="107"/>
      <point x="337" y="73"/>
      <point x="269" y="73" type="curve" smooth="yes"/>
      <point x="194" y="73"/>
      <point x="174" y="104"/>
      <point x="165" y="230" type="curve"/>
      <point x="125" y="230"/>
      <point x="81" y="228"/>
      <point x="42" y="217" type="curve"/>
      <point x="42" y="162"/>
      <point x="40" y="102"/>
      <point x="28" y="48" type="curve"/>
      <point x="103" y="10"/>
      <point x="184" y="-9"/>
    </contour>
  </outline>
</glyph>
<glyph name="U" format="2">
  <advance width="697"/>
  <unicode hex="0055"/>
  <anchor x="360" y="0" name="bottom"/>
  <anchor x="413" y="350" name="center"/>
  <anchor x="479" y="10" name="ogonek"/>
  <anchor x="406" y="676" name="top"/>
  <anchor x="667" y="679" name="topright"/>
  <outline>
    <contour>
      <point x="596" y="277" type="curve" smooth="yes"/>
      <point x="596" y="476" type="line" smooth="yes"/>
      <point x="596" y="568"/>
      <point x="607" y="594"/>
      <point x="659" y="601" type="curve"/>
      <point x="665" y="623"/>
      <point x="667" y="650"/>
      <point x="667" y="679" type="curve"/>
      <point x="642" y="677"/>
      <point x="599" y="676"/>
      <point x="560" y="676" type="curve" smooth="yes"/>
      <point x="531" y="676"/>
      <point x="475" y="677"/>
      <point x="448" y="679" type="curve"/>
      <point x="448" y="655"/>
      <point x="450" y="628"/>
      <point x="454" y="601" type="curve"/>
      <point x="503" y="591"/>
      <point x="520" y="567"/>
      <point x="520" y="467" type="curve" smooth="yes"/>
      <point x="520" y="287" type="line" smooth="yes"/>
      <point x="520" y="184"/>
      <point x="509" y="141"/>
      <point x="492" y="115" type="curve" smooth="yes"/>
      <point x="471" y="84"/>
      <point x="436" y="72"/>
      <point x="406" y="72" type="curve" smooth="yes"/>
      <point x="331" y="72"/>
      <point x="294" y="131"/>
      <point x="294" y="256" type="curve" smooth="yes"/>
      <point x="294" y="486" type="line" smooth="yes"/>
      <point x="294" y="578"/>
      <point x="304" y="592"/>
      <point x="358" y="601" type="curve"/>
      <point x="363" y="624"/>
      <point x="364" y="647"/>
      <point x="364" y="679" type="curve"/>
      <point x="332" y="677"/>
      <point x="210" y="676"/>
      <point x="156" y="676" type="curve" smooth="yes"/>
      <point x="102" y="676"/>
      <point x="47" y="677"/>
      <point x="20" y="679" type="curve"/>
      <point x="20" y="649"/>
      <point x="23" y="622"/>
      <point x="28" y="601" type="curve"/>
      <point x="81" y="592"/>
      <point x="94" y="579"/>
      <point x="94" y="486" type="curve" smooth="yes"/>
      <point x="94" y="239" type="line" smooth="yes"/>
      <point x="94" y="64"/>
      <point x="158" y="-9"/>
      <point x="359" y="-9" type="curve" smooth="yes"/>
      <point x="436" y="-9"/>
      <point x="495" y="6"/>
      <point x="536" y="44" type="curve" smooth="yes"/>
      <point x="583" y="90"/>
      <point x="596" y="162"/>
    </contour>
  </outline>
</glyph>
<glyph name="V" format="2">
  <advance width="707"/>
  <unicode hex="0056"/>
  <anchor x="347" y="0" name="bottom"/>
  <anchor x="414" y="676" name="top"/>
  <outline>
    <contour>
      <point x="307" y="-9" type="curve"/>
      <point x="337" y="-9"/>
      <point x="376" y="-9"/>
      <point x="399" y="0" type="curve"/>
      <point x="475" y="175"/>
      <point x="540" y="334"/>
      <point x="605" y="500" type="curve" smooth="yes"/>
      <point x="634" y="573"/>
      <point x="652" y="594"/>
      <point x="687" y="601" type="curve"/>
      <point x="692" y="622"/>
      <point x="697" y="648"/>
      <point x="697" y="679" type="curve"/>
      <point x="677" y="677"/>
      <point x="631" y="676"/>
      <point x="598" y="676" type="curve" smooth="yes"/>
      <point x="565" y="676"/>
      <point x="507" y="677"/>
      <point x="484" y="679" type="curve"/>
      <point x="483" y="641"/>
      <point x="486" y="618"/>
      <point x="492" y="601" type="curve"/>
      <point x="534" y="595"/>
      <point x="541" y="563"/>
      <point x="528" y="525" type="curve" smooth="yes"/>
      <point x="481" y="390"/>
      <point x="448" y="309"/>
      <point x="390" y="178" type="curve"/>
      <point x="423" y="178" type="line"/>
      <point x="389" y="312"/>
      <point x="355" y="395"/>
      <point x="312" y="502" type="curve" smooth="yes"/>
      <point x="282" y="572"/>
      <point x="284" y="593"/>
      <point x="335" y="601" type="curve"/>
      <point x="339" y="617"/>
      <point x="342" y="641"/>
      <point x="343" y="679" type="curve"/>
      <point x="279" y="676"/>
      <point x="205" y="676"/>
      <point x="173" y="676" type="curve" smooth="yes"/>
      <point x="141" y="676"/>
      <point x="44" y="677"/>
      <point x="10" y="679" type="curve"/>
      <point x="9" y="645"/>
      <point x="12" y="618"/>
      <point x="18" y="601" type="curve"/>
      <point x="48" y="595"/>
      <point x="61" y="575"/>
      <point x="105" y="482" type="curve" smooth="yes"/>
      <point x="175" y="328"/>
      <point x="242" y="162"/>
    </contour>
  </outline>
</glyph>
<glyph name="Y" format="2">
  <advance width="634"/>
  <unicode hex="0059"/>
  <anchor x="319" y="0" name="bottom"/>
  <anchor x="323" y="226" name="center"/>
  <anchor x="380" y="676" name="top"/>
  <outline>
    <contour>
      <point x="423" y="261" type="line"/>
      <point x="223" y="261" type="line"/>
      <point x="223" y="199" type="line" smooth="yes"/>
      <point x="223" y="93"/>
      <point x="213" y="82"/>
      <point x="117" y="75" type="curve"/>
      <point x="108" y="53"/>
      <point x="106" y="26"/>
      <point x="105" y="-3" type="curve"/>
      <point x="167" y="-2"/>
      <point x="243" y="0"/>
      <point x="318" y="0" type="curve" smooth="yes"/>
      <point x="393" y="0"/>
      <point x="474" y="0"/>
      <point x="532" y="-3" type="curve"/>
      <point x="532" y="29"/>
      <point x="531" y="47"/>
      <point x="522" y="75" type="curve"/>
      <point x="437" y="81"/>
      <point x="423" y="99"/>
      <point x="423" y="198" type="curve" smooth="yes"/>
    </contour>
    <contour>
      <point x="365" y="120" type="line"/>
      <point x="545" y="517" type="line" smooth="yes"/>
      <point x="574" y="581"/>
      <point x="591" y="596"/>
      <point x="615" y="601" type="curve"/>
      <point x="620" y="620"/>
      <point x="624" y="644"/>
      <point x="624" y="678" type="curve"/>
      <point x="592" y="676"/>
      <point x="561" y="676"/>
      <point x="531" y="676" type="curve" smooth="yes"/>
      <point x="491" y="676"/>
      <point x="464" y="676"/>
      <point x="428" y="678" type="curve"/>
      <point x="428" y="644"/>
      <point x="431" y="623"/>
      <point x="437" y="601" type="curve"/>
      <point x="474" y="598"/>
      <point x="485" y="568"/>
      <point x="466" y="524" type="curve" smooth="yes"/>
      <point x="443" y="471"/>
      <point x="416" y="406"/>
      <point x="387" y="331" type="curve"/>
      <point x="392" y="331" type="line"/>
      <point x="367" y="401"/>
      <point x="338" y="474"/>
      <point x="320" y="518" type="curve" smooth="yes"/>
      <point x="301" y="565"/>
      <point x="297" y="595"/>
      <point x="339" y="601" type="curve"/>
      <point x="343" y="623"/>
      <point x="346" y="643"/>
      <point x="346" y="678" type="curve"/>
      <point x="305" y="676"/>
      <point x="216" y="676"/>
      <point x="178" y="676" type="curve" smooth="yes"/>
      <point x="140" y="676"/>
      <point x="58" y="676"/>
      <point x="10" y="678" type="curve"/>
      <point x="10" y="645"/>
      <point x="12" y="623"/>
      <point x="18" y="601" type="curve"/>
      <point x="40" y="598"/>
      <point x="63" y="585"/>
      <point x="84" y="542" type="curve" smooth="yes"/>
      <point x="286" y="119" type="line"/>
    </contour>
  </outline>
</glyph>
<glyph name="bracketleft" format="2">
  <advance width="311"/>
  <unicode hex="005B"/>
  <outline>
    <contour>
      <point x="35" y="742" type="curve"/>
      <point x="35" y="-269" type="line"/>
      <point x="83" y="-268"/>
      <point x="118" y="-267"/>
      <point x="155" y="-267" type="curve" smooth="yes"/>
      <point x="186" y="-267"/>
      <point x="220" y="-268"/>
      <point x="264" y="-269" type="curve"/>
      <point x="264" y="-237"/>
      <point x="264" y="-215"/>
      <point x="253" y="-184" type="curve"/>
      <point x="175" y="-180"/>
      <point x="162" y="-165"/>
      <point x="162" y="-96" type="curve" smooth="yes"/>
      <point x="162" y="575" type="line" smooth="yes"/>
      <point x="162" y="640"/>
      <point x="177" y="652"/>
      <point x="264" y="659" type="curve"/>
      <point x="264" y="690"/>
      <point x="264" y="717"/>
      <point x="252" y="742" type="curve"/>
      <point x="207" y="741"/>
      <point x="171" y="741"/>
      <point x="131" y="741" type="curve" smooth="yes"/>
      <point x="102" y="741"/>
      <point x="71" y="741"/>
    </contour>
  </outline>
</glyph>
<glyph name="backslash" format="2">
  <advance width="405"/>
  <unicode hex="005C"/>
  <outline>
    <contour>
      <point x="42" y="714"/>
      <point x="24" y="709" type="curve"/>
      <point x="291" y="-9" type="line"/>
      <point x="314" y="-9"/>
      <point x="353" y="-7"/>
      <point x="376" y="0" type="curve"/>
      <point x="110" y="717" type="line"/>
      <point x="107" y="717"/>
      <point x="103" y="717"/>
      <point x="100" y="717" type="curve" smooth="yes"/>
      <point x="66" y="717"/>
    </contour>
  </outline>
</glyph>
<glyph name="underscore" format="2">
  <advance width="550"/>
  <unicode hex="005F"/>
  <outline>
    <contour>
      <point x="16" y="-153" type="curve"/>
      <point x="122" y="-152"/>
      <point x="183" y="-151"/>
      <point x="262" y="-151" type="curve" smooth="yes"/>
      <point x="352" y="-151"/>
      <point x="404" y="-151"/>
      <point x="520" y="-152" type="curve"/>
      <point x="532" y="-130"/>
      <point x="534" y="-96"/>
      <point x="534" y="-72" type="curve"/>
      <point x="30" y="-72" type="line"/>
      <point x="19" y="-96"/>
      <point x="16" y="-122"/>
    </contour>
  </outline>
</glyph>
<glyph name="a" format="2">
  <advance width="589"/>
  <unicode hex="0061"/>
  <anchor x="298" y="0" name="bottom"/>
  <anchor x="563" y="25" name="ogonek"/>
  <anchor x="273" y="458" name="top"/>
  <outline>
    <contour>
      <point x="383" y="-9" type="curve"/>
      <point x="439" y="13"/>
      <point x="501" y="24"/>
      <point x="563" y="25" type="curve"/>
      <point x="576" y="48"/>
      <point x="579" y="75"/>
      <point x="574" y="104" type="curve"/>
      <point x="526" y="106"/>
      <point x="518" y="117"/>
      <point x="518" y="190" type="curve" smooth="yes"/>
      <point x="518" y="256" type="line" smooth="yes"/>
      <point x="518" y="352"/>
      <point x="496" y="393"/>
      <point x="472" y="417" type="curve" smooth="yes"/>
      <point x="445" y="444"/>
      <point x="393" y="468"/>
      <point x="292" y="468" type="curve" smooth="yes"/>
      <point x="215" y="468"/>
      <point x="125" y="454"/>
      <point x="66" y="431" type="curve"/>
      <point x="76" y="380"/>
      <point x="76" y="340"/>
      <point x="73" y="302" type="curve"/>
      <point x="105" y="290"/>
      <point x="135" y="289"/>
      <point x="182" y="289" type="curve"/>
      <point x="189" y="354"/>
      <point x="208" y="398"/>
      <point x="254" y="398" type="curve" smooth="yes"/>
      <point x="270" y="398"/>
      <point x="290" y="393"/>
      <point x="305" y="377" type="curve" smooth="yes"/>
      <point x="324" y="357"/>
      <point x="328" y="326"/>
      <point x="328" y="289" type="curve"/>
      <point x="182" y="270"/>
      <point x="25" y="237"/>
      <point x="25" y="110" type="curve" smooth="yes"/>
      <point x="25" y="33"/>
      <point x="83" y="-7"/>
      <point x="178" y="-7" type="curve" smooth="yes"/>
      <point x="230" y="-7"/>
      <point x="272" y="5"/>
      <point x="303" y="30" type="curve" smooth="yes"/>
      <point x="328" y="50"/>
      <point x="348" y="81"/>
      <point x="363" y="129" type="curve"/>
      <point x="359" y="123" type="line"/>
      <point x="350" y="98"/>
      <point x="345" y="68"/>
      <point x="345" y="48" type="curve" smooth="yes"/>
      <point x="345" y="21"/>
      <point x="354" y="2"/>
    </contour>
    <contour>
      <point x="247" y="102" type="curve" smooth="yes"/>
      <point x="227" y="102"/>
      <point x="210" y="113"/>
      <point x="210" y="143" type="curve" smooth="yes"/>
      <point x="210" y="180"/>
      <point x="236" y="207"/>
      <point x="328" y="225" type="curve"/>
      <point x="328" y="208" type="line" smooth="yes"/>
      <point x="328" y="139"/>
      <point x="285" y="102"/>
    </contour>
  </outline>
</glyph>
<glyph name="c" format="2">
  <advance width="484"/>
  <unicode hex="0063"/>
  <anchor x="298" y="0" name="bottom"/>
  <anchor x="282" y="458" name="top"/>
  <outline>
    <contour>
      <point x="434" y="10"/>
      <point x="469" y="42" type="curve"/>
      <point x="469" y="68"/>
      <point x="460" y="91"/>
      <point x="446" y="106" type="curve"/>
      <point x="422" y="92"/>
      <point x="388" y="83"/>
      <point x="346" y="83" type="curve" smooth="yes"/>
      <point x="252" y="83"/>
      <point x="217" y="165"/>
      <point x="217" y="241" type="curve" smooth="yes"/>
      <point x="217" y="327"/>
      <point x="241" y="395"/>
      <point x="288" y="395" type="curve" smooth="yes"/>
      <point x="323" y="395"/>
      <point x="346" y="356"/>
      <point x="346" y="279" type="curve"/>
      <point x="381" y="279"/>
      <point x="420" y="282"/>
      <point x="451" y="296" type="curve"/>
      <point x="451" y="353"/>
      <point x="455" y="391"/>
      <point x="464" y="428" type="curve"/>
      <point x="417" y="453"/>
      <point x="364" y="467"/>
      <point x="283" y="467" type="curve" smooth="yes"/>
      <point x="113" y="467"/>
      <point x="30" y="347"/>
      <point x="30" y="227" type="curve" smooth="yes"/>
      <point x="30" y="65"/>
      <point x="131" y="-9"/>
      <point x="295" y="-9" type="curve" smooth="yes"/>
      <point x="369" y="-9"/>
    </contour>
  </outline>
</glyph>
<glyph name="h" format="2">
  <advance width="704"/>
  <unicode hex="0068"/>
  <anchor x="357" y="0" name="bottom"/>
  <anchor x="663" y="75" name="bottomright"/>
  <anchor x="189" y="511" name="center"/>
  <anchor x="341" y="676" name="top"/>
  <outline>
    <contour>
      <point x="620" y="162" type="curve" smooth="yes"/>
      <point x="620" y="299" type="line"/>
      <point x="620" y="415"/>
      <point x="536" y="462"/>
      <point x="446" y="462" type="curve" smooth="yes"/>
      <point x="390" y="462"/>
      <point x="343" y="441"/>
      <point x="311" y="409" type="curve" smooth="yes"/>
      <point x="293" y="391"/>
      <point x="283" y="368"/>
      <point x="272" y="342" type="curve"/>
      <point x="279" y="365"/>
      <point x="284" y="387"/>
      <point x="284" y="403" type="curve"/>
      <point x="94" y="270" type="line"/>
      <point x="94" y="162" type="line" smooth="yes"/>
      <point x="94" y="95"/>
      <point x="82" y="75"/>
      <point x="30" y="75" type="curve"/>
      <point x="23" y="57"/>
      <point x="20" y="28"/>
      <point x="20" y="-3" type="curve"/>
      <point x="50" y="-1"/>
      <point x="140" y="0"/>
      <point x="189" y="0" type="curve" smooth="yes"/>
      <point x="238" y="0"/>
      <point x="312" y="-1"/>
      <point x="342" y="-3" type="curve"/>
      <point x="342" y="27"/>
      <point x="341" y="50"/>
      <point x="331" y="75" type="curve"/>
      <point x="302" y="75"/>
      <point x="284" y="92"/>
      <point x="284" y="162" type="curve" smooth="yes"/>
      <point x="284" y="190" type="line" smooth="yes"/>
      <point x="284" y="281"/>
      <point x="319" y="345"/>
      <point x="368" y="345" type="curve" smooth="yes"/>
      <point x="411" y="345"/>
      <point x="430" y="318"/>
      <point x="430" y="242" type="curve" smooth="yes"/>
      <point x="430" y="173" type="line" smooth="yes"/>
      <point x="430" y="98"/>
      <point x="410" y="75"/>
      <point x="382" y="75" type="curve"/>
      <point x="373" y="51"/>
      <point x="372" y="25"/>
      <point x="372" y="-3" type="curve"/>
      <point x="402" y="-1"/>
      <point x="488" y="0"/>
      <point x="535" y="0" type="curve" smooth="yes"/>
      <point x="582" y="0"/>
      <point x="644" y="-2"/>
      <point x="674" y="-3" type="curve"/>
      <point x="674" y="30"/>
      <point x="672" y="53"/>
      <point x="663" y="75" type="curve"/>
      <point x="630" y="75"/>
      <point x="620" y="96"/>
    </contour>
    <contour>
      <point x="94" y="539" type="curve" smooth="yes"/>
      <point x="94" y="536" type="line"/>
      <point x="284" y="536" type="line"/>
      <point x="284" y="653" type="line" smooth="yes"/>
      <point x="284" y="688"/>
      <point x="271" y="707"/>
      <point x="249" y="717" type="curve"/>
      <point x="217" y="701"/>
      <point x="132" y="684"/>
      <point x="33" y="684" type="curve"/>
      <point x="22" y="663"/>
      <point x="20" y="634"/>
      <point x="20" y="609" type="curve"/>
      <point x="80" y="603"/>
      <point x="94" y="585"/>
    </contour>
    <contour>
      <point x="94" y="567" type="line"/>
      <point x="94" y="233" type="line"/>
      <point x="284" y="403" type="line"/>
      <point x="284" y="567" type="line"/>
    </contour>
  </outline>
</glyph>
<glyph name="k" format="2">
  <advance width="662"/>
  <unicode hex="006B"/>
  <anchor x="331" y="0" name="bottom"/>
  <anchor x="355" y="676" name="top"/>
  <outline>
    <contour>
      <point x="20" y="-3" type="curve"/>
      <point x="44" y="-1"/>
      <point x="120" y="0"/>
      <point x="183" y="0" type="curve" smooth="yes"/>
      <point x="245" y="0"/>
      <point x="312" y="-1"/>
      <point x="337" y="-3" type="curve"/>
      <point x="337" y="30"/>
      <point x="336" y="56"/>
      <point x="329" y="75" type="curve"/>
      <point x="293" y="79"/>
      <point x="284" y="98"/>
      <point x="284" y="162" type="curve" smooth="yes"/>
      <point x="284" y="653" type="line" smooth="yes"/>
      <point x="284" y="688"/>
      <point x="271" y="707"/>
      <point x="249" y="717" type="curve"/>
      <point x="217" y="701"/>
      <point x="132" y="684"/>
      <point x="33" y="684" type="curve"/>
      <point x="22" y="663"/>
      <point x="20" y="634"/>
      <point x="20" y="609" type="curve"/>
      <point x="80" y="603"/>
      <point x="94" y="585"/>
      <point x="94" y="539" type="curve" smooth="yes"/>
      <point x="94" y="162" type="line" smooth="yes"/>
      <point x="94" y="95"/>
      <point x="82" y="78"/>
      <point x="29" y="75" type="curve"/>
      <point x="22" y="56"/>
      <point x="20" y="30"/>
    </contour>
    <contour>
      <point x="444" y="-9" type="curve"/>
      <point x="488" y="-2"/>
      <point x="582" y="0"/>
      <point x="633" y="0" type="curve"/>
      <point x="643" y="22"/>
      <point x="647" y="51"/>
      <point x="647" y="75" type="curve"/>
      <point x="617" y="78"/>
      <point x="603" y="87"/>
      <point x="579" y="120" type="curve" smooth="yes"/>
      <point x="525" y="197"/>
      <point x="465" y="265"/>
      <point x="386" y="327" type="curve"/>
      <point x="404" y="264" type="line"/>
      <point x="468" y="323" type="line" smooth="yes"/>
      <point x="515" y="368"/>
      <point x="540" y="378"/>
      <point x="599" y="383" type="curve"/>
      <point x="608" y="408"/>
      <point x="611" y="430"/>
      <point x="611" y="460" type="curve"/>
      <point x="585" y="459"/>
      <point x="554" y="458"/>
      <point x="517" y="458" type="curve" smooth="yes"/>
      <point x="450" y="458"/>
      <point x="371" y="459"/>
      <point x="347" y="460" type="curve"/>
      <point x="347" y="434"/>
      <point x="350" y="410"/>
      <point x="360" y="383" type="curve"/>
      <point x="381" y="381"/>
      <point x="386" y="376"/>
      <point x="386" y="366" type="curve" smooth="yes"/>
      <point x="386" y="358"/>
      <point x="381" y="349"/>
      <point x="350" y="322" type="curve"/>
      <point x="256" y="238" type="line"/>
      <point x="317" y="168"/>
      <point x="406" y="50"/>
    </contour>
  </outline>
</glyph>
<glyph name="l" format="2">
  <advance width="378"/>
  <unicode hex="006C"/>
  <anchor x="189" y="0" name="bottom"/>
  <anchor x="189" y="340" name="center"/>
  <anchor x="189" y="708" name="top"/>
  <anchor x="284" y="458" name="topright"/>
  <outline>
    <contour>
      <point x="20" y="-3" type="curve"/>
      <point x="44" y="-1"/>
      <point x="120" y="0"/>
      <point x="189" y="0" type="curve" smooth="yes"/>
      <point x="258" y="0"/>
      <point x="333" y="-1"/>
      <point x="358" y="-3" type="curve"/>
      <point x="358" y="30"/>
      <point x="356" y="56"/>
      <point x="350" y="75" type="curve"/>
      <point x="297" y="78"/>
      <point x="284" y="95"/>
      <point x="284" y="162" type="curve" smooth="yes"/>
      <point x="284" y="653" type="line" smooth="yes"/>
      <point x="284" y="688"/>
      <point x="271" y="707"/>
      <point x="249" y="717" type="curve"/>
      <point x="217" y="701"/>
      <point x="132" y="684"/>
      <point x="33" y="684" type="curve"/>
      <point x="22" y="663"/>
      <point x="20" y="634"/>
      <point x="20" y="609" type="curve"/>
      <point x="75" y="603"/>
      <point x="94" y="587"/>
      <point x="94" y="549" type="curve" smooth="yes"/>
      <point x="94" y="162" type="line" smooth="yes"/>
      <point x="94" y="95"/>
      <point x="82" y="78"/>
      <point x="29" y="75" type="curve"/>
      <point x="22" y="56"/>
      <point x="20" y="30"/>
    </contour>
  </outline>
</glyph>
<glyph name="n" format="2">
  <advance width="716"/>
  <unicode hex="006E"/>
  <anchor x="363" y="0" name="bottom"/>
  <anchor x="363" y="229" name="center"/>
  <anchor x="363" y="458" name="top"/>
  <outline>
    <contour>
      <point x="106" y="204" type="line"/>
      <point x="296" y="403" type="line"/>
      <point x="296" y="438"/>
      <point x="284" y="457"/>
      <point x="262" y="467" type="curve"/>
      <point x="230" y="451"/>
      <point x="147" y="434"/>
      <point x="48" y="434" type="curve"/>
      <point x="37" y="413"/>
      <point x="35" y="384"/>
      <point x="35" y="359" type="curve"/>
      <point x="100" y="353"/>
      <point x="106" y="335"/>
      <point x="106" y="270" type="curve" smooth="yes"/>
    </contour>
    <contour>
      <point x="632" y="162" type="curve" smooth="yes"/>
      <point x="632" y="299" type="line"/>
      <point x="632" y="415"/>
      <point x="548" y="462"/>
      <point x="458" y="462" type="curve" smooth="yes"/>
      <point x="402" y="462"/>
      <point x="355" y="441"/>
      <point x="323" y="409" type="curve" smooth="yes"/>
      <point x="305" y="391"/>
      <point x="295" y="368"/>
      <point x="284" y="342" type="curve"/>
      <point x="291" y="365"/>
      <point x="296" y="387"/>
      <point x="296" y="403" type="curve"/>
      <point x="106" y="270" type="line"/>
      <point x="106" y="162" type="line" smooth="yes"/>
      <point x="106" y="95"/>
      <point x="94" y="75"/>
      <point x="42" y="75" type="curve"/>
      <point x="35" y="57"/>
      <point x="32" y="28"/>
      <point x="32" y="-3" type="curve"/>
      <point x="62" y="-1"/>
      <point x="152" y="0"/>
      <point x="201" y="0" type="curve" smooth="yes"/>
      <point x="250" y="0"/>
      <point x="324" y="-1"/>
      <point x="354" y="-3" type="curve"/>
      <point x="354" y="27"/>
      <point x="353" y="50"/>
      <point x="343" y="75" type="curve"/>
      <point x="314" y="75"/>
      <point x="296" y="92"/>
      <point x="296" y="162" type="curve" smooth="yes"/>
      <point x="296" y="190" type="line" smooth="yes"/>
      <point x="296" y="281"/>
      <point x="331" y="345"/>
      <point x="380" y="345" type="curve" smooth="yes"/>
      <point x="423" y="345"/>
      <point x="442" y="318"/>
      <point x="442" y="242" type="curve" smooth="yes"/>
      <point x="442" y="173" type="line" smooth="yes"/>
      <point x="442" y="98"/>
      <point x="422" y="75"/>
      <point x="394" y="75" type="curve"/>
      <point x="385" y="51"/>
      <point x="384" y="25"/>
      <point x="384" y="-3" type="curve"/>
      <point x="414" y="-1"/>
      <point x="500" y="0"/>
      <point x="547" y="0" type="curve" smooth="yes"/>
      <point x="594" y="0"/>
      <point x="656" y="-2"/>
      <point x="686" y="-3" type="curve"/>
      <point x="686" y="30"/>
      <point x="684" y="53"/>
      <point x="675" y="75" type="curve"/>
      <point x="642" y="75"/>
      <point x="632" y="96"/>
    </contour>
  </outline>
</glyph>
<glyph name="o" format="2">
  <advance width="608"/>
  <unicode hex="006F"/>
  <anchor x="304" y="0" name="bottom"/>
  <anchor x="301" y="230" name="center"/>
  <anchor x="387" y="0" name="ogonek"/>
  <anchor x="300" y="458" name="top"/>
  <anchor x="532" y="458" name="topright"/>
  <outline>
    <contour>
      <point x="298" y="-9" type="curve" smooth="yes"/>
      <point x="472" y="-9"/>
      <point x="578" y="80"/>
      <point x="578" y="237" type="curve" smooth="yes"/>
      <point x="578" y="370"/>
      <point x="491" y="467"/>
      <point x="307" y="467" type="curve" smooth="yes"/>
      <point x="153" y="467"/>
      <point x="30" y="389"/>
      <point x="30" y="220" type="curve" smooth="yes"/>
      <point x="30" y="79"/>
      <point x="119" y="-9"/>
    </contour>
    <contour>
      <point x="317" y="68" type="curve" smooth="yes"/>
      <point x="252" y="68"/>
      <point x="220" y="155"/>
      <point x="220" y="258" type="curve" smooth="yes"/>
      <point x="220" y="333"/>
      <point x="243" y="395"/>
      <point x="292" y="395" type="curve" smooth="yes"/>
      <point x="341" y="395"/>
      <point x="388" y="334"/>
      <point x="388" y="204" type="curve" smooth="yes"/>
      <point x="388" y="128"/>
      <point x="362" y="68"/>
    </contour>
  </outline>
</glyph>
<glyph name="q" format="2">
  <advance width="647"/>
  <unicode hex="0071"/>
  <outline>
    <contour>
      <point x="442" y="467"/>
      <point x="325" y="467" type="curve" smooth="yes"/>
      <point x="151" y="467"/>
      <point x="30" y="366"/>
      <point x="30" y="200" type="curve" smooth="yes"/>
      <point x="30" y="74"/>
      <point x="106" y="-2"/>
      <point x="226" y="-2" type="curve" smooth="yes"/>
      <point x="281" y="-2"/>
      <point x="329" y="12"/>
      <point x="359" y="37" type="curve" smooth="yes"/>
      <point x="376" y="51"/>
      <point x="393" y="73"/>
      <point x="407" y="101" type="curve"/>
      <point x="388" y="237" type="line"/>
      <point x="388" y="126"/>
      <point x="342" y="86"/>
      <point x="299" y="86" type="curve" smooth="yes"/>
      <point x="248" y="86"/>
      <point x="221" y="119"/>
      <point x="221" y="219" type="curve" smooth="yes"/>
      <point x="221" y="348"/>
      <point x="269" y="395"/>
      <point x="325" y="395" type="curve" smooth="yes"/>
      <point x="356" y="395"/>
      <point x="378" y="381"/>
      <point x="388" y="360" type="curve"/>
      <point x="600" y="393" type="line"/>
      <point x="540" y="439"/>
    </contour>
    <contour>
      <point x="367" y="-162"/>
      <point x="275" y="-168" type="curve"/>
      <point x="267" y="-192"/>
      <point x="266" y="-216"/>
      <point x="266" y="-245" type="curve"/>
      <point x="302" y="-242"/>
      <point x="387" y="-242"/>
      <point x="462" y="-242" type="curve" smooth="yes"/>
      <point x="525" y="-242"/>
      <point x="604" y="-242"/>
      <point x="647" y="-245" type="curve"/>
      <point x="647" y="-216"/>
      <point x="646" y="-193"/>
      <point x="639" y="-168" type="curve"/>
      <point x="585" y="-161"/>
      <point x="578" y="-145"/>
      <point x="578" y="-35" type="curve" smooth="yes"/>
      <point x="578" y="225" type="line" smooth="yes"/>
      <point x="578" y="317"/>
      <point x="583" y="349"/>
      <point x="600" y="393" type="curve"/>
      <point x="388" y="393" type="line"/>
      <point x="388" y="119" type="line"/>
      <point x="404" y="104" type="line"/>
      <point x="391" y="63"/>
      <point x="388" y="28"/>
      <point x="388" y="-20" type="curve" smooth="yes"/>
      <point x="388" y="-41" type="line" smooth="yes"/>
      <point x="388" y="-140"/>
    </contour>
  </outline>
</glyph>
<glyph name="r" format="2">
  <advance width="526"/>
  <unicode hex="0072"/>
  <anchor x="223" y="0" name="bottom"/>
  <anchor x="201" y="174" name="center"/>
  <anchor x="276" y="458" name="top"/>
  <outline>
    <contour>
      <point x="296" y="197" type="curve" smooth="yes"/>
      <point x="296" y="227" type="line"/>
      <point x="106" y="227" type="line"/>
      <point x="106" y="187" type="line" smooth="yes"/>
      <point x="106" y="95"/>
      <point x="93" y="79"/>
      <point x="39" y="75" type="curve"/>
      <point x="34" y="56"/>
      <point x="32" y="33"/>
      <point x="32" y="-3" type="curve"/>
      <point x="78" y="-1"/>
      <point x="162" y="0"/>
      <point x="234" y="0" type="curve" smooth="yes"/>
      <point x="297" y="0"/>
      <point x="376" y="-1"/>
      <point x="414" y="-3" type="curve"/>
      <point x="414" y="22"/>
      <point x="413" y="53"/>
      <point x="405" y="75" type="curve"/>
      <point x="321" y="81"/>
      <point x="296" y="111"/>
    </contour>
    <contour>
      <point x="296" y="296" type="line"/>
      <point x="276" y="298" type="line"/>
      <point x="289" y="354"/>
      <point x="296" y="381"/>
      <point x="296" y="403" type="curve"/>
      <point x="106" y="312" type="line"/>
      <point x="106" y="204" type="line"/>
      <point x="296" y="204" type="line"/>
    </contour>
    <contour>
      <point x="274" y="295" type="curve"/>
      <point x="296" y="209" type="line"/>
      <point x="296" y="264"/>
      <point x="329" y="318"/>
      <point x="356" y="318" type="curve" smooth="yes"/>
      <point x="383" y="318"/>
      <point x="394" y="298"/>
      <point x="395" y="254" type="curve"/>
      <point x="423" y="254"/>
      <point x="474" y="256"/>
      <point x="501" y="268" type="curve"/>
      <point x="497" y="317"/>
      <point x="503" y="392"/>
      <point x="511" y="438" type="curve"/>
      <point x="487" y="455"/>
      <point x="465" y="462"/>
      <point x="437" y="462" type="curve" smooth="yes"/>
      <point x="383" y="462"/>
      <point x="336" y="427"/>
      <point x="307" y="381" type="curve" smooth="yes"/>
      <point x="297" y="365"/>
      <point x="282" y="319"/>
    </contour>
    <contour>
      <point x="106" y="204" type="line"/>
      <point x="296" y="403" type="line"/>
      <point x="296" y="438"/>
      <point x="284" y="457"/>
      <point x="262" y="467" type="curve"/>
      <point x="230" y="451"/>
      <point x="147" y="434"/>
      <point x="48" y="434" type="curve"/>
      <point x="37" y="413"/>
      <point x="35" y="384"/>
      <point x="35" y="359" type="curve"/>
      <point x="100" y="353"/>
      <point x="106" y="335"/>
      <point x="106" y="270" type="curve" smooth="yes"/>
    </contour>
  </outline>
</glyph>
<glyph name="t" format="2">
  <advance width="399"/>
  <unicode hex="0074"/>
  <anchor x="241" y="0" name="bottom"/>
  <anchor x="175" y="250" name="center"/>
  <anchor x="210" y="583" name="top"/>
  <anchor x="379" y="458" name="topright"/>
  <outline>
    <contour>
      <point x="241" y="-9" type="curve" smooth="yes"/>
      <point x="300" y="-9"/>
      <point x="360" y="5"/>
      <point x="389" y="25" type="curve"/>
      <point x="389" y="52"/>
      <point x="383" y="76"/>
      <point x="374" y="89" type="curve"/>
      <point x="357" y="82"/>
      <point x="333" y="78"/>
      <point x="317" y="78" type="curve" smooth="yes"/>
      <point x="282" y="78"/>
      <point x="270" y="94"/>
      <point x="270" y="186" type="curve" smooth="yes"/>
      <point x="270" y="350" type="line"/>
      <point x="301" y="362"/>
      <point x="336" y="368"/>
      <point x="377" y="368" type="curve"/>
      <point x="383" y="390"/>
      <point x="387" y="413"/>
      <point x="387" y="448" type="curve"/>
      <point x="270" y="448" type="line"/>
      <point x="270" y="550" type="line" smooth="yes"/>
      <point x="270" y="595"/>
      <point x="262" y="610"/>
      <point x="238" y="620" type="curve"/>
      <point x="204" y="593"/>
      <point x="140" y="569"/>
      <point x="80" y="563" type="curve"/>
      <point x="80" y="448" type="line"/>
      <point x="19" y="448" type="line"/>
      <point x="8" y="423"/>
      <point x="5" y="399"/>
      <point x="5" y="369" type="curve"/>
      <point x="36" y="369"/>
      <point x="59" y="366"/>
      <point x="80" y="357" type="curve"/>
      <point x="80" y="174" type="line" smooth="yes"/>
      <point x="80" y="39"/>
      <point x="135" y="-9"/>
    </contour>
  </outline>
</glyph>
<glyph name="w" format="2">
  <advance width="797"/>
  <unicode hex="0077"/>
  <anchor x="405" y="0" name="bottom"/>
  <anchor x="458" y="458" name="top"/>
  <outline>
    <contour>
      <point x="192" y="-9" type="curve"/>
      <point x="219" y="-9"/>
      <point x="285" y="-8"/>
      <point x="307" y="0" type="curve"/>
      <point x="451" y="305" type="line"/>
      <point x="401" y="267" type="line"/>
      <point x="419" y="174"/>
      <point x="447" y="112"/>
      <point x="502" y="-9" type="curve"/>
      <point x="527" y="-9"/>
      <point x="592" y="-8"/>
      <point x="614" y="0" type="curve"/>
      <point x="716" y="319" type="line" smooth="yes"/>
      <point x="729" y="360"/>
      <point x="741" y="377"/>
      <point x="775" y="384" type="curve"/>
      <point x="783" y="403"/>
      <point x="787" y="439"/>
      <point x="787" y="461" type="curve"/>
      <point x="758" y="459"/>
      <point x="728" y="458"/>
      <point x="687" y="458" type="curve" smooth="yes"/>
      <point x="646" y="458"/>
      <point x="617" y="459"/>
      <point x="591" y="461" type="curve"/>
      <point x="591" y="433"/>
      <point x="594" y="408"/>
      <point x="602" y="384" type="curve"/>
      <point x="637" y="376"/>
      <point x="650" y="362"/>
      <point x="636" y="312" type="curve" smooth="yes"/>
      <point x="580" y="107" type="line"/>
      <point x="632" y="110" type="line"/>
      <point x="595" y="225"/>
      <point x="549" y="347"/>
      <point x="499" y="464" type="curve"/>
      <point x="472" y="464"/>
      <point x="439" y="463"/>
      <point x="417" y="455" type="curve"/>
      <point x="276" y="112" type="line"/>
      <point x="326" y="112" type="line"/>
      <point x="318" y="200"/>
      <point x="305" y="260"/>
      <point x="291" y="312" type="curve" smooth="yes"/>
      <point x="275" y="374"/>
      <point x="275" y="381"/>
      <point x="313" y="384" type="curve"/>
      <point x="319" y="403"/>
      <point x="325" y="431"/>
      <point x="325" y="461" type="curve"/>
      <point x="275" y="459"/>
      <point x="210" y="458"/>
      <point x="156" y="458" type="curve" smooth="yes"/>
      <point x="109" y="458"/>
      <point x="61" y="459"/>
      <point x="10" y="461" type="curve"/>
      <point x="10" y="431"/>
      <point x="16" y="401"/>
      <point x="22" y="383" type="curve"/>
      <point x="50" y="381"/>
      <point x="67" y="364"/>
      <point x="82" y="325" type="curve" smooth="yes"/>
      <point x="94" y="292"/>
      <point x="156" y="107"/>
    </contour>
  </outline>
</glyph>
<glyph name="braceleft" format="2">
  <advance width="423"/>
  <unicode hex="007B"/>
  <outline>
    <contour>
      <point x="358" y="-283" type="curve"/>
      <point x="377" y="-258"/>
      <point x="380" y="-228"/>
      <point x="372" y="-203" type="curve"/>
      <point x="302" y="-183"/>
      <point x="285" y="-136"/>
      <point x="286" y="-80" type="curve" smooth="yes"/>
      <point x="287" y="-21"/>
      <point x="307" y="49"/>
      <point x="306" y="109" type="curve" smooth="yes"/>
      <point x="305" y="175"/>
      <point x="277" y="230"/>
      <point x="166" y="246" type="curve"/>
      <point x="278" y="261"/>
      <point x="305" y="313"/>
      <point x="305" y="378" type="curve" smooth="yes"/>
      <point x="305" y="437"/>
      <point x="283" y="505"/>
      <point x="282" y="564" type="curve" smooth="yes"/>
      <point x="281" y="617"/>
      <point x="298" y="663"/>
      <point x="366" y="685" type="curve"/>
      <point x="366" y="709"/>
      <point x="362" y="740"/>
      <point x="345" y="754" type="curve"/>
      <point x="161" y="716"/>
      <point x="132" y="641"/>
      <point x="130" y="555" type="curve" smooth="yes"/>
      <point x="129" y="504"/>
      <point x="139" y="452"/>
      <point x="138" y="405" type="curve" smooth="yes"/>
      <point x="136" y="348"/>
      <point x="117" y="300"/>
      <point x="40" y="275" type="curve"/>
      <point x="35" y="263"/>
      <point x="35" y="225"/>
      <point x="35" y="213" type="curve"/>
      <point x="116" y="188"/>
      <point x="134" y="136"/>
      <point x="136" y="73" type="curve" smooth="yes"/>
      <point x="137" y="28"/>
      <point x="130" y="-21"/>
      <point x="131" y="-69" type="curve" smooth="yes"/>
      <point x="133" y="-160"/>
      <point x="171" y="-255"/>
    </contour>
  </outline>
</glyph>
<glyph name="bar" format="2">
  <advance width="209"/>
  <unicode hex="007C"/>
  <outline>
    <contour>
      <point x="60" y="-249" type="line"/>
      <point x="89" y="-249"/>
      <point x="129" y="-246"/>
      <point x="149" y="-238" type="curve"/>
      <point x="149" y="-124"/>
      <point x="146" y="60"/>
      <point x="146" y="234" type="curve" smooth="yes"/>
      <point x="146" y="416"/>
      <point x="149" y="597"/>
      <point x="149" y="716" type="curve"/>
      <point x="117" y="716"/>
      <point x="74" y="710"/>
      <point x="60" y="701" type="curve"/>
    </contour>
  </outline>
</glyph>
<glyph name="exclamdown" format="2">
  <advance width="411"/>
  <unicode hex="00A1"/>
  <outline>
    <contour>
      <point x="113" y="-176" type="curve" smooth="yes"/>
      <point x="105" y="-230"/>
      <point x="113" y="-251"/>
      <point x="141" y="-258" type="curve"/>
      <point x="185" y="-240"/>
      <point x="256" y="-220"/>
      <point x="310" y="-216" type="curve"/>
      <point x="286" y="-76"/>
      <point x="268" y="69"/>
      <point x="255" y="214" type="curve"/>
      <point x="220" y="214"/>
      <point x="186" y="212"/>
      <point x="152" y="201" type="curve"/>
      <point x="141" y="71"/>
      <point x="125" y="-87"/>
    </contour>
    <contour>
      <point x="101" y="361" type="curve" smooth="yes"/>
      <point x="101" y="313"/>
      <point x="139" y="267"/>
      <point x="199" y="267" type="curve" smooth="yes"/>
      <point x="261" y="267"/>
      <point x="308" y="304"/>
      <point x="308" y="366" type="curve" smooth="yes"/>
      <point x="308" y="428"/>
      <point x="269" y="467"/>
      <point x="205" y="467" type="curve" smooth="yes"/>
      <point x="138" y="467"/>
      <point x="101" y="418"/>
    </contour>
  </outline>
</glyph>
<glyph name="currency" format="2">
  <advance width="580"/>
  <unicode hex="00A4"/>
  <outline>
    <contour>
      <point x="520" y="78" type="curve"/>
      <point x="399" y="195" type="line"/>
      <point x="350" y="150" type="line"/>
      <point x="456" y="46" type="line"/>
      <point x="487" y="50"/>
      <point x="507" y="61"/>
    </contour>
    <contour>
      <point x="183" y="80"/>
      <point x="292" y="80" type="curve" smooth="yes"/>
      <point x="366" y="80"/>
      <point x="470" y="137"/>
      <point x="470" y="262" type="curve" smooth="yes"/>
      <point x="470" y="363"/>
      <point x="389" y="436"/>
      <point x="292" y="436" type="curve" smooth="yes"/>
      <point x="196" y="436"/>
      <point x="109" y="367"/>
      <point x="109" y="262" type="curve" smooth="yes"/>
      <point x="109" y="167"/>
    </contour>
    <contour>
      <point x="364" y="379" type="line"/>
      <point x="410" y="334" type="line"/>
      <point x="507" y="430" type="line"/>
      <point x="491" y="450"/>
      <point x="475" y="458"/>
      <point x="447" y="464" type="curve"/>
    </contour>
    <contour>
      <point x="60" y="429" type="curve"/>
      <point x="161" y="328" type="line"/>
      <point x="208" y="376" type="line"/>
      <point x="122" y="460" type="line"/>
      <point x="95" y="457"/>
      <point x="77" y="448"/>
    </contour>
    <contour>
      <point x="228" y="374"/>
      <point x="284" y="374" type="curve" smooth="yes"/>
      <point x="345" y="374"/>
      <point x="390" y="313"/>
      <point x="390" y="255" type="curve" smooth="yes"/>
      <point x="390" y="189"/>
      <point x="352" y="145"/>
      <point x="296" y="145" type="curve" smooth="yes"/>
      <point x="236" y="145"/>
      <point x="190" y="209"/>
      <point x="190" y="267" type="curve" smooth="yes"/>
      <point x="190" y="331"/>
    </contour>
    <contour>
      <point x="229" y="139" type="line"/>
      <point x="176" y="182" type="line"/>
      <point x="70" y="71" type="line"/>
      <point x="84" y="56"/>
      <point x="106" y="44"/>
      <point x="135" y="43" type="curve"/>
    </contour>
  </outline>
</glyph>
<glyph name="section" format="2">
  <advance width="609"/>
  <unicode hex="00A7"/>
  <outline>
    <contour>
      <point x="198" y="224"/>
      <point x="325" y="153" type="curve" smooth="yes"/>
      <point x="455" y="80"/>
      <point x="495" y="18"/>
      <point x="495" y="-83" type="curve" smooth="yes"/>
      <point x="495" y="-176"/>
      <point x="412" y="-242"/>
      <point x="290" y="-242" type="curve" smooth="yes"/>
      <point x="214" y="-242"/>
      <point x="164" y="-236"/>
      <point x="125" y="-217" type="curve"/>
      <point x="129" y="-179"/>
      <point x="129" y="-121"/>
      <point x="125" y="-83" type="curve"/>
      <point x="146" y="-76"/>
      <point x="177" y="-71"/>
      <point x="206" y="-71" type="curve"/>
      <point x="218" y="-140"/>
      <point x="257" y="-165"/>
      <point x="291" y="-165" type="curve" smooth="yes"/>
      <point x="334" y="-165"/>
      <point x="358" y="-150"/>
      <point x="358" y="-121" type="curve" smooth="yes"/>
      <point x="358" y="-89"/>
      <point x="343" y="-64"/>
      <point x="198" y="5" type="curve" smooth="yes"/>
      <point x="76" y="63"/>
      <point x="30" y="131"/>
      <point x="30" y="220" type="curve" smooth="yes"/>
      <point x="30" y="349"/>
      <point x="139" y="388"/>
      <point x="231" y="410" type="curve"/>
      <point x="312" y="350" type="line"/>
      <point x="204" y="343"/>
      <point x="188" y="303"/>
      <point x="188" y="281" type="curve" smooth="yes"/>
      <point x="188" y="243"/>
    </contour>
    <contour>
      <point x="355" y="62" type="curve"/>
      <point x="274" y="122" type="line"/>
      <point x="382" y="129"/>
      <point x="398" y="169"/>
      <point x="398" y="191" type="curve" smooth="yes"/>
      <point x="398" y="229"/>
      <point x="388" y="248"/>
      <point x="261" y="319" type="curve" smooth="yes"/>
      <point x="131" y="392"/>
      <point x="91" y="454"/>
      <point x="91" y="555" type="curve" smooth="yes"/>
      <point x="91" y="648"/>
      <point x="174" y="714"/>
      <point x="297" y="714" type="curve" smooth="yes"/>
      <point x="372" y="714"/>
      <point x="422" y="708"/>
      <point x="461" y="689" type="curve"/>
      <point x="457" y="651"/>
      <point x="457" y="593"/>
      <point x="461" y="555" type="curve"/>
      <point x="440" y="548"/>
      <point x="409" y="543"/>
      <point x="380" y="543" type="curve"/>
      <point x="368" y="612"/>
      <point x="329" y="637"/>
      <point x="295" y="637" type="curve" smooth="yes"/>
      <point x="252" y="637"/>
      <point x="228" y="622"/>
      <point x="228" y="593" type="curve" smooth="yes"/>
      <point x="228" y="561"/>
      <point x="243" y="537"/>
      <point x="389" y="467" type="curve" smooth="yes"/>
      <point x="510" y="409"/>
      <point x="556" y="341"/>
      <point x="556" y="252" type="curve" smooth="yes"/>
      <point x="556" y="123"/>
      <point x="447" y="84"/>
    </contour>
  </outline>
</glyph>
<glyph name="ordfeminine" format="2">
  <advance width="440"/>
  <unicode hex="00AA"/>
  <outline>
    <contour>
      <point x="261" y="359" type="curve"/>
      <point x="305" y="376"/>
      <point x="350" y="385"/>
      <point x="395" y="386" type="curve"/>
      <point x="405" y="402"/>
      <point x="407" y="422"/>
      <point x="403" y="443" type="curve"/>
      <point x="367" y="445"/>
      <point x="361" y="453"/>
      <point x="361" y="507" type="curve" smooth="yes"/>
      <point x="361" y="562" type="line" smooth="yes"/>
      <point x="361" y="624"/>
      <point x="353" y="653"/>
      <point x="332" y="677" type="curve" smooth="yes"/>
      <point x="307" y="705"/>
      <point x="275" y="718"/>
      <point x="196" y="718" type="curve" smooth="yes"/>
      <point x="140" y="718"/>
      <point x="90" y="699"/>
      <point x="57" y="678" type="curve"/>
      <point x="62" y="653"/>
      <point x="64" y="624"/>
      <point x="62" y="595" type="curve"/>
      <point x="86" y="587"/>
      <point x="113" y="586"/>
      <point x="145" y="586" type="curve"/>
      <point x="151" y="644"/>
      <point x="161" y="667"/>
      <point x="181" y="667" type="curve" smooth="yes"/>
      <point x="196" y="667"/>
      <point x="205" y="662"/>
      <point x="213" y="650" type="curve" smooth="yes"/>
      <point x="221" y="638"/>
      <point x="223" y="623"/>
      <point x="223" y="586" type="curve"/>
      <point x="118" y="568"/>
      <point x="30" y="540"/>
      <point x="30" y="451" type="curve" smooth="yes"/>
      <point x="30" y="391"/>
      <point x="64" y="360"/>
      <point x="133" y="360" type="curve" smooth="yes"/>
      <point x="163" y="360"/>
      <point x="188" y="370"/>
      <point x="206" y="386" type="curve" smooth="yes"/>
      <point x="218" y="396"/>
      <point x="233" y="420"/>
      <point x="237" y="436" type="curve"/>
      <point x="232" y="424"/>
      <point x="229" y="410"/>
      <point x="229" y="397" type="curve" smooth="yes"/>
      <point x="229" y="376"/>
      <point x="240" y="365"/>
    </contour>
    <contour>
      <point x="180" y="440" type="curve" smooth="yes"/>
      <point x="169" y="440"/>
      <point x="162" y="448"/>
      <point x="162" y="474" type="curve" smooth="yes"/>
      <point x="162" y="517"/>
      <point x="178" y="529"/>
      <point x="223" y="538" type="curve"/>
      <point x="223" y="524" type="line"/>
      <point x="223" y="468"/>
      <point x="200" y="440"/>
    </contour>
  </outline>
</glyph>
<glyph name="guillemetleft" format="2">
  <advance width="504"/>
  <unicode hex="00AB"/>
  <outline>
    <contour>
      <point x="242" y="416"/>
      <point x="209" y="416" type="curve"/>
      <point x="167" y="373"/>
      <point x="124" y="333"/>
      <point x="77" y="295" type="curve"/>
      <point x="65" y="269"/>
      <point x="60" y="246"/>
      <point x="60" y="213" type="curve"/>
      <point x="114" y="166"/>
      <point x="153" y="120"/>
      <point x="212" y="55" type="curve"/>
      <point x="238" y="68"/>
      <point x="266" y="91"/>
      <point x="281" y="113" type="curve"/>
      <point x="249" y="157"/>
      <point x="220" y="208"/>
      <point x="194" y="268" type="curve"/>
      <point x="221" y="313"/>
      <point x="250" y="348"/>
      <point x="288" y="392" type="curve"/>
      <point x="268" y="407"/>
    </contour>
    <contour>
      <point x="437" y="403"/>
      <point x="404" y="407" type="curve"/>
      <point x="368" y="364"/>
      <point x="338" y="334"/>
      <point x="291" y="295" type="curve"/>
      <point x="283" y="268"/>
      <point x="278" y="242"/>
      <point x="278" y="205" type="curve"/>
      <point x="330" y="155"/>
      <point x="363" y="120"/>
      <point x="409" y="62" type="curve"/>
      <point x="445" y="80"/>
      <point x="479" y="112"/>
      <point x="487" y="131" type="curve"/>
      <point x="460" y="163"/>
      <point x="433" y="206"/>
      <point x="409" y="250" type="curve"/>
      <point x="432" y="292"/>
      <point x="457" y="331"/>
      <point x="487" y="378" type="curve"/>
      <point x="469" y="393"/>
    </contour>
  </outline>
</glyph>
<glyph name="logicalnot" format="2">
  <advance width="550"/>
  <unicode hex="00AC"/>
  <outline>
    <contour>
      <point x="502" y="367" type="line"/>
      <point x="59" y="367" type="line"/>
      <point x="52" y="340"/>
      <point x="48" y="304"/>
      <point x="48" y="279" type="curve"/>
      <point x="206" y="283"/>
      <point x="339" y="283"/>
      <point x="491" y="283" type="curve"/>
    </contour>
    <contour>
      <point x="427" y="347" type="line"/>
      <point x="427" y="115" type="line"/>
      <point x="461" y="115"/>
      <point x="477" y="122"/>
      <point x="502" y="135" type="curve"/>
      <point x="502" y="367" type="line"/>
    </contour>
  </outline>
</glyph>
<glyph name="plusminus" format="2">
  <advance width="550"/>
  <unicode hex="00B1"/>
  <outline>
    <contour>
      <point x="57" y="39" type="curve"/>
      <point x="142" y="42"/>
      <point x="203" y="42"/>
      <point x="284" y="42" type="curve" smooth="yes"/>
      <point x="367" y="42"/>
      <point x="380" y="42"/>
      <point x="483" y="41" type="curve"/>
      <point x="492" y="63"/>
      <point x="493" y="88"/>
      <point x="493" y="120" type="curve"/>
      <point x="66" y="120" type="line"/>
      <point x="60" y="105"/>
      <point x="57" y="63"/>
    </contour>
    <contour>
      <point x="86" y="287" type="curve"/>
      <point x="177" y="289"/>
      <point x="238" y="289"/>
      <point x="281" y="289" type="curve" smooth="yes"/>
      <point x="368" y="289"/>
      <point x="387" y="290"/>
      <point x="454" y="289" type="curve"/>
      <point x="463" y="311"/>
      <point x="464" y="338"/>
      <point x="464" y="371" type="curve"/>
      <point x="95" y="371" type="line"/>
      <point x="90" y="356"/>
      <point x="86" y="313"/>
    </contour>
    <contour>
      <point x="230" y="153" type="curve"/>
      <point x="256" y="153"/>
      <point x="305" y="157"/>
      <point x="320" y="163" type="curve"/>
      <point x="320" y="513" type="line"/>
      <point x="285" y="513"/>
      <point x="256" y="512"/>
      <point x="231" y="503" type="curve"/>
      <point x="233" y="443"/>
      <point x="233" y="402"/>
      <point x="233" y="353" type="curve" smooth="yes"/>
      <point x="233" y="245"/>
      <point x="231" y="233"/>
    </contour>
  </outline>
</glyph>
<glyph name="twosuperior" format="2">
  <advance width="387"/>
  <unicode hex="00B2"/>
  <outline>
    <contour>
      <point x="49" y="408" type="curve"/>
      <point x="88" y="409"/>
      <point x="136" y="410"/>
      <point x="184" y="410" type="curve" smooth="yes"/>
      <point x="252" y="410"/>
      <point x="304" y="408"/>
      <point x="320" y="408" type="curve" smooth="yes"/>
      <point x="349" y="408"/>
      <point x="358" y="414"/>
      <point x="365" y="428" type="curve"/>
      <point x="358" y="464"/>
      <point x="359" y="513"/>
      <point x="359" y="548" type="curve"/>
      <point x="337" y="555"/>
      <point x="313" y="556"/>
      <point x="286" y="556" type="curve"/>
      <point x="285" y="525"/>
      <point x="280" y="518"/>
      <point x="233" y="518" type="curve" smooth="yes"/>
      <point x="203" y="518" type="line"/>
      <point x="231" y="541"/>
      <point x="247" y="552"/>
      <point x="286" y="577" type="curve" smooth="yes"/>
      <point x="314" y="595"/>
      <point x="343" y="628"/>
      <point x="343" y="673" type="curve" smooth="yes"/>
      <point x="343" y="744"/>
      <point x="272" y="767"/>
      <point x="183" y="767" type="curve" smooth="yes"/>
      <point x="141" y="767"/>
      <point x="89" y="762"/>
      <point x="44" y="745" type="curve"/>
      <point x="49" y="710"/>
      <point x="49" y="659"/>
      <point x="45" y="625" type="curve"/>
      <point x="65" y="618"/>
      <point x="97" y="615"/>
      <point x="124" y="615" type="curve"/>
      <point x="131" y="685"/>
      <point x="144" y="702"/>
      <point x="163" y="702" type="curve" smooth="yes"/>
      <point x="185" y="702"/>
      <point x="195" y="681"/>
      <point x="195" y="655" type="curve" smooth="yes"/>
      <point x="195" y="616"/>
      <point x="172" y="587"/>
      <point x="108" y="529" type="curve" smooth="yes"/>
      <point x="85" y="508"/>
      <point x="55" y="482"/>
      <point x="35" y="460" type="curve"/>
      <point x="35" y="438"/>
      <point x="38" y="425"/>
    </contour>
  </outline>
</glyph>
<glyph name="threesuperior" format="2">
  <advance width="407"/>
  <unicode hex="00B3"/>
  <outline>
    <contour>
      <point x="142" y="288" type="curve" smooth="yes"/>
      <point x="294" y="288"/>
      <point x="364" y="361"/>
      <point x="364" y="443" type="curve" smooth="yes"/>
      <point x="364" y="531"/>
      <point x="309" y="567"/>
      <point x="231" y="567" type="curve"/>
      <point x="270" y="628"/>
      <point x="303" y="674"/>
      <point x="334" y="711" type="curve"/>
      <point x="334" y="732"/>
      <point x="330" y="745"/>
      <point x="322" y="759" type="curve"/>
      <point x="304" y="758"/>
      <point x="262" y="758"/>
      <point x="204" y="758" type="curve" smooth="yes"/>
      <point x="144" y="758"/>
      <point x="84" y="758"/>
      <point x="61" y="759" type="curve"/>
      <point x="61" y="726"/>
      <point x="58" y="663"/>
      <point x="48" y="620" type="curve"/>
      <point x="57" y="614"/>
      <point x="83" y="609"/>
      <point x="105" y="609" type="curve"/>
      <point x="117" y="638"/>
      <point x="131" y="648"/>
      <point x="158" y="648" type="curve" smooth="yes"/>
      <point x="198" y="648" type="line"/>
      <point x="178" y="615"/>
      <point x="155" y="586"/>
      <point x="125" y="551" type="curve"/>
      <point x="129" y="532"/>
      <point x="144" y="507"/>
      <point x="156" y="498" type="curve"/>
      <point x="163" y="500"/>
      <point x="168" y="501"/>
      <point x="178" y="501" type="curve" smooth="yes"/>
      <point x="210" y="501"/>
      <point x="231" y="472"/>
      <point x="231" y="438" type="curve" smooth="yes"/>
      <point x="231" y="384"/>
      <point x="194" y="363"/>
      <point x="147" y="363" type="curve" smooth="yes"/>
      <point x="111" y="363"/>
      <point x="77" y="370"/>
      <point x="61" y="378" type="curve"/>
      <point x="48" y="363"/>
      <point x="36" y="336"/>
      <point x="33" y="315" type="curve"/>
      <point x="56" y="301"/>
      <point x="94" y="288"/>
    </contour>
  </outline>
</glyph>
<glyph name="paragraph" format="2">
  <advance width="630"/>
  <unicode hex="00B6"/>
  <outline>
    <contour>
      <point x="448" y="-248" type="line"/>
      <point x="476" y="-248"/>
      <point x="503" y="-246"/>
      <point x="528" y="-231" type="curve"/>
      <point x="528" y="491" type="line" smooth="yes"/>
      <point x="528" y="576"/>
      <point x="536" y="599"/>
      <point x="595" y="602" type="curve"/>
      <point x="601" y="626"/>
      <point x="603" y="656"/>
      <point x="603" y="681" type="curve"/>
      <point x="572" y="677"/>
      <point x="524" y="677"/>
      <point x="490" y="677" type="curve" smooth="yes"/>
      <point x="447" y="677"/>
      <point x="396" y="682"/>
      <point x="341" y="682" type="curve" smooth="yes"/>
      <point x="118" y="682"/>
      <point x="37" y="599"/>
      <point x="37" y="481" type="curve" smooth="yes"/>
      <point x="37" y="334"/>
      <point x="124" y="287"/>
      <point x="298" y="287" type="curve" smooth="yes"/>
      <point x="319" y="287"/>
      <point x="332" y="288"/>
      <point x="357" y="293" type="curve"/>
      <point x="352" y="362" type="line"/>
      <point x="337" y="362" type="line" smooth="yes"/>
      <point x="289" y="362"/>
      <point x="233" y="399"/>
      <point x="233" y="491" type="curve" smooth="yes"/>
      <point x="233" y="575"/>
      <point x="268" y="607"/>
      <point x="366" y="607" type="curve" smooth="yes"/>
      <point x="406" y="607"/>
      <point x="436" y="604"/>
      <point x="467" y="594" type="curve"/>
      <point x="448" y="643" type="line"/>
    </contour>
    <contour>
      <point x="327" y="-248" type="line"/>
      <point x="352" y="-248"/>
      <point x="383" y="-246"/>
      <point x="407" y="-231" type="curve"/>
      <point x="406" y="656" type="line"/>
      <point x="327" y="649" type="line"/>
    </contour>
  </outline>
</glyph>
<glyph name="onesuperior" format="2">
  <advance width="353"/>
  <unicode hex="00B9"/>
  <outline>
    <contour>
      <point x="50" y="407" type="curve"/>
      <point x="82" y="409"/>
      <point x="148" y="410"/>
      <point x="179" y="410" type="curve" smooth="yes"/>
      <point x="209" y="410"/>
      <point x="272" y="409"/>
      <point x="303" y="407" type="curve"/>
      <point x="303" y="437"/>
      <point x="301" y="460"/>
      <point x="296" y="481" type="curve"/>
      <point x="255" y="485"/>
      <point x="247" y="499"/>
      <point x="247" y="550" type="curve" smooth="yes"/>
      <point x="247" y="610" type="line" smooth="yes"/>
      <point x="247" y="661"/>
      <point x="257" y="682"/>
      <point x="297" y="686" type="curve"/>
      <point x="302" y="711"/>
      <point x="303" y="736"/>
      <point x="303" y="761" type="curve"/>
      <point x="277" y="759"/>
      <point x="204" y="758"/>
      <point x="179" y="758" type="curve" smooth="yes"/>
      <point x="152" y="758"/>
      <point x="72" y="759"/>
      <point x="50" y="761" type="curve"/>
      <point x="50" y="735"/>
      <point x="51" y="710"/>
      <point x="56" y="686" type="curve"/>
      <point x="96" y="682"/>
      <point x="106" y="661"/>
      <point x="106" y="610" type="curve" smooth="yes"/>
      <point x="106" y="550" type="line" smooth="yes"/>
      <point x="106" y="499"/>
      <point x="98" y="485"/>
      <point x="57" y="481" type="curve"/>
      <point x="52" y="460"/>
      <point x="50" y="436"/>
    </contour>
  </outline>
</glyph>
<glyph name="guillemetright" format="2">
  <advance width="506"/>
  <unicode hex="00BB"/>
  <outline>
    <contour>
      <point x="66" y="77"/>
      <point x="97" y="62" type="curve"/>
      <point x="140" y="113"/>
      <point x="176" y="154"/>
      <point x="226" y="207" type="curve"/>
      <point x="226" y="237"/>
      <point x="225" y="265"/>
      <point x="212" y="296" type="curve"/>
      <point x="161" y="342"/>
      <point x="145" y="358"/>
      <point x="102" y="407" type="curve"/>
      <point x="68" y="402"/>
      <point x="32" y="387"/>
      <point x="17" y="375" type="curve"/>
      <point x="50" y="321"/>
      <point x="71" y="284"/>
      <point x="92" y="237" type="curve"/>
      <point x="72" y="195"/>
      <point x="54" y="167"/>
      <point x="23" y="127" type="curve"/>
      <point x="36" y="104"/>
    </contour>
    <contour>
      <point x="263" y="66"/>
      <point x="289" y="53" type="curve"/>
      <point x="335" y="105"/>
      <point x="390" y="161"/>
      <point x="446" y="215" type="curve"/>
      <point x="446" y="245"/>
      <point x="442" y="270"/>
      <point x="429" y="295" type="curve"/>
      <point x="372" y="343"/>
      <point x="350" y="363"/>
      <point x="300" y="412" type="curve"/>
      <point x="270" y="412"/>
      <point x="238" y="401"/>
      <point x="221" y="388" type="curve"/>
      <point x="258" y="332"/>
      <point x="282" y="288"/>
      <point x="310" y="234" type="curve"/>
      <point x="286" y="194"/>
      <point x="261" y="157"/>
      <point x="226" y="113" type="curve"/>
      <point x="239" y="87"/>
    </contour>
  </outline>
</glyph>
<glyph name="questiondown" format="2">
  <advance width="537"/>
  <unicode hex="00BF"/>
  <outline>
    <contour>
      <point x="222" y="-259" type="curve" smooth="yes"/>
      <point x="313" y="-259"/>
      <point x="382" y="-236"/>
      <point x="429" y="-214" type="curve"/>
      <point x="424" y="-172"/>
      <point x="425" y="-119"/>
      <point x="429" y="-71" type="curve"/>
      <point x="400" y="-55"/>
      <point x="371" y="-48"/>
      <point x="327" y="-48" type="curve"/>
      <point x="315" y="-157"/>
      <point x="296" y="-182"/>
      <point x="270" y="-182" type="curve" smooth="yes"/>
      <point x="246" y="-182"/>
      <point x="225" y="-164"/>
      <point x="225" y="-116" type="curve" smooth="yes"/>
      <point x="225" y="-20"/>
      <point x="333" y="-17"/>
      <point x="333" y="107" type="curve" smooth="yes"/>
      <point x="333" y="160"/>
      <point x="306" y="215"/>
      <point x="273" y="235" type="curve"/>
      <point x="244" y="235"/>
      <point x="205" y="228"/>
      <point x="183" y="216" type="curve"/>
      <point x="193" y="186"/>
      <point x="198" y="163"/>
      <point x="198" y="133" type="curve" smooth="yes"/>
      <point x="198" y="10"/>
      <point x="35" y="7"/>
      <point x="35" y="-137" type="curve" smooth="yes"/>
      <point x="35" y="-212"/>
      <point x="94" y="-259"/>
    </contour>
    <contour>
      <point x="234" y="466" type="curve" smooth="yes"/>
      <point x="167" y="466"/>
      <point x="130" y="417"/>
      <point x="130" y="360" type="curve" smooth="yes"/>
      <point x="130" y="312"/>
      <point x="168" y="266"/>
      <point x="228" y="266" type="curve" smooth="yes"/>
      <point x="290" y="266"/>
      <point x="337" y="303"/>
      <point x="337" y="365" type="curve" smooth="yes"/>
      <point x="337" y="427"/>
      <point x="298" y="466"/>
    </contour>
  </outline>
</glyph>
<glyph name="multiply" format="2">
  <advance width="550"/>
  <unicode hex="00D7"/>
  <outline>
    <contour>
      <point x="434" y="18" type="curve"/>
      <point x="463" y="18"/>
      <point x="498" y="35"/>
      <point x="515" y="56" type="curve"/>
      <point x="114" y="493" type="line"/>
      <point x="88" y="493"/>
      <point x="55" y="477"/>
      <point x="33" y="456" type="curve"/>
      <point x="144" y="339"/>
      <point x="338" y="129"/>
    </contour>
    <contour>
      <point x="119" y="18" type="curve"/>
      <point x="217" y="136"/>
      <point x="397" y="341"/>
      <point x="518" y="468" type="curve"/>
      <point x="507" y="482"/>
      <point x="459" y="494"/>
      <point x="426" y="494" type="curve"/>
      <point x="31" y="48" type="line"/>
      <point x="45" y="29"/>
      <point x="87" y="17"/>
    </contour>
  </outline>
</glyph>
<glyph name="Thorn" format="2">
  <advance width="685"/>
  <unicode hex="00DE"/>
  <outline>
    <contour>
      <point x="30" y="-3" type="curve"/>
      <point x="79" y="-1"/>
      <point x="156" y="0"/>
      <point x="229" y="0" type="curve" smooth="yes"/>
      <point x="296" y="0"/>
      <point x="384" y="-1"/>
      <point x="422" y="-3" type="curve"/>
      <point x="422" y="22"/>
      <point x="421" y="53"/>
      <point x="413" y="75" type="curve"/>
      <point x="329" y="81"/>
      <point x="304" y="111"/>
      <point x="304" y="197" type="curve" smooth="yes"/>
      <point x="304" y="491" type="line" smooth="yes"/>
      <point x="304" y="581"/>
      <point x="314" y="595"/>
      <point x="369" y="601" type="curve"/>
      <point x="378" y="627"/>
      <point x="378" y="652"/>
      <point x="378" y="679" type="curve"/>
      <point x="338" y="677"/>
      <point x="257" y="676"/>
      <point x="209" y="676" type="curve" smooth="yes"/>
      <point x="161" y="676"/>
      <point x="63" y="677"/>
      <point x="30" y="679" type="curve"/>
      <point x="30" y="653"/>
      <point x="34" y="621"/>
      <point x="39" y="601" type="curve"/>
      <point x="95" y="593"/>
      <point x="104" y="581"/>
      <point x="104" y="491" type="curve" smooth="yes"/>
      <point x="104" y="187" type="line" smooth="yes"/>
      <point x="104" y="95"/>
      <point x="94" y="79"/>
      <point x="40" y="75" type="curve"/>
      <point x="35" y="56"/>
      <point x="30" y="21"/>
    </contour>
    <contour>
      <point x="413" y="149" type="curve" smooth="yes"/>
      <point x="558" y="149"/>
      <point x="650" y="234"/>
      <point x="650" y="359" type="curve" smooth="yes"/>
      <point x="650" y="459"/>
      <point x="592" y="545"/>
      <point x="427" y="545" type="curve" smooth="yes"/>
      <point x="359" y="545"/>
      <point x="321" y="544"/>
      <point x="276" y="544" type="curve"/>
      <point x="302" y="457" type="line"/>
      <point x="321" y="466"/>
      <point x="341" y="466"/>
      <point x="354" y="466" type="curve" smooth="yes"/>
      <point x="424" y="466"/>
      <point x="460" y="414"/>
      <point x="460" y="346" type="curve" smooth="yes"/>
      <point x="460" y="262"/>
      <point x="417" y="229"/>
      <point x="375" y="229" type="curve" smooth="yes"/>
      <point x="369" y="229"/>
      <point x="361" y="228"/>
      <point x="353" y="229" type="curve"/>
      <point x="343" y="210"/>
      <point x="339" y="187"/>
      <point x="344" y="157" type="curve"/>
      <point x="362" y="151"/>
      <point x="383" y="149"/>
    </contour>
  </outline>
</glyph>
<glyph name="germandbls" format="2">
  <advance width="764"/>
  <unicode hex="00DF"/>
  <outline>
    <contour>
      <point x="104" y="356" type="curve"/>
      <point x="104" y="178" type="line" smooth="yes"/>
      <point x="104" y="95"/>
      <point x="92" y="78"/>
      <point x="39" y="75" type="curve"/>
      <point x="32" y="53"/>
      <point x="30" y="26"/>
      <point x="30" y="-3" type="curve"/>
      <point x="67" y="-1"/>
      <point x="118" y="0"/>
      <point x="184" y="0" type="curve" smooth="yes"/>
      <point x="205" y="0"/>
      <point x="255" y="0"/>
      <point x="294" y="-1" type="curve"/>
      <point x="294" y="519" type="line" smooth="yes"/>
      <point x="294" y="629"/>
      <point x="315" y="644"/>
      <point x="362" y="644" type="curve" smooth="yes"/>
      <point x="426" y="644"/>
      <point x="462" y="604"/>
      <point x="462" y="558" type="curve" smooth="yes"/>
      <point x="462" y="443"/>
      <point x="328" y="477"/>
      <point x="328" y="359" type="curve" smooth="yes"/>
      <point x="328" y="216"/>
      <point x="537" y="214"/>
      <point x="537" y="113" type="curve" smooth="yes"/>
      <point x="537" y="87"/>
      <point x="516" y="71"/>
      <point x="494" y="71" type="curve" smooth="yes"/>
      <point x="450" y="71"/>
      <point x="435" y="104"/>
      <point x="427" y="178" type="curve"/>
      <point x="403" y="178"/>
      <point x="355" y="174"/>
      <point x="331" y="165" type="curve"/>
      <point x="333" y="131"/>
      <point x="331" y="47"/>
      <point x="326" y="17" type="curve"/>
      <point x="358" y="-1"/>
      <point x="417" y="-9"/>
      <point x="481" y="-9" type="curve" smooth="yes"/>
      <point x="605" y="-9"/>
      <point x="734" y="53"/>
      <point x="734" y="188" type="curve" smooth="yes"/>
      <point x="734" y="366"/>
      <point x="508" y="366"/>
      <point x="508" y="435" type="curve" smooth="yes"/>
      <point x="508" y="477"/>
      <point x="630" y="487"/>
      <point x="630" y="586" type="curve" smooth="yes"/>
      <point x="630" y="654"/>
      <point x="557" y="717"/>
      <point x="382" y="717" type="curve" smooth="yes"/>
      <point x="204" y="717"/>
      <point x="104" y="639"/>
      <point x="104" y="477" type="curve" smooth="yes"/>
      <point x="104" y="448" type="line"/>
      <point x="39" y="448" type="line"/>
      <point x="28" y="421"/>
      <point x="27" y="398"/>
      <point x="27" y="368" type="curve"/>
      <point x="51" y="368"/>
      <point x="88" y="363"/>
    </contour>
  </outline>
</glyph>
<glyph name="eth" format="2">
  <advance width="603"/>
  <unicode hex="00F0"/>
  <outline>
    <contour>
      <point x="287" y="-8" type="curve" smooth="yes"/>
      <point x="479" y="-8"/>
      <point x="573" y="88"/>
      <point x="573" y="286" type="curve" smooth="yes"/>
      <point x="573" y="485"/>
      <point x="478" y="623"/>
      <point x="304" y="717" type="curve"/>
      <point x="261" y="701"/>
      <point x="199" y="684"/>
      <point x="148" y="684" type="curve"/>
      <point x="137" y="663"/>
      <point x="135" y="634"/>
      <point x="135" y="609" type="curve"/>
      <point x="314" y="562"/>
      <point x="382" y="463"/>
      <point x="382" y="254" type="curve" smooth="yes"/>
      <point x="382" y="130"/>
      <point x="358" y="71"/>
      <point x="303" y="71" type="curve" smooth="yes"/>
      <point x="251" y="71"/>
      <point x="221" y="123"/>
      <point x="221" y="236" type="curve" smooth="yes"/>
      <point x="221" y="340"/>
      <point x="246" y="384"/>
      <point x="300" y="384" type="curve" smooth="yes"/>
      <point x="322" y="384"/>
      <point x="361" y="377"/>
      <point x="389" y="354" type="curve"/>
      <point x="359" y="436" type="line"/>
      <point x="337" y="450"/>
      <point x="316" y="458"/>
      <point x="272" y="458" type="curve" smooth="yes"/>
      <point x="125" y="458"/>
      <point x="30" y="370"/>
      <point x="30" y="215" type="curve" smooth="yes"/>
      <point x="30" y="67"/>
      <point x="117" y="-8"/>
    </contour>
    <contour>
      <point x="192" y="462" type="curve"/>
      <point x="293" y="516"/>
      <point x="418" y="570"/>
      <point x="522" y="605" type="curve"/>
      <point x="522" y="630"/>
      <point x="516" y="664"/>
      <point x="504" y="687" type="curve"/>
      <point x="172" y="543" type="line"/>
      <point x="170" y="519"/>
      <point x="179" y="483"/>
    </contour>
  </outline>
</glyph>
<glyph name="divide" format="2">
  <advance width="550"/>
  <unicode hex="00F7"/>
  <outline>
    <contour>
      <point x="27" y="220" type="curve"/>
      <point x="119" y="221"/>
      <point x="195" y="224"/>
      <point x="285" y="224" type="curve" smooth="yes"/>
      <point x="373" y="224"/>
      <point x="398" y="224"/>
      <point x="511" y="221" type="curve"/>
      <point x="520" y="245"/>
      <point x="523" y="274"/>
      <point x="523" y="307" type="curve"/>
      <point x="39" y="307" type="line"/>
      <point x="31" y="280"/>
      <point x="27" y="245"/>
    </contour>
    <contour>
      <point x="276" y="-2" type="curve" smooth="yes"/>
      <point x="322" y="-2"/>
      <point x="359" y="30"/>
      <point x="359" y="80" type="curve" smooth="yes"/>
      <point x="359" y="130"/>
      <point x="334" y="163"/>
      <point x="274" y="163" type="curve" smooth="yes"/>
      <point x="214" y="163"/>
      <point x="192" y="126"/>
      <point x="192" y="80" type="curve" smooth="yes"/>
      <point x="192" y="34"/>
      <point x="228" y="-2"/>
    </contour>
    <contour>
      <point x="281" y="359" type="curve" smooth="yes"/>
      <point x="329" y="359"/>
      <point x="360" y="400"/>
      <point x="360" y="453" type="curve" smooth="yes"/>
      <point x="360" y="498"/>
      <point x="322" y="526"/>
      <point x="277" y="526" type="curve" smooth="yes"/>
      <point x="233" y="526"/>
      <point x="190" y="499"/>
      <point x="190" y="442" type="curve" smooth="yes"/>
      <point x="190" y="390"/>
      <point x="219" y="359"/>
    </contour>
  </outline>
</glyph>
<glyph name="thorn" format="2">
  <advance width="673"/>
  <unicode hex="00FE"/>
  <outline>
    <contour>
      <point x="20" y="-245" type="curve"/>
      <point x="66" y="-243"/>
      <point x="150" y="-242"/>
      <point x="222" y="-242" type="curve" smooth="yes"/>
      <point x="285" y="-242"/>
      <point x="364" y="-243"/>
      <point x="402" y="-245" type="curve"/>
      <point x="402" y="-220"/>
      <point x="401" y="-189"/>
      <point x="393" y="-167" type="curve"/>
      <point x="309" y="-161"/>
      <point x="284" y="-131"/>
      <point x="284" y="-45" type="curve" smooth="yes"/>
      <point x="284" y="306" type="line"/>
      <point x="275" y="384" type="line"/>
      <point x="281" y="416"/>
      <point x="284" y="434"/>
      <point x="284" y="480" type="curve" smooth="yes"/>
      <point x="284" y="653" type="line" smooth="yes"/>
      <point x="284" y="688"/>
      <point x="271" y="707"/>
      <point x="249" y="717" type="curve"/>
      <point x="217" y="701"/>
      <point x="132" y="684"/>
      <point x="33" y="684" type="curve"/>
      <point x="22" y="663"/>
      <point x="20" y="634"/>
      <point x="20" y="609" type="curve"/>
      <point x="80" y="603"/>
      <point x="94" y="585"/>
      <point x="94" y="539" type="curve" smooth="yes"/>
      <point x="94" y="-55" type="line" smooth="yes"/>
      <point x="94" y="-147"/>
      <point x="81" y="-163"/>
      <point x="27" y="-167" type="curve"/>
      <point x="22" y="-186"/>
      <point x="20" y="-209"/>
    </contour>
    <contour>
      <point x="348" y="-9" type="curve" smooth="yes"/>
      <point x="525" y="-9"/>
      <point x="643" y="99"/>
      <point x="643" y="265" type="curve" smooth="yes"/>
      <point x="643" y="407"/>
      <point x="553" y="467"/>
      <point x="438" y="467" type="curve" smooth="yes"/>
      <point x="383" y="467"/>
      <point x="335" y="447"/>
      <point x="310" y="428" type="curve" smooth="yes"/>
      <point x="285" y="409"/>
      <point x="261" y="378"/>
      <point x="236" y="318" type="curve"/>
      <point x="284" y="218" type="line"/>
      <point x="284" y="330"/>
      <point x="330" y="369"/>
      <point x="374" y="369" type="curve" smooth="yes"/>
      <point x="437" y="369"/>
      <point x="452" y="300"/>
      <point x="452" y="236" type="curve" smooth="yes"/>
      <point x="452" y="89"/>
      <point x="393" y="62"/>
      <point x="347" y="62" type="curve" smooth="yes"/>
      <point x="316" y="62"/>
      <point x="296" y="77"/>
      <point x="276" y="108" type="curve"/>
      <point x="276" y="0" type="line"/>
      <point x="302" y="-7"/>
      <point x="324" y="-9"/>
    </contour>
  </outline>
</glyph>
<glyph name="eogonek" format="2">
  <advance width="545"/>
  <unicode hex="0119"/>
  <outline>
    <contour>
      <point x="348" y="-249" type="curve" smooth="yes"/>
      <point x="357" y="-249"/>
      <point x="361" y="-249"/>
      <point x="371" y="-248" type="curve"/>
      <point x="405" y="-231"/>
      <point x="457" y="-217"/>
      <point x="505" y="-210" type="curve"/>
      <point x="509" y="-185"/>
      <point x="499" y="-138"/>
      <point x="488" y="-124" type="curve"/>
      <point x="478" y="-126"/>
      <point x="467" y="-127"/>
      <point x="454" y="-127" type="curve" smooth="yes"/>
      <point x="404" y="-127"/>
      <point x="378" y="-111"/>
      <point x="378" y="-76" type="curve" smooth="yes"/>
      <point x="378" y="-40"/>
      <point x="407" y="-4"/>
      <point x="476" y="32" type="curve"/>
      <point x="429" y="28" type="line"/>
      <point x="241" y="-24"/>
      <point x="215" y="-82"/>
      <point x="215" y="-126" type="curve" smooth="yes"/>
      <point x="215" y="-215"/>
      <point x="293" y="-249"/>
    </contour>
    <component base="e"/>
  </outline>
</glyph>
<glyph name="Iogonek" format="2">
  <advance width="408"/>
  <unicode hex="012E"/>
  <outline>
    <contour>
      <point x="269" y="25" type="line"/>
      <point x="115" y="2"/>
      <point x="45" y="-56"/>
      <point x="45" y="-134" type="curve" smooth="yes"/>
      <point x="45" y="-217"/>
      <point x="124" y="-249"/>
      <point x="178" y="-249" type="curve" smooth="yes"/>
      <point x="187" y="-249"/>
      <point x="191" y="-249"/>
      <point x="201" y="-248" type="curve"/>
      <point x="235" y="-231"/>
      <point x="287" y="-217"/>
      <point x="335" y="-210" type="curve"/>
      <point x="339" y="-185"/>
      <point x="329" y="-138"/>
      <point x="318" y="-124" type="curve"/>
      <point x="308" y="-126"/>
      <point x="297" y="-127"/>
      <point x="284" y="-127" type="curve" smooth="yes"/>
      <point x="237" y="-127"/>
      <point x="208" y="-113"/>
      <point x="208" y="-81" type="curve" smooth="yes"/>
      <point x="208" y="-44"/>
      <point x="246" y="-13"/>
      <point x="296" y="0" type="curve"/>
    </contour>
    <component base="I"/>
  </outline>
</glyph>
<glyph name="IJ" format="2">
  <advance width="771"/>
  <unicode hex="0132"/>
  <outline>
    <contour>
      <point x="187" y="176" type="move"/>
    </contour>
    <component base="I"/>
    <component base="J" xOffset="378"/>
  </outline>
</glyph>
<glyph name="ij" format="2">
  <advance width="655"/>
  <unicode hex="0133"/>
  <outline>
    <contour>
      <point x="192" y="239" type="move"/>
    </contour>
    <component base="i"/>
    <component base="j" xOffset="320"/>
  </outline>
</glyph>
<glyph name="kgreenlandic" format="2">
  <advance width="674"/>
  <unicode hex="0138"/>
  <anchor x="343" y="0" name="bottom"/>
  <anchor x="343" y="458" name="top"/>
  <outline>
    <contour>
      <point x="32" y="-3" type="curve"/>
      <point x="56" y="-1"/>
      <point x="132" y="0"/>
      <point x="195" y="0" type="curve" smooth="yes"/>
      <point x="257" y="0"/>
      <point x="324" y="-1"/>
      <point x="349" y="-3" type="curve"/>
      <point x="349" y="30"/>
      <point x="348" y="56"/>
      <point x="341" y="75" type="curve"/>
      <point x="305" y="79"/>
      <point x="296" y="98"/>
      <point x="296" y="162" type="curve" smooth="yes"/>
      <point x="296" y="403" type="line" smooth="yes"/>
      <point x="296" y="438"/>
      <point x="283" y="457"/>
      <point x="261" y="467" type="curve"/>
      <point x="229" y="451"/>
      <point x="144" y="434"/>
      <point x="45" y="434" type="curve"/>
      <point x="34" y="413"/>
      <point x="32" y="384"/>
      <point x="32" y="359" type="curve"/>
      <point x="92" y="353"/>
      <point x="106" y="335"/>
      <point x="106" y="289" type="curve" smooth="yes"/>
      <point x="106" y="162" type="line" smooth="yes"/>
      <point x="106" y="95"/>
      <point x="94" y="78"/>
      <point x="41" y="75" type="curve"/>
      <point x="34" y="56"/>
      <point x="32" y="30"/>
    </contour>
    <contour>
      <point x="456" y="-9" type="curve"/>
      <point x="500" y="-2"/>
      <point x="594" y="0"/>
      <point x="645" y="0" type="curve"/>
      <point x="655" y="22"/>
      <point x="659" y="51"/>
      <point x="659" y="75" type="curve"/>
      <point x="622" y="79"/>
      <point x="619" y="82"/>
      <point x="591" y="120" type="curve" smooth="yes"/>
      <point x="537" y="197"/>
      <point x="477" y="265"/>
      <point x="398" y="327" type="curve"/>
      <point x="416" y="264" type="line"/>
      <point x="480" y="323" type="line" smooth="yes"/>
      <point x="527" y="368"/>
      <point x="552" y="378"/>
      <point x="611" y="383" type="curve"/>
      <point x="620" y="408"/>
      <point x="623" y="430"/>
      <point x="623" y="460" type="curve"/>
      <point x="597" y="459"/>
      <point x="566" y="458"/>
      <point x="529" y="458" type="curve" smooth="yes"/>
      <point x="462" y="458"/>
      <point x="383" y="459"/>
      <point x="359" y="460" type="curve"/>
      <point x="359" y="434"/>
      <point x="362" y="410"/>
      <point x="372" y="383" type="curve"/>
      <point x="393" y="381"/>
      <point x="398" y="376"/>
      <point x="398" y="366" type="curve" smooth="yes"/>
      <point x="398" y="358"/>
      <point x="393" y="349"/>
      <point x="362" y="322" type="curve" smooth="yes"/>
      <point x="268" y="239" type="line"/>
      <point x="268" y="233" type="line"/>
      <point x="336" y="158"/>
      <point x="418" y="50"/>
    </contour>
  </outline>
</glyph>
<glyph name="OE" format="2">
  <advance width="1027"/>
  <unicode hex="0152"/>
  <anchor x="574" y="676" name="top"/>
  <outline>
    <contour>
      <point x="372" y="685" type="curve" smooth="yes"/>
      <point x="170" y="685"/>
      <point x="35" y="554"/>
      <point x="35" y="341" type="curve" smooth="yes"/>
      <point x="35" y="132"/>
      <point x="156" y="-9"/>
      <point x="372" y="-9" type="curve" smooth="yes"/>
      <point x="488" y="-9"/>
      <point x="554" y="0"/>
      <point x="690" y="0" type="curve" smooth="yes"/>
      <point x="804" y="0"/>
      <point x="922" y="-1"/>
      <point x="981" y="-2" type="curve"/>
      <point x="986" y="63"/>
      <point x="997" y="131"/>
      <point x="1012" y="177" type="curve"/>
      <point x="995" y="193"/>
      <point x="954" y="207"/>
      <point x="910" y="211" type="curve"/>
      <point x="884" y="115"/>
      <point x="848" y="74"/>
      <point x="780" y="74" type="curve" smooth="yes"/>
      <point x="599" y="74" type="line"/>
      <point x="655" y="127"/>
      <point x="689" y="202"/>
      <point x="700" y="293" type="curve"/>
      <point x="710" y="293" type="line" smooth="yes"/>
      <point x="765" y="293"/>
      <point x="784" y="280"/>
      <point x="789" y="225" type="curve"/>
      <point x="812" y="217"/>
      <point x="838" y="215"/>
      <point x="875" y="215" type="curve"/>
      <point x="873" y="244"/>
      <point x="871" y="278"/>
      <point x="871" y="334" type="curve" smooth="yes"/>
      <point x="871" y="384"/>
      <point x="873" y="419"/>
      <point x="875" y="451" type="curve"/>
      <point x="845" y="451"/>
      <point x="810" y="448"/>
      <point x="787" y="439" type="curve"/>
      <point x="786" y="387"/>
      <point x="771" y="368"/>
      <point x="712" y="368" type="curve" smooth="yes"/>
      <point x="703" y="368" type="line"/>
      <point x="700" y="467"/>
      <point x="670" y="548"/>
      <point x="610" y="603" type="curve"/>
      <point x="744" y="603" type="line" smooth="yes"/>
      <point x="843" y="603"/>
      <point x="869" y="555"/>
      <point x="882" y="483" type="curve"/>
      <point x="928" y="483"/>
      <point x="957" y="491"/>
      <point x="983" y="501" type="curve"/>
      <point x="970" y="548"/>
      <point x="963" y="628"/>
      <point x="962" y="679" type="curve"/>
      <point x="905" y="677"/>
      <point x="835" y="676"/>
      <point x="695" y="676" type="curve" smooth="yes"/>
      <point x="551" y="676"/>
      <point x="476" y="685"/>
    </contour>
    <contour>
      <point x="359" y="610" type="curve" smooth="yes"/>
      <point x="455" y="610"/>
      <point x="508" y="486"/>
      <point x="508" y="333" type="curve" smooth="yes"/>
      <point x="508" y="172"/>
      <point x="467" y="69"/>
      <point x="384" y="69" type="curve" smooth="yes"/>
      <point x="278" y="69"/>
      <point x="237" y="205"/>
      <point x="237" y="365" type="curve" smooth="yes"/>
      <point x="237" y="522"/>
      <point x="278" y="610"/>
    </contour>
  </outline>
</glyph>
<glyph name="tcaron" format="2">
  <advance width="588"/>
  <unicode hex="0165"/>
  <outline>
    <contour>
      <point x="181" y="121" type="move"/>
    </contour>
    <component base="t"/>
    <component base="quoteright" xOffset="330"/>
  </outline>
</glyph>
<glyph name="Uogonek" format="2">
  <advance width="697"/>
  <unicode hex="0172"/>
  <outline>
    <contour>
      <point x="477" y="28" type="line"/>
      <point x="289" y="-24"/>
      <point x="263" y="-75"/>
      <point x="263" y="-126" type="curve" smooth="yes"/>
      <point x="263" y="-215"/>
      <point x="341" y="-249"/>
      <point x="396" y="-249" type="curve" smooth="yes"/>
      <point x="405" y="-249"/>
      <point x="409" y="-249"/>
      <point x="419" y="-248" type="curve"/>
      <point x="453" y="-231"/>
      <point x="505" y="-217"/>
      <point x="553" y="-210" type="curve"/>
      <point x="557" y="-185"/>
      <point x="547" y="-138"/>
      <point x="536" y="-124" type="curve"/>
      <point x="526" y="-126"/>
      <point x="515" y="-127"/>
      <point x="502" y="-127" type="curve" smooth="yes"/>
      <point x="452" y="-127"/>
      <point x="426" y="-111"/>
      <point x="426" y="-76" type="curve" smooth="yes"/>
      <point x="426" y="-44"/>
      <point x="450" y="-10"/>
      <point x="506" y="22" type="curve"/>
    </contour>
    <component base="U"/>
  </outline>
</glyph>
<glyph name="Ereversed" format="2">
  <advance width="646"/>
  <unicode hex="018E"/>
  <outline>
    <contour>
      <point x="616" y="679" type="curve"/>
      <point x="616" y="657"/>
      <point x="614" y="621"/>
      <point x="609" y="601" type="curve"/>
      <point x="553" y="593"/>
      <point x="542" y="581"/>
      <point x="542" y="491" type="curve" smooth="yes"/>
      <point x="542" y="187" type="line" smooth="yes"/>
      <point x="542" y="95"/>
      <point x="554" y="79"/>
      <point x="608" y="75" type="curve"/>
      <point x="613" y="56"/>
      <point x="616" y="26"/>
      <point x="616" y="-3" type="curve"/>
      <point x="570" y="-2"/>
      <point x="377" y="0"/>
      <point x="307" y="0" type="curve"/>
      <point x="264" y="75" type="line"/>
      <point x="324" y="75"/>
      <point x="342" y="100"/>
      <point x="342" y="192" type="curve" smooth="yes"/>
      <point x="342" y="676" type="line"/>
      <point x="416" y="676"/>
      <point x="553" y="677"/>
    </contour>
    <contour>
      <point x="117" y="211" type="curve"/>
      <point x="143" y="115"/>
      <point x="179" y="75"/>
      <point x="247" y="75" type="curve" smooth="yes"/>
      <point x="264" y="75" type="line"/>
      <point x="307" y="0" type="line"/>
      <point x="223" y="0"/>
      <point x="105" y="-1"/>
      <point x="46" y="-2" type="curve"/>
      <point x="41" y="63"/>
      <point x="30" y="131"/>
      <point x="15" y="177" type="curve"/>
      <point x="32" y="193"/>
      <point x="73" y="207"/>
    </contour>
    <contour>
      <point x="172" y="457" type="curve"/>
      <point x="202" y="457"/>
      <point x="237" y="454"/>
      <point x="260" y="445" type="curve"/>
      <point x="261" y="393"/>
      <point x="276" y="374"/>
      <point x="341" y="374" type="curve" smooth="yes"/>
      <point x="398" y="374" type="line"/>
      <point x="398" y="299" type="line"/>
      <point x="341" y="299" type="line" smooth="yes"/>
      <point x="282" y="299"/>
      <point x="263" y="286"/>
      <point x="258" y="231" type="curve"/>
      <point x="235" y="223"/>
      <point x="209" y="221"/>
      <point x="172" y="221" type="curve"/>
      <point x="174" y="250"/>
      <point x="176" y="284"/>
      <point x="176" y="340" type="curve" smooth="yes"/>
      <point x="176" y="390"/>
      <point x="174" y="425"/>
    </contour>
    <contour>
      <point x="75" y="679" type="curve"/>
      <point x="132" y="677"/>
      <point x="202" y="676"/>
      <point x="352" y="676" type="curve"/>
      <point x="386" y="601" type="line"/>
      <point x="293" y="601" type="line" smooth="yes"/>
      <point x="194" y="601"/>
      <point x="168" y="555"/>
      <point x="155" y="483" type="curve"/>
      <point x="109" y="483"/>
      <point x="80" y="491"/>
      <point x="54" y="501" type="curve"/>
      <point x="67" y="548"/>
      <point x="74" y="628"/>
    </contour>
  </outline>
</glyph>
<glyph name="Schwa" format="2">
  <advance width="705"/>
  <unicode hex="018F"/>
  <anchor x="353" y="0" name="bottom"/>
  <anchor x="353" y="676" name="top"/>
  <outline>
    <contour>
      <point x="332" y="-7" type="curve" smooth="yes"/>
      <point x="535" y="-7"/>
      <point x="670" y="132"/>
      <point x="670" y="351" type="curve" smooth="yes"/>
      <point x="670" y="532"/>
      <point x="576" y="685"/>
      <point x="304" y="685" type="curve" smooth="yes"/>
      <point x="219" y="685"/>
      <point x="132" y="670"/>
      <point x="66" y="640" type="curve"/>
      <point x="74" y="588"/>
      <point x="73" y="538"/>
      <point x="67" y="485" type="curve"/>
      <point x="89" y="471"/>
      <point x="131" y="464"/>
      <point x="164" y="468" type="curve"/>
      <point x="173" y="568"/>
      <point x="196" y="610"/>
      <point x="279" y="610" type="curve" smooth="yes"/>
      <point x="424" y="610"/>
      <point x="465" y="482"/>
      <point x="465" y="316" type="curve" smooth="yes"/>
      <point x="465" y="121"/>
      <point x="409" y="68"/>
      <point x="344" y="68" type="curve" smooth="yes"/>
      <point x="265" y="68"/>
      <point x="225" y="145"/>
      <point x="225" y="294" type="curve"/>
      <point x="320" y="294"/>
      <point x="384" y="293"/>
      <point x="479" y="288" type="curve"/>
      <point x="479" y="369" type="line"/>
      <point x="69" y="369" type="line"/>
      <point x="53" y="355"/>
      <point x="40" y="332"/>
      <point x="35" y="308" type="curve"/>
      <point x="40" y="139"/>
      <point x="123" y="-7"/>
    </contour>
  </outline>
</glyph>
<glyph name="Nhookleft" format="2">
  <advance width="711"/>
  <unicode hex="019D"/>
  <anchor x="356" y="0" name="bottom"/>
  <anchor x="356" y="676" name="top"/>
  <outline>
    <contour>
      <point x="520" y="-9" type="line"/>
      <point x="553" y="277" type="line"/>
      <point x="261" y="679" type="line"/>
      <point x="234" y="676"/>
      <point x="181" y="676"/>
      <point x="148" y="676" type="curve" smooth="yes"/>
      <point x="115" y="676"/>
      <point x="41" y="677"/>
      <point x="15" y="679" type="curve"/>
      <point x="15" y="649"/>
      <point x="17" y="623"/>
      <point x="23" y="601" type="curve"/>
      <point x="66" y="597"/>
      <point x="79" y="591"/>
      <point x="90" y="573" type="curve" smooth="yes"/>
    </contour>
    <contour>
      <point x="-41" y="-249" type="curve" smooth="yes"/>
      <point x="78" y="-249"/>
      <point x="179" y="-143"/>
      <point x="179" y="93" type="curve" smooth="yes"/>
      <point x="179" y="607" type="line"/>
      <point x="104" y="615" type="line"/>
      <point x="104" y="77" type="line" smooth="yes"/>
      <point x="104" y="-51"/>
      <point x="61" y="-106"/>
      <point x="-37" y="-106" type="curve" smooth="yes"/>
      <point x="-79" y="-106"/>
      <point x="-125" y="-96"/>
      <point x="-148" y="-87" type="curve"/>
      <point x="-161" y="-121"/>
      <point x="-165" y="-169"/>
      <point x="-161" y="-195" type="curve"/>
      <point x="-141" y="-223"/>
      <point x="-100" y="-249"/>
    </contour>
    <contour>
      <point x="520" y="-9" type="line"/>
      <point x="557" y="-9"/>
      <point x="584" y="-8"/>
      <point x="611" y="0" type="curve"/>
      <point x="611" y="458" type="line" smooth="yes"/>
      <point x="611" y="575"/>
      <point x="622" y="594"/>
      <point x="674" y="601" type="curve"/>
      <point x="681" y="627"/>
      <point x="681" y="652"/>
      <point x="681" y="679" type="curve"/>
      <point x="657" y="677"/>
      <point x="609" y="676"/>
      <point x="575" y="676" type="curve" smooth="yes"/>
      <point x="541" y="676"/>
      <point x="472" y="677"/>
      <point x="444" y="679" type="curve"/>
      <point x="444" y="656"/>
      <point x="445" y="624"/>
      <point x="451" y="601" type="curve"/>
      <point x="523" y="593"/>
      <point x="536" y="572"/>
      <point x="536" y="458" type="curve" smooth="yes"/>
      <point x="536" y="180" type="line"/>
    </contour>
  </outline>
</glyph>
<glyph name="Ezh" format="2">
  <advance width="607"/>
  <unicode hex="01B7"/>
  <anchor x="293" y="0" name="bottom"/>
  <anchor x="300" y="676" name="top"/>
  <outline>
    <contour>
      <point x="266" y="-9" type="curve" smooth="yes"/>
      <point x="471" y="-9"/>
      <point x="577" y="68"/>
      <point x="577" y="193" type="curve" smooth="yes"/>
      <point x="577" y="309"/>
      <point x="486" y="368"/>
      <point x="345" y="370" type="curve"/>
      <point x="377" y="342" type="line"/>
      <point x="447" y="423"/>
      <point x="509" y="518"/>
      <point x="555" y="608" type="curve"/>
      <point x="553" y="637"/>
      <point x="546" y="658"/>
      <point x="534" y="678" type="curve"/>
      <point x="470" y="676"/>
      <point x="371" y="676"/>
      <point x="302" y="676" type="curve" smooth="yes"/>
      <point x="236" y="676"/>
      <point x="118" y="676"/>
      <point x="68" y="678" type="curve"/>
      <point x="68" y="618"/>
      <point x="61" y="534"/>
      <point x="43" y="470" type="curve"/>
      <point x="68" y="459"/>
      <point x="107" y="456"/>
      <point x="149" y="456" type="curve"/>
      <point x="176" y="574"/>
      <point x="202" y="601"/>
      <point x="264" y="601" type="curve" smooth="yes"/>
      <point x="393" y="601" type="line"/>
      <point x="348" y="626" type="line"/>
      <point x="299" y="534"/>
      <point x="239" y="444"/>
      <point x="182" y="383" type="curve"/>
      <point x="182" y="361"/>
      <point x="193" y="317"/>
      <point x="205" y="298" type="curve"/>
      <point x="313" y="298"/>
      <point x="376" y="263"/>
      <point x="376" y="183" type="curve" smooth="yes"/>
      <point x="376" y="114"/>
      <point x="329" y="75"/>
      <point x="262" y="75" type="curve" smooth="yes"/>
      <point x="198" y="75"/>
      <point x="158" y="110"/>
      <point x="142" y="222" type="curve"/>
      <point x="102" y="222"/>
      <point x="71" y="218"/>
      <point x="42" y="207" type="curve"/>
      <point x="52" y="150"/>
      <point x="54" y="71"/>
      <point x="51" y="32" type="curve"/>
      <point x="96" y="7"/>
      <point x="173" y="-9"/>
    </contour>
  </outline>
</glyph>
<glyph name="Gstroke" format="2">
  <advance width="699"/>
  <unicode hex="01E4"/>
  <outline>
    <contour>
      <point x="357" y="121" type="curve"/>
      <point x="404" y="121"/>
      <point x="440" y="124"/>
      <point x="475" y="123" type="curve"/>
      <point x="571" y="124" type="line"/>
      <point x="622" y="124"/>
      <point x="639" y="124"/>
      <point x="689" y="123" type="curve"/>
      <point x="696" y="148"/>
      <point x="699" y="177"/>
      <point x="699" y="212" type="curve"/>
      <point x="575" y="212" type="line"/>
      <point x="478" y="212" type="line"/>
      <point x="367" y="212" type="line"/>
      <point x="361" y="190"/>
      <point x="357" y="159"/>
    </contour>
    <component base="G"/>
  </outline>
</glyph>
<glyph name="Oogonek" format="2">
  <advance width="761"/>
  <unicode hex="01EA"/>
  <outline>
    <contour>
      <point x="421" y="-252" type="curve" smooth="yes"/>
      <point x="430" y="-252"/>
      <point x="434" y="-252"/>
      <point x="444" y="-251" type="curve"/>
      <point x="478" y="-234"/>
      <point x="530" y="-220"/>
      <point x="578" y="-213" type="curve"/>
      <point x="582" y="-188"/>
      <point x="572" y="-141"/>
      <point x="561" y="-127" type="curve"/>
      <point x="551" y="-129"/>
      <point x="540" y="-130"/>
      <point x="527" y="-130" type="curve" smooth="yes"/>
      <point x="477" y="-130"/>
      <point x="451" y="-114"/>
      <point x="451" y="-79" type="curve" smooth="yes"/>
      <point x="451" y="-43"/>
      <point x="479" y="0"/>
      <point x="531" y="21" type="curve"/>
      <point x="452" y="25" type="line"/>
      <point x="351" y="-5"/>
      <point x="288" y="-76"/>
      <point x="288" y="-142" type="curve" smooth="yes"/>
      <point x="288" y="-216"/>
      <point x="366" y="-252"/>
    </contour>
    <component base="O"/>
  </outline>
</glyph>
<glyph name="yogh" format="2">
  <advance width="532"/>
  <unicode hex="021D"/>
  <outline>
    <contour>
      <point x="215" y="-249" type="curve" smooth="yes"/>
      <point x="398" y="-249"/>
      <point x="502" y="-161"/>
      <point x="502" y="-25" type="curve" smooth="yes"/>
      <point x="502" y="88"/>
      <point x="430" y="154"/>
      <point x="272" y="135" type="curve"/>
      <point x="272" y="128" type="line"/>
      <point x="406" y="153"/>
      <point x="487" y="217"/>
      <point x="487" y="317" type="curve" smooth="yes"/>
      <point x="487" y="411"/>
      <point x="415" y="467"/>
      <point x="259" y="467" type="curve" smooth="yes"/>
      <point x="178" y="467"/>
      <point x="113" y="452"/>
      <point x="55" y="419" type="curve"/>
      <point x="63" y="370"/>
      <point x="63" y="322"/>
      <point x="57" y="276" type="curve"/>
      <point x="79" y="263"/>
      <point x="120" y="257"/>
      <point x="152" y="260" type="curve"/>
      <point x="163" y="359"/>
      <point x="174" y="394"/>
      <point x="230" y="394" type="curve" smooth="yes"/>
      <point x="278" y="394"/>
      <point x="306" y="368"/>
      <point x="306" y="305" type="curve" smooth="yes"/>
      <point x="306" y="217"/>
      <point x="252" y="171"/>
      <point x="132" y="139" type="curve"/>
      <point x="129" y="115"/>
      <point x="132" y="85"/>
      <point x="143" y="63" type="curve"/>
      <point x="159" y="67"/>
      <point x="176" y="69"/>
      <point x="192" y="69" type="curve" smooth="yes"/>
      <point x="259" y="69"/>
      <point x="315" y="34"/>
      <point x="315" y="-46" type="curve" smooth="yes"/>
      <point x="315" y="-122"/>
      <point x="265" y="-168"/>
      <point x="179" y="-168" type="curve" smooth="yes"/>
      <point x="132" y="-168"/>
      <point x="99" y="-154"/>
      <point x="70" y="-131" type="curve"/>
      <point x="50" y="-150"/>
      <point x="39" y="-175"/>
      <point x="36" y="-199" type="curve"/>
      <point x="74" y="-231"/>
      <point x="132" y="-249"/>
    </contour>
  </outline>
</glyph>
<glyph name="jdotless" format="2">
  <advance width="335"/>
  <unicode hex="0237"/>
  <anchor x="196" y="233" name="center"/>
  <anchor x="187" y="458" name="top"/>
  <outline>
    <contour>
      <point x="62" y="-249" type="curve"/>
      <point x="154" y="-204"/>
      <point x="291" y="-92"/>
      <point x="291" y="83" type="curve" smooth="yes"/>
      <point x="291" y="403" type="line" smooth="yes"/>
      <point x="291" y="438"/>
      <point x="278" y="457"/>
      <point x="256" y="467" type="curve"/>
      <point x="224" y="451"/>
      <point x="139" y="434"/>
      <point x="40" y="434" type="curve"/>
      <point x="29" y="413"/>
      <point x="27" y="384"/>
      <point x="27" y="359" type="curve"/>
      <point x="87" y="353"/>
      <point x="101" y="335"/>
      <point x="101" y="289" type="curve" smooth="yes"/>
      <point x="101" y="37" type="line" smooth="yes"/>
      <point x="101" y="-58"/>
      <point x="80" y="-110"/>
      <point x="15" y="-175" type="curve"/>
      <point x="19" y="-207"/>
      <point x="37" y="-236"/>
    </contour>
  </outline>
</glyph>
<glyph name="ereversed" format="2">
  <advance width="542"/>
  <unicode hex="0258"/>
  <anchor x="239" y="0" name="bottom"/>
  <anchor x="260" y="225" name="center"/>
  <anchor x="512" y="234" name="right"/>
  <anchor x="264" y="458" name="top"/>
  <outline>
    <contour>
      <point x="232" y="-9" type="curve" smooth="yes"/>
      <point x="441" y="-9"/>
      <point x="512" y="94"/>
      <point x="512" y="229" type="curve" smooth="yes"/>
      <point x="512" y="385"/>
      <point x="416" y="467"/>
      <point x="263" y="467" type="curve" smooth="yes"/>
      <point x="106" y="467"/>
      <point x="31" y="380"/>
      <point x="31" y="277" type="curve" smooth="yes"/>
      <point x="31" y="241"/>
      <point x="40" y="209"/>
      <point x="61" y="180" type="curve"/>
      <point x="149" y="188"/>
      <point x="269" y="189"/>
      <point x="367" y="189" type="curve"/>
      <point x="367" y="259" type="line"/>
      <point x="193" y="259" type="line"/>
      <point x="190" y="268"/>
      <point x="188" y="279"/>
      <point x="188" y="295" type="curve" smooth="yes"/>
      <point x="188" y="346"/>
      <point x="207" y="393"/>
      <point x="249" y="393" type="curve" smooth="yes"/>
      <point x="301" y="393"/>
      <point x="324" y="322"/>
      <point x="324" y="221" type="curve" smooth="yes"/>
      <point x="324" y="119"/>
      <point x="301" y="71"/>
      <point x="240" y="71" type="curve" smooth="yes"/>
      <point x="195" y="71"/>
      <point x="151" y="98"/>
      <point x="144" y="150" type="curve"/>
      <point x="111" y="150"/>
      <point x="67" y="142"/>
      <point x="43" y="128" type="curve"/>
      <point x="46" y="101"/>
      <point x="47" y="59"/>
      <point x="41" y="24" type="curve"/>
      <point x="93" y="4"/>
      <point x="158" y="-9"/>
    </contour>
  </outline>
</glyph>
<glyph name="schwa" format="2">
  <advance width="545"/>
  <unicode hex="0259"/>
  <anchor x="303" y="0" name="bottom"/>
  <anchor x="382" y="14" name="ogonek"/>
  <anchor x="286" y="458" name="top"/>
  <outline>
    <contour>
      <point x="248" y="467" type="curve" smooth="yes"/>
      <point x="156" y="467"/>
      <point x="91" y="444"/>
      <point x="36" y="406" type="curve"/>
      <point x="36" y="377"/>
      <point x="48" y="346"/>
      <point x="63" y="337" type="curve"/>
      <point x="92" y="359"/>
      <point x="145" y="375"/>
      <point x="193" y="375" type="curve" smooth="yes"/>
      <point x="289" y="375"/>
      <point x="327" y="310"/>
      <point x="327" y="203" type="curve" smooth="yes"/>
      <point x="327" y="119"/>
      <point x="304" y="65"/>
      <point x="258" y="65" type="curve" smooth="yes"/>
      <point x="217" y="65"/>
      <point x="196" y="109"/>
      <point x="196" y="199" type="curve"/>
      <point x="370" y="199" type="line"/>
      <point x="370" y="278" type="line"/>
      <point x="272" y="270"/>
      <point x="152" y="269"/>
      <point x="64" y="269" type="curve"/>
      <point x="49" y="255"/>
      <point x="37" y="234"/>
      <point x="31" y="210" type="curve"/>
      <point x="34" y="78"/>
      <point x="105" y="-9"/>
      <point x="261" y="-9" type="curve" smooth="yes"/>
      <point x="416" y="-9"/>
      <point x="515" y="81"/>
      <point x="515" y="234" type="curve" smooth="yes"/>
      <point x="515" y="368"/>
      <point x="440" y="467"/>
    </contour>
  </outline>
</glyph>
<glyph name="ringhalfright" format="2">
  <advance width="290"/>
  <unicode hex="02BE"/>
  <outline>
    <contour>
      <point x="46" y="413" type="curve"/>
      <point x="38" y="440"/>
      <point x="38" y="465"/>
      <point x="46" y="492" type="curve"/>
      <point x="90" y="492"/>
      <point x="115" y="525"/>
      <point x="115" y="576" type="curve" smooth="yes"/>
      <point x="115" y="625"/>
      <point x="91" y="657"/>
      <point x="46" y="657" type="curve"/>
      <point x="38" y="681"/>
      <point x="38" y="706"/>
      <point x="46" y="729" type="curve"/>
      <point x="175" y="729"/>
      <point x="250" y="667"/>
      <point x="250" y="567" type="curve" smooth="yes"/>
      <point x="250" y="468"/>
      <point x="175" y="413"/>
    </contour>
  </outline>
</glyph>
<glyph name="circumflexcomb" format="2">
  <unicode hex="0302"/>
  <anchor x="251" y="458" name="_top"/>
  <anchor x="251" y="723" name="top"/>
  <outline>
    <contour>
      <point x="112" y="515" type="curve"/>
      <point x="145" y="541"/>
      <point x="205" y="579"/>
      <point x="241" y="598" type="curve"/>
      <point x="286" y="575"/>
      <point x="337" y="543"/>
      <point x="375" y="515" type="curve"/>
      <point x="418" y="523"/>
      <point x="444" y="542"/>
      <point x="465" y="566" type="curve"/>
      <point x="399" y="621"/>
      <point x="346" y="674"/>
      <point x="305" y="723" type="curve"/>
      <point x="275" y="723"/>
      <point x="242" y="717"/>
      <point x="218" y="708" type="curve"/>
      <point x="173" y="661"/>
      <point x="107" y="610"/>
      <point x="50" y="572" type="curve"/>
      <point x="57" y="550"/>
      <point x="80" y="522"/>
    </contour>
  </outline>
</glyph>
<glyph name="tildecomb" format="2">
  <unicode hex="0303"/>
  <anchor x="265" y="458" name="_top"/>
  <anchor x="265" y="697" name="top"/>
  <outline>
    <contour>
      <point x="325" y="537" type="curve" smooth="yes"/>
      <point x="388" y="537"/>
      <point x="435" y="579"/>
      <point x="480" y="657" type="curve"/>
      <point x="464" y="674"/>
      <point x="441" y="685"/>
      <point x="416" y="689" type="curve"/>
      <point x="398" y="663"/>
      <point x="374" y="646"/>
      <point x="344" y="646" type="curve" smooth="yes"/>
      <point x="293" y="646"/>
      <point x="266" y="697"/>
      <point x="199" y="697" type="curve" smooth="yes"/>
      <point x="162" y="697"/>
      <point x="108" y="681"/>
      <point x="50" y="613" type="curve"/>
      <point x="52" y="582"/>
      <point x="63" y="561"/>
      <point x="86" y="540" type="curve"/>
      <point x="113" y="573"/>
      <point x="143" y="591"/>
      <point x="176" y="591" type="curve" smooth="yes"/>
      <point x="233" y="591"/>
      <point x="254" y="537"/>
    </contour>
  </outline>
</glyph>
<glyph name="macroncomb" format="2">
  <unicode hex="0304"/>
  <anchor x="242" y="458" name="_top"/>
  <anchor x="242" y="631" name="top"/>
  <outline>
    <contour>
      <point x="50" y="563" type="curve"/>
      <point x="188" y="571"/>
      <point x="320" y="573"/>
      <point x="425" y="573" type="curve"/>
      <point x="432" y="593"/>
      <point x="434" y="617"/>
      <point x="434" y="631" type="curve"/>
      <point x="59" y="631" type="line"/>
      <point x="52" y="612"/>
      <point x="50" y="583"/>
    </contour>
  </outline>
</glyph>
<glyph name="brevecomb" format="2">
  <unicode hex="0306"/>
  <anchor x="257" y="458" name="_top"/>
  <anchor x="257" y="716" name="top"/>
  <outline>
    <contour>
      <point x="464" y="706" type="curve"/>
      <point x="439" y="715"/>
      <point x="406" y="719"/>
      <point x="373" y="713" type="curve"/>
      <point x="370" y="665"/>
      <point x="332" y="638"/>
      <point x="269" y="638" type="curve" smooth="yes"/>
      <point x="205" y="638"/>
      <point x="164" y="665"/>
      <point x="156" y="713" type="curve"/>
      <point x="119" y="718"/>
      <point x="79" y="713"/>
      <point x="50" y="701" type="curve"/>
      <point x="50" y="580"/>
      <point x="120" y="517"/>
      <point x="255" y="517" type="curve" smooth="yes"/>
      <point x="392" y="517"/>
      <point x="464" y="582"/>
    </contour>
  </outline>
</glyph>
<glyph name="dotaccentcomb" format="2">
  <unicode hex="0307"/>
  <anchor x="159" y="458" name="_top"/>
  <anchor x="159" y="684" name="top"/>
  <outline>
    <contour>
      <point x="152" y="514" type="curve" smooth="yes"/>
      <point x="224" y="514"/>
      <point x="267" y="548"/>
      <point x="267" y="597" type="curve" smooth="yes"/>
      <point x="267" y="654"/>
      <point x="230" y="684"/>
      <point x="159" y="684" type="curve" smooth="yes"/>
      <point x="96" y="684"/>
      <point x="50" y="654"/>
      <point x="50" y="595" type="curve" smooth="yes"/>
      <point x="50" y="546"/>
      <point x="89" y="514"/>
    </contour>
  </outline>
</glyph>
<glyph name="dieresiscomb" format="2">
  <unicode hex="0308"/>
  <anchor x="273" y="458" name="_top"/>
  <anchor x="273" y="676" name="top"/>
  <outline>
    <contour>
      <point x="404" y="506" type="curve" smooth="yes"/>
      <point x="471" y="506"/>
      <point x="496" y="549"/>
      <point x="496" y="596" type="curve" smooth="yes"/>
      <point x="496" y="641"/>
      <point x="455" y="676"/>
      <point x="399" y="676" type="curve" smooth="yes"/>
      <point x="342" y="676"/>
      <point x="303" y="647"/>
      <point x="303" y="596" type="curve" smooth="yes"/>
      <point x="303" y="543"/>
      <point x="337" y="506"/>
    </contour>
    <contour>
      <point x="147" y="506" type="curve" smooth="yes"/>
      <point x="201" y="506"/>
      <point x="241" y="542"/>
      <point x="241" y="588" type="curve" smooth="yes"/>
      <point x="241" y="638"/>
      <point x="212" y="676"/>
      <point x="144" y="676" type="curve" smooth="yes"/>
      <point x="78" y="676"/>
      <point x="50" y="633"/>
      <point x="50" y="586" type="curve" smooth="yes"/>
      <point x="50" y="542"/>
      <point x="89" y="506"/>
    </contour>
  </outline>
</glyph>
<glyph name="hookabovecomb" format="2">
  <unicode hex="0309"/>
  <anchor x="195" y="458" name="_top"/>
  <anchor x="195" y="717" name="top"/>
  <outline>
    <contour>
      <point x="158" y="508" type="curve"/>
      <point x="188" y="505"/>
      <point x="228" y="508"/>
      <point x="250" y="516" type="curve"/>
      <point x="247" y="526"/>
      <point x="246" y="535"/>
      <point x="246" y="540" type="curve" smooth="yes"/>
      <point x="246" y="577"/>
      <point x="327" y="574"/>
      <point x="327" y="632" type="curve" smooth="yes"/>
      <point x="327" y="673"/>
      <point x="288" y="698"/>
      <point x="202" y="698" type="curve" smooth="yes"/>
      <point x="140" y="698"/>
      <point x="94" y="685"/>
      <point x="63" y="666" type="curve"/>
      <point x="68" y="647"/>
      <point x="67" y="622"/>
      <point x="63" y="600" type="curve"/>
      <point x="85" y="591"/>
      <point x="108" y="586"/>
      <point x="141" y="586" type="curve"/>
      <point x="151" y="628"/>
      <point x="167" y="637"/>
      <point x="185" y="637" type="curve" smooth="yes"/>
      <point x="199" y="637"/>
      <point x="210" y="632"/>
      <point x="210" y="620" type="curve" smooth="yes"/>
      <point x="210" y="592"/>
      <point x="145" y="588"/>
      <point x="145" y="547" type="curve" smooth="yes"/>
      <point x="145" y="534"/>
      <point x="150" y="519"/>
    </contour>
  </outline>
</glyph>
<glyph name="ringcomb" format="2">
  <unicode hex="030A"/>
  <anchor x="187" y="458" name="_top"/>
  <anchor x="187" y="729" name="top"/>
  <outline>
    <contour>
      <point x="181" y="516" type="curve" smooth="yes"/>
      <point x="267" y="516"/>
      <point x="324" y="561"/>
      <point x="324" y="627" type="curve" smooth="yes"/>
      <point x="324" y="698"/>
      <point x="266" y="729"/>
      <point x="192" y="729" type="curve" smooth="yes"/>
      <point x="110" y="729"/>
      <point x="50" y="687"/>
      <point x="50" y="619" type="curve" smooth="yes"/>
      <point x="50" y="554"/>
      <point x="107" y="516"/>
    </contour>
    <contour>
      <point x="190" y="576" type="curve" smooth="yes"/>
      <point x="167" y="576"/>
      <point x="154" y="597"/>
      <point x="154" y="625" type="curve" smooth="yes"/>
      <point x="154" y="656"/>
      <point x="166" y="674"/>
      <point x="184" y="674" type="curve" smooth="yes"/>
      <point x="210" y="674"/>
      <point x="221" y="643"/>
      <point x="221" y="619" type="curve" smooth="yes"/>
      <point x="221" y="592"/>
      <point x="207" y="576"/>
    </contour>
  </outline>
</glyph>
<glyph name="hungarumlautcomb" format="2">
  <unicode hex="030B"/>
  <anchor x="215" y="458" name="_top"/>
  <anchor x="215" y="719" name="top"/>
  <outline>
    <contour>
      <point x="347" y="530" type="curve"/>
      <point x="380" y="591"/>
      <point x="425" y="653"/>
      <point x="477" y="715" type="curve"/>
      <point x="459" y="718"/>
      <point x="436" y="719"/>
      <point x="413" y="719" type="curve" smooth="yes"/>
      <point x="376" y="719"/>
      <point x="337" y="715"/>
      <point x="311" y="706" type="curve"/>
      <point x="298" y="652"/>
      <point x="280" y="609"/>
      <point x="250" y="550" type="curve"/>
      <point x="270" y="540"/>
      <point x="311" y="530"/>
    </contour>
    <contour>
      <point x="147" y="530" type="curve"/>
      <point x="180" y="591"/>
      <point x="225" y="653"/>
      <point x="277" y="715" type="curve"/>
      <point x="259" y="718"/>
      <point x="236" y="719"/>
      <point x="213" y="719" type="curve" smooth="yes"/>
      <point x="176" y="719"/>
      <point x="137" y="715"/>
      <point x="111" y="706" type="curve"/>
      <point x="98" y="652"/>
      <point x="80" y="609"/>
      <point x="50" y="550" type="curve"/>
      <point x="70" y="540"/>
      <point x="111" y="530"/>
    </contour>
  </outline>
</glyph>
<glyph name="caroncomb" format="2">
  <unicode hex="030C"/>
  <anchor x="249" y="458" name="_top"/>
  <anchor x="249" y="723" name="top"/>
  <outline>
    <contour>
      <point x="201" y="516" type="curve"/>
      <point x="233" y="515"/>
      <point x="266" y="518"/>
      <point x="291" y="527" type="curve"/>
      <point x="331" y="572"/>
      <point x="391" y="624"/>
      <point x="447" y="666" type="curve"/>
      <point x="440" y="688"/>
      <point x="417" y="716"/>
      <point x="385" y="723" type="curve"/>
      <point x="351" y="695"/>
      <point x="298" y="662"/>
      <point x="255" y="644" type="curve"/>
      <point x="208" y="665"/>
      <point x="160" y="694"/>
      <point x="122" y="723" type="curve"/>
      <point x="84" y="710"/>
      <point x="60" y="693"/>
      <point x="50" y="666" type="curve"/>
      <point x="100" y="621"/>
      <point x="154" y="569"/>
    </contour>
  </outline>
</glyph>
<glyph name="dblgravecomb" format="2">
  <unicode hex="030F"/>
  <anchor x="286" y="458" name="_top"/>
  <anchor x="286" y="717" name="top"/>
  <outline>
    <contour>
      <point x="379" y="533" type="curve"/>
      <point x="425" y="533"/>
      <point x="456" y="539"/>
      <point x="481" y="551" type="curve"/>
      <point x="454" y="602"/>
      <point x="427" y="668"/>
      <point x="412" y="717" type="curve"/>
      <point x="358" y="717"/>
      <point x="303" y="709"/>
      <point x="258" y="695" type="curve"/>
      <point x="313" y="637"/>
      <point x="345" y="588"/>
    </contour>
    <contour>
      <point x="181" y="533" type="curve"/>
      <point x="226" y="533"/>
      <point x="256" y="539"/>
      <point x="281" y="551" type="curve"/>
      <point x="253" y="602"/>
      <point x="225" y="668"/>
      <point x="210" y="717" type="curve"/>
      <point x="153" y="717"/>
      <point x="97" y="709"/>
      <point x="50" y="695" type="curve"/>
      <point x="110" y="637"/>
      <point x="144" y="588"/>
    </contour>
  </outline>
</glyph>
<glyph name="commaabovecomb" format="2">
  <unicode hex="0313"/>
  <anchor x="149" y="458" name="_top"/>
  <anchor x="149" y="730" name="top"/>
  <outline>
    <contour>
      <point x="193" y="730" type="curve"/>
      <point x="163" y="713"/>
      <point x="120" y="703"/>
      <point x="67" y="702" type="curve"/>
      <point x="53" y="670"/>
      <point x="48" y="646"/>
      <point x="51" y="608" type="curve"/>
      <point x="95" y="604"/>
      <point x="117" y="600"/>
      <point x="117" y="582" type="curve" smooth="yes"/>
      <point x="117" y="564"/>
      <point x="97" y="542"/>
      <point x="78" y="526" type="curve"/>
      <point x="93" y="510"/>
      <point x="122" y="498"/>
      <point x="158" y="500" type="curve"/>
      <point x="208" y="538"/>
      <point x="247" y="589"/>
      <point x="247" y="653" type="curve" smooth="yes"/>
      <point x="247" y="692"/>
      <point x="232" y="721"/>
    </contour>
  </outline>
</glyph>
<glyph name="horncomb" format="2">
  <unicode hex="031B"/>
  <anchor x="0" y="458" name="_topright"/>
  <anchor x="0" y="458" name="topright"/>
  <outline>
    <contour>
      <point x="-98" y="369" type="line"/>
      <point x="20" y="369"/>
      <point x="142" y="405"/>
      <point x="142" y="499" type="curve" smooth="yes"/>
      <point x="142" y="520"/>
      <point x="136" y="542"/>
      <point x="122" y="567" type="curve"/>
      <point x="92" y="573"/>
      <point x="42" y="568"/>
      <point x="16" y="556" type="curve"/>
      <point x="20" y="537"/>
      <point x="22" y="522"/>
      <point x="22" y="509" type="curve" smooth="yes"/>
      <point x="22" y="465"/>
      <point x="-2" y="447"/>
      <point x="-98" y="435" type="curve"/>
    </contour>
  </outline>
</glyph>
<glyph name="dotbelowcomb" format="2">
  <unicode hex="0323"/>
  <anchor x="159" y="0" name="_bottom"/>
  <anchor x="161" y="-236" name="bottom"/>
  <outline>
    <contour>
      <point x="152" y="-236" type="curve" smooth="yes"/>
      <point x="224" y="-236"/>
      <point x="267" y="-202"/>
      <point x="267" y="-153" type="curve" smooth="yes"/>
      <point x="267" y="-96"/>
      <point x="230" y="-66"/>
      <point x="159" y="-66" type="curve" smooth="yes"/>
      <point x="96" y="-66"/>
      <point x="50" y="-96"/>
      <point x="50" y="-155" type="curve" smooth="yes"/>
      <point x="50" y="-204"/>
      <point x="89" y="-236"/>
    </contour>
  </outline>
</glyph>
<glyph name="cedillacomb" format="2">
  <unicode hex="0327"/>
  <anchor x="143" y="0" name="_bottom"/>
  <outline>
    <contour>
      <point x="59" y="-242" type="curve"/>
      <point x="172" y="-242"/>
      <point x="235" y="-205"/>
      <point x="235" y="-138" type="curve" smooth="yes"/>
      <point x="235" y="-93"/>
      <point x="204" y="-52"/>
      <point x="146" y="-43" type="curve"/>
      <point x="191" y="16" type="line"/>
      <point x="117" y="16" type="line"/>
      <point x="52" y="-63" type="line"/>
      <point x="52" y="-80"/>
      <point x="59" y="-97"/>
      <point x="70" y="-110" type="curve"/>
      <point x="103" y="-110"/>
      <point x="128" y="-125"/>
      <point x="128" y="-147" type="curve" smooth="yes"/>
      <point x="128" y="-176"/>
      <point x="92" y="-191"/>
      <point x="50" y="-191" type="curve"/>
      <point x="50" y="-206"/>
      <point x="52" y="-228"/>
    </contour>
  </outline>
</glyph>
<glyph name="macronbelowcomb" format="2">
  <unicode hex="0331"/>
  <anchor x="242" y="0" name="_bottom"/>
  <anchor x="242" y="-157" name="bottom"/>
  <outline>
    <contour>
      <point x="50" y="-157" type="curve"/>
      <point x="188" y="-149"/>
      <point x="320" y="-147"/>
      <point x="425" y="-147" type="curve"/>
      <point x="432" y="-127"/>
      <point x="434" y="-103"/>
      <point x="434" y="-89" type="curve"/>
      <point x="59" y="-89" type="line"/>
      <point x="52" y="-108"/>
      <point x="50" y="-137"/>
    </contour>
  </outline>
</glyph>
<glyph name="strokeshortcomb" format="2">
  <unicode hex="0335"/>
  <anchor x="237" y="335" name="_center"/>
  <outline>
    <contour>
      <point x="50" y="296" type="curve"/>
      <point x="148" y="301"/>
      <point x="210" y="303"/>
      <point x="415" y="303" type="curve"/>
      <point x="422" y="323"/>
      <point x="424" y="347"/>
      <point x="424" y="361" type="curve"/>
      <point x="59" y="361" type="line"/>
      <point x="52" y="342"/>
      <point x="50" y="316"/>
    </contour>
  </outline>
</glyph>
<glyph name="strokelongcomb" format="2">
  <unicode hex="0336"/>
  <anchor x="388" y="248" name="_center"/>
  <outline>
    <contour>
      <point x="50" y="207" type="curve"/>
      <point x="320" y="212"/>
      <point x="459" y="212"/>
      <point x="711" y="212" type="curve"/>
      <point x="720" y="235"/>
      <point x="726" y="256"/>
      <point x="726" y="288" type="curve"/>
      <point x="65" y="288" type="line"/>
      <point x="57" y="269"/>
      <point x="50" y="242"/>
    </contour>
  </outline>
</glyph>
<glyph name="tonos" format="2">
  <advance width="300"/>
  <unicode hex="0384"/>
  <outline>
    <contour>
      <point x="161" y="531" type="curve"/>
      <point x="178" y="590"/>
      <point x="202" y="650"/>
      <point x="236" y="713" type="curve"/>
      <point x="217" y="717"/>
      <point x="193" y="719"/>
      <point x="168" y="719" type="curve" smooth="yes"/>
      <point x="137" y="719"/>
      <point x="104" y="716"/>
      <point x="74" y="709" type="curve"/>
      <point x="76" y="662"/>
      <point x="71" y="596"/>
      <point x="63" y="549" type="curve"/>
      <point x="92" y="538"/>
      <point x="122" y="531"/>
    </contour>
  </outline>
</glyph>
<glyph name="dieresistonos" format="2">
  <advance width="300"/>
  <unicode hex="0385"/>
  <outline>
    <contour>
      <point x="312" y="518" type="curve" smooth="yes"/>
      <point x="369" y="518"/>
      <point x="390" y="555"/>
      <point x="390" y="595" type="curve" smooth="yes"/>
      <point x="390" y="634"/>
      <point x="355" y="664"/>
      <point x="308" y="664" type="curve" smooth="yes"/>
      <point x="264" y="664"/>
      <point x="234" y="639"/>
      <point x="234" y="595" type="curve" smooth="yes"/>
      <point x="234" y="550"/>
      <point x="260" y="518"/>
    </contour>
    <contour>
      <point x="-8" y="518" type="curve" smooth="yes"/>
      <point x="34" y="518"/>
      <point x="65" y="549"/>
      <point x="65" y="588" type="curve" smooth="yes"/>
      <point x="65" y="631"/>
      <point x="42" y="664"/>
      <point x="-10" y="664" type="curve" smooth="yes"/>
      <point x="-66" y="664"/>
      <point x="-90" y="627"/>
      <point x="-90" y="587" type="curve" smooth="yes"/>
      <point x="-90" y="549"/>
      <point x="-57" y="518"/>
    </contour>
    <contour>
      <point x="173" y="521" type="curve"/>
      <point x="188" y="582"/>
      <point x="212" y="642"/>
      <point x="248" y="703" type="curve"/>
      <point x="229" y="707"/>
      <point x="205" y="709"/>
      <point x="180" y="709" type="curve" smooth="yes"/>
      <point x="152" y="709"/>
      <point x="123" y="706"/>
      <point x="96" y="699" type="curve"/>
      <point x="100" y="652"/>
      <point x="95" y="586"/>
      <point x="85" y="539" type="curve"/>
      <point x="111" y="528"/>
      <point x="138" y="521"/>
    </contour>
  </outline>
</glyph>
<glyph name="Delta" format="2">
  <advance width="675"/>
  <unicode hex="0394"/>
  <guideline x="287" y="411" angle="22.572"/>
  <guideline x="389" y="65" angle="22.572"/>
  <guideline x="247" y="45" angle="337"/>
  <guideline x="547" y="299" angle="337"/>
  <anchor x="337" y="676" name="top"/>
  <outline>
    <contour>
      <point x="298" y="677" type="curve"/>
      <point x="10" y="72" type="line"/>
      <point x="11" y="45"/>
      <point x="19" y="21"/>
      <point x="32" y="0" type="curve"/>
      <point x="641" y="0" type="line"/>
      <point x="655" y="22"/>
      <point x="663" y="46"/>
      <point x="665" y="72" type="curve"/>
      <point x="372" y="685" type="line"/>
      <point x="346" y="685"/>
      <point x="322" y="683"/>
    </contour>
    <contour>
      <point x="271" y="458" type="curve"/>
      <point x="264" y="458" type="line"/>
      <point x="281" y="411"/>
      <point x="303" y="364"/>
      <point x="325" y="317" type="curve" smooth="yes"/>
      <point x="470" y="11" type="line"/>
      <point x="534" y="75" type="line"/>
      <point x="49" y="75" type="line"/>
      <point x="64" y="11" type="line"/>
      <point x="210" y="318" type="line" smooth="yes"/>
      <point x="232" y="365"/>
      <point x="254" y="411"/>
    </contour>
  </outline>
</glyph>
<glyph name="Lambda" format="2">
  <advance width="687"/>
  <unicode hex="039B"/>
  <anchor x="337" y="676" name="top"/>
  <outline>
    <contour>
      <point x="375" y="682" type="line"/>
      <point x="343" y="682"/>
      <point x="324" y="682"/>
      <point x="297" y="676" type="curve"/>
      <point x="96" y="176" type="line" smooth="yes"/>
      <point x="65" y="99"/>
      <point x="50" y="81"/>
      <point x="20" y="75" type="curve"/>
      <point x="12" y="50"/>
      <point x="10" y="27"/>
      <point x="10" y="-3" type="curve"/>
      <point x="29" y="-1"/>
      <point x="72" y="0"/>
      <point x="103" y="0" type="curve" smooth="yes"/>
      <point x="134" y="0"/>
      <point x="196" y="-1"/>
      <point x="217" y="-3" type="curve"/>
      <point x="217" y="29"/>
      <point x="214" y="54"/>
      <point x="210" y="75" type="curve"/>
      <point x="171" y="82"/>
      <point x="163" y="123"/>
      <point x="173" y="152" type="curve" smooth="yes"/>
      <point x="228" y="316" type="line" smooth="yes"/>
      <point x="255" y="397"/>
      <point x="281" y="465"/>
      <point x="296" y="528" type="curve"/>
      <point x="255" y="528" type="line"/>
      <point x="264" y="467"/>
      <point x="290" y="399"/>
      <point x="320" y="316" type="curve" smooth="yes"/>
      <point x="380" y="151" type="line" smooth="yes"/>
      <point x="397" y="105"/>
      <point x="392" y="85"/>
      <point x="352" y="75" type="curve"/>
      <point x="347" y="55"/>
      <point x="344" y="34"/>
      <point x="344" y="-3" type="curve"/>
      <point x="383" y="0"/>
      <point x="491" y="0"/>
      <point x="521" y="0" type="curve" smooth="yes"/>
      <point x="552" y="0"/>
      <point x="636" y="0"/>
      <point x="677" y="-3" type="curve"/>
      <point x="677" y="29"/>
      <point x="674" y="58"/>
      <point x="669" y="75" type="curve"/>
      <point x="642" y="78"/>
      <point x="628" y="91"/>
      <point x="583" y="195" type="curve" smooth="yes"/>
    </contour>
  </outline>
</glyph>
<glyph name="Xi" format="2">
  <advance width="613"/>
  <unicode hex="039E"/>
  <anchor x="307" y="676" name="top"/>
  <outline>
    <contour>
      <point x="36" y="-2" type="curve"/>
      <point x="97" y="-1"/>
      <point x="220" y="0"/>
      <point x="307" y="0" type="curve" smooth="yes"/>
      <point x="394" y="0"/>
      <point x="516" y="-1"/>
      <point x="577" y="-2" type="curve"/>
      <point x="580" y="63"/>
      <point x="588" y="131"/>
      <point x="598" y="177" type="curve"/>
      <point x="581" y="193"/>
      <point x="540" y="207"/>
      <point x="496" y="211" type="curve"/>
      <point x="476" y="150"/>
      <point x="449" y="125"/>
      <point x="406" y="125" type="curve" smooth="yes"/>
      <point x="207" y="125" type="line" smooth="yes"/>
      <point x="164" y="125"/>
      <point x="137" y="150"/>
      <point x="117" y="211" type="curve"/>
      <point x="73" y="207"/>
      <point x="32" y="193"/>
      <point x="15" y="177" type="curve"/>
      <point x="25" y="131"/>
      <point x="33" y="63"/>
    </contour>
    <contour>
      <point x="122" y="226" type="curve"/>
      <point x="159" y="226"/>
      <point x="185" y="228"/>
      <point x="208" y="236" type="curve"/>
      <point x="213" y="275"/>
      <point x="232" y="284"/>
      <point x="291" y="284" type="curve" smooth="yes"/>
      <point x="322" y="284" type="line" smooth="yes"/>
      <point x="381" y="284"/>
      <point x="400" y="275"/>
      <point x="405" y="236" type="curve"/>
      <point x="428" y="228"/>
      <point x="454" y="226"/>
      <point x="491" y="226" type="curve"/>
      <point x="489" y="255"/>
      <point x="487" y="289"/>
      <point x="487" y="345" type="curve" smooth="yes"/>
      <point x="487" y="395"/>
      <point x="489" y="430"/>
      <point x="491" y="462" type="curve"/>
      <point x="461" y="462"/>
      <point x="426" y="459"/>
      <point x="403" y="450" type="curve"/>
      <point x="402" y="413"/>
      <point x="387" y="399"/>
      <point x="322" y="399" type="curve" smooth="yes"/>
      <point x="291" y="399" type="line" smooth="yes"/>
      <point x="226" y="399"/>
      <point x="211" y="413"/>
      <point x="210" y="450" type="curve"/>
      <point x="187" y="459"/>
      <point x="152" y="462"/>
      <point x="122" y="462" type="curve"/>
      <point x="124" y="430"/>
      <point x="126" y="395"/>
      <point x="126" y="345" type="curve" smooth="yes"/>
      <point x="126" y="289"/>
      <point x="124" y="255"/>
    </contour>
    <contour>
      <point x="125" y="483" type="curve"/>
      <point x="135" y="524"/>
      <point x="156" y="551"/>
      <point x="203" y="551" type="curve" smooth="yes"/>
      <point x="410" y="551" type="line" smooth="yes"/>
      <point x="457" y="551"/>
      <point x="478" y="524"/>
      <point x="488" y="483" type="curve"/>
      <point x="534" y="483"/>
      <point x="563" y="491"/>
      <point x="589" y="501" type="curve"/>
      <point x="576" y="548"/>
      <point x="569" y="628"/>
      <point x="568" y="679" type="curve"/>
      <point x="511" y="677"/>
      <point x="442" y="676"/>
      <point x="298" y="676" type="curve" smooth="yes"/>
      <point x="165" y="676"/>
      <point x="99" y="677"/>
      <point x="45" y="679" type="curve"/>
      <point x="44" y="628"/>
      <point x="37" y="548"/>
      <point x="24" y="501" type="curve"/>
      <point x="50" y="491"/>
      <point x="79" y="483"/>
    </contour>
  </outline>
</glyph>
<glyph name="Phi" format="2">
  <advance width="791"/>
  <unicode hex="03A6"/>
  <anchor x="396" y="676" name="top"/>
  <outline>
    <contour>
      <point x="388" y="105" type="curve" smooth="yes"/>
      <point x="640" y="105"/>
      <point x="756" y="181"/>
      <point x="756" y="348" type="curve" smooth="yes"/>
      <point x="756" y="495"/>
      <point x="644" y="563"/>
      <point x="400" y="563" type="curve" smooth="yes"/>
      <point x="150" y="563"/>
      <point x="35" y="492"/>
      <point x="35" y="336" type="curve" smooth="yes"/>
      <point x="35" y="178"/>
      <point x="146" y="105"/>
    </contour>
    <contour>
      <point x="395" y="187" type="curve" smooth="yes"/>
      <point x="280" y="187"/>
      <point x="229" y="233"/>
      <point x="229" y="347" type="curve" smooth="yes"/>
      <point x="229" y="446"/>
      <point x="278" y="485"/>
      <point x="388" y="485" type="curve" smooth="yes"/>
      <point x="508.714" y="485"/>
      <point x="562" y="443"/>
      <point x="562" y="337" type="curve" smooth="yes"/>
      <point x="562" y="230"/>
      <point x="511" y="187"/>
    </contour>
    <contour>
      <point x="230" y="-3" type="curve"/>
      <point x="277" y="-1"/>
      <point x="350" y="0"/>
      <point x="411" y="0" type="curve" smooth="yes"/>
      <point x="472" y="0"/>
      <point x="532" y="-1"/>
      <point x="562" y="-3" type="curve"/>
      <point x="562" y="23"/>
      <point x="559" y="57"/>
      <point x="554" y="75" type="curve"/>
      <point x="500" y="79"/>
      <point x="488" y="95"/>
      <point x="488" y="187" type="curve" smooth="yes"/>
      <point x="488" y="491" type="line" smooth="yes"/>
      <point x="488" y="581"/>
      <point x="498" y="595"/>
      <point x="553" y="601" type="curve"/>
      <point x="562" y="627"/>
      <point x="562" y="652"/>
      <point x="562" y="679" type="curve"/>
      <point x="522" y="677"/>
      <point x="441" y="676"/>
      <point x="401" y="676" type="curve" smooth="yes"/>
      <point x="361" y="676"/>
      <point x="263" y="677"/>
      <point x="230" y="679" type="curve"/>
      <point x="230" y="653"/>
      <point x="234" y="621"/>
      <point x="239" y="601" type="curve"/>
      <point x="295" y="593"/>
      <point x="304" y="581"/>
      <point x="304" y="491" type="curve" smooth="yes"/>
      <point x="304" y="187" type="line" smooth="yes"/>
      <point x="304" y="95"/>
      <point x="294" y="79"/>
      <point x="240" y="75" type="curve"/>
      <point x="235" y="56"/>
      <point x="230" y="21"/>
    </contour>
  </outline>
</glyph>
<glyph name="Omega" format="2">
  <advance width="852"/>
  <unicode hex="03A9"/>
  <anchor x="426" y="0" name="bottom"/>
  <anchor x="426" y="676" name="top"/>
  <anchor x="120" y="676" name="topleft"/>
  <outline>
    <contour>
      <point x="88" y="-2" type="curve" smooth="yes"/>
      <point x="128" y="-1"/>
      <point x="200" y="0"/>
      <point x="355" y="0" type="curve"/>
      <point x="371" y="24"/>
      <point x="379" y="58"/>
      <point x="379" y="97" type="curve"/>
      <point x="303" y="189"/>
      <point x="278" y="259"/>
      <point x="278" y="362" type="curve" smooth="yes"/>
      <point x="278" y="554"/>
      <point x="364" y="610"/>
      <point x="426" y="610" type="curve" smooth="yes"/>
      <point x="488" y="610"/>
      <point x="574" y="554"/>
      <point x="574" y="362" type="curve" smooth="yes"/>
      <point x="574" y="259"/>
      <point x="549" y="189"/>
      <point x="473" y="97" type="curve"/>
      <point x="473" y="58"/>
      <point x="481" y="24"/>
      <point x="497" y="0" type="curve"/>
      <point x="652" y="0"/>
      <point x="724" y="-1"/>
      <point x="764" y="-2" type="curve" smooth="yes"/>
      <point x="794" y="-2"/>
      <point x="810" y="12"/>
      <point x="817" y="38" type="curve"/>
      <point x="814" y="76"/>
      <point x="815" y="131"/>
      <point x="822" y="191" type="curve"/>
      <point x="804" y="201"/>
      <point x="765" y="209"/>
      <point x="737" y="211" type="curve"/>
      <point x="725" y="170"/>
      <point x="715" y="160"/>
      <point x="684" y="160" type="curve" smooth="yes"/>
      <point x="572" y="160" type="line"/>
      <point x="594" y="156" type="line"/>
      <point x="678" y="194"/>
      <point x="779" y="263"/>
      <point x="779" y="414" type="curve" smooth="yes"/>
      <point x="779" y="562"/>
      <point x="635" y="685"/>
      <point x="426" y="685" type="curve" smooth="yes"/>
      <point x="217" y="685"/>
      <point x="73" y="562"/>
      <point x="73" y="414" type="curve" smooth="yes"/>
      <point x="73" y="263"/>
      <point x="174" y="194"/>
      <point x="258" y="156" type="curve"/>
      <point x="280" y="160" type="line"/>
      <point x="168" y="160" type="line" smooth="yes"/>
      <point x="137" y="160"/>
      <point x="127" y="170"/>
      <point x="115" y="211" type="curve"/>
      <point x="87" y="209"/>
      <point x="48" y="201"/>
      <point x="30" y="191" type="curve"/>
      <point x="37" y="131"/>
      <point x="38" y="76"/>
      <point x="35" y="38" type="curve"/>
      <point x="42" y="12"/>
      <point x="58" y="-2"/>
    </contour>
  </outline>
</glyph>
<glyph name="alpha" format="2">
  <advance width="694"/>
  <unicode hex="03B1"/>
  <anchor x="307" y="458" name="top"/>
  <outline>
    <contour>
      <point x="265" y="-9" type="curve" smooth="yes"/>
      <point x="461" y="-9"/>
      <point x="509" y="118"/>
      <point x="573" y="288" type="curve" smooth="yes"/>
      <point x="596" y="349"/>
      <point x="604" y="370"/>
      <point x="647" y="383" type="curve"/>
      <point x="647" y="407"/>
      <point x="643" y="436"/>
      <point x="633" y="458" type="curve"/>
      <point x="582" y="458"/>
      <point x="518" y="460"/>
      <point x="484" y="467" type="curve"/>
      <point x="451" y="449"/>
      <point x="449" y="418"/>
      <point x="413" y="282" type="curve" smooth="yes"/>
      <point x="375" y="140"/>
      <point x="350" y="69"/>
      <point x="302" y="69" type="curve" smooth="yes"/>
      <point x="253" y="69"/>
      <point x="221" y="141"/>
      <point x="221" y="249" type="curve" smooth="yes"/>
      <point x="221" y="369"/>
      <point x="260" y="396"/>
      <point x="295" y="396" type="curve" smooth="yes"/>
      <point x="330" y="396"/>
      <point x="370" y="368"/>
      <point x="407" y="220" type="curve"/>
      <point x="457" y="258" type="line"/>
      <point x="433" y="406"/>
      <point x="373" y="467"/>
      <point x="271" y="467" type="curve" smooth="yes"/>
      <point x="155" y="467"/>
      <point x="30" y="389"/>
      <point x="30" y="212" type="curve" smooth="yes"/>
      <point x="30" y="70"/>
      <point x="110" y="-9"/>
    </contour>
    <contour>
      <point x="582" y="-9" type="curve" smooth="yes"/>
      <point x="615" y="-9"/>
      <point x="652" y="3"/>
      <point x="679" y="25" type="curve"/>
      <point x="679" y="52"/>
      <point x="673" y="76"/>
      <point x="664" y="89" type="curve"/>
      <point x="650" y="82"/>
      <point x="631" y="78"/>
      <point x="613" y="78" type="curve" smooth="yes"/>
      <point x="585" y="78"/>
      <point x="553" y="88"/>
      <point x="532" y="193" type="curve"/>
      <point x="485" y="111" type="line"/>
      <point x="495" y="44"/>
      <point x="516" y="-9"/>
    </contour>
  </outline>
</glyph>
<glyph name="gamma" format="2">
  <advance width="590"/>
  <unicode hex="03B3"/>
  <anchor x="327" y="458" name="top"/>
  <outline>
    <contour>
      <point x="304" y="-249" type="curve" smooth="yes"/>
      <point x="393" y="-249"/>
      <point x="445" y="-205"/>
      <point x="445" y="-115" type="curve" smooth="yes"/>
      <point x="445" y="-57"/>
      <point x="423" y="43"/>
      <point x="370" y="170" type="curve"/>
      <point x="356" y="233"/>
      <point x="340" y="290"/>
      <point x="315" y="354" type="curve" smooth="yes"/>
      <point x="286" y="433"/>
      <point x="231" y="466"/>
      <point x="118" y="466" type="curve" smooth="yes"/>
      <point x="80" y="466"/>
      <point x="47" y="463"/>
      <point x="18" y="459" type="curve"/>
      <point x="6" y="433"/>
      <point x="8" y="399"/>
      <point x="25" y="370" type="curve"/>
      <point x="75" y="377"/>
      <point x="97" y="367"/>
      <point x="123" y="320" type="curve" smooth="yes"/>
      <point x="163" y="244"/>
      <point x="225" y="123"/>
      <point x="275" y="16" type="curve" smooth="yes"/>
      <point x="304" y="-47"/>
      <point x="316" y="-100"/>
      <point x="316" y="-134" type="curve" smooth="yes"/>
      <point x="316" y="-174"/>
      <point x="299" y="-191"/>
      <point x="276" y="-191" type="curve" smooth="yes"/>
      <point x="249" y="-191"/>
      <point x="239" y="-168"/>
      <point x="239" y="-137" type="curve" smooth="yes"/>
      <point x="239" y="-91"/>
      <point x="261" y="-47"/>
      <point x="295" y="4" type="curve"/>
      <point x="257" y="70" type="line"/>
      <point x="209" y="-6"/>
      <point x="177" y="-79"/>
      <point x="177" y="-140" type="curve" smooth="yes"/>
      <point x="177" y="-210"/>
      <point x="220" y="-249"/>
    </contour>
    <contour>
      <point x="389" y="76" type="line"/>
      <point x="497" y="319" type="line" smooth="yes"/>
      <point x="516" y="362"/>
      <point x="531" y="375"/>
      <point x="566" y="382" type="curve"/>
      <point x="575" y="399"/>
      <point x="579" y="434"/>
      <point x="580" y="460" type="curve"/>
      <point x="551" y="458"/>
      <point x="516" y="458"/>
      <point x="475" y="458" type="curve" smooth="yes"/>
      <point x="434" y="459"/>
      <point x="400" y="460"/>
      <point x="374" y="462" type="curve"/>
      <point x="373" y="435"/>
      <point x="379" y="403"/>
      <point x="384" y="384" type="curve"/>
      <point x="425" y="378"/>
      <point x="436" y="366"/>
      <point x="413" y="319" type="curve" smooth="yes"/>
      <point x="389" y="267"/>
      <point x="371" y="224"/>
      <point x="348" y="161" type="curve"/>
    </contour>
  </outline>
</glyph>
<glyph name="delta" format="2">
  <advance width="591"/>
  <unicode hex="03B4"/>
  <anchor x="293" y="708" name="top"/>
  <outline>
    <contour>
      <point x="274" y="-8" type="curve" smooth="yes"/>
      <point x="444" y="-8"/>
      <point x="561" y="76"/>
      <point x="561" y="214" type="curve" smooth="yes"/>
      <point x="561" y="308"/>
      <point x="507" y="389"/>
      <point x="394" y="442" type="curve" smooth="yes"/>
      <point x="255" y="507"/>
      <point x="224" y="522"/>
      <point x="224" y="546" type="curve" smooth="yes"/>
      <point x="224" y="566"/>
      <point x="247" y="574"/>
      <point x="319" y="574" type="curve" smooth="yes"/>
      <point x="396" y="574"/>
      <point x="434" y="565"/>
      <point x="461" y="555" type="curve"/>
      <point x="474" y="589"/>
      <point x="478" y="637"/>
      <point x="474" y="663" type="curve"/>
      <point x="456" y="691"/>
      <point x="406" y="717"/>
      <point x="323" y="717" type="curve" smooth="yes"/>
      <point x="185" y="717"/>
      <point x="109" y="644"/>
      <point x="109" y="534" type="curve" smooth="yes"/>
      <point x="109" y="434"/>
      <point x="172" y="362"/>
      <point x="265" y="301" type="curve" smooth="yes"/>
      <point x="319" y="266"/>
      <point x="361" y="237"/>
      <point x="361" y="168" type="curve" smooth="yes"/>
      <point x="361" y="120"/>
      <point x="340" y="79"/>
      <point x="296" y="79" type="curve" smooth="yes"/>
      <point x="253" y="79"/>
      <point x="225" y="117"/>
      <point x="225" y="220" type="curve" smooth="yes"/>
      <point x="225" y="264"/>
      <point x="230" y="293"/>
      <point x="251" y="318" type="curve"/>
      <point x="187" y="369" type="line"/>
      <point x="97" y="335"/>
      <point x="30" y="280"/>
      <point x="30" y="178" type="curve" smooth="yes"/>
      <point x="30" y="56"/>
      <point x="125" y="-8"/>
    </contour>
  </outline>
</glyph>
<glyph name="epsilon" format="2">
  <advance width="480"/>
  <unicode hex="03B5"/>
  <anchor x="263" y="458" name="top"/>
  <outline>
    <contour>
      <point x="264" y="-6" type="curve" smooth="yes"/>
      <point x="328" y="-6"/>
      <point x="381" y="2"/>
      <point x="440" y="25" type="curve"/>
      <point x="433" y="56"/>
      <point x="433" y="89"/>
      <point x="439" y="123" type="curve"/>
      <point x="417" y="136"/>
      <point x="375" y="141"/>
      <point x="345" y="138" type="curve"/>
      <point x="334" y="78"/>
      <point x="324" y="60"/>
      <point x="290" y="60" type="curve" smooth="yes"/>
      <point x="245" y="60"/>
      <point x="218" y="91"/>
      <point x="218" y="132" type="curve" smooth="yes"/>
      <point x="218" y="177"/>
      <point x="252" y="198"/>
      <point x="339" y="196" type="curve"/>
      <point x="348" y="216"/>
      <point x="345" y="244"/>
      <point x="334" y="269" type="curve"/>
      <point x="272" y="269"/>
      <point x="236" y="302"/>
      <point x="236" y="352" type="curve" smooth="yes"/>
      <point x="236" y="380"/>
      <point x="248" y="398"/>
      <point x="277" y="398" type="curve" smooth="yes"/>
      <point x="314" y="398"/>
      <point x="326" y="368"/>
      <point x="331" y="318" type="curve"/>
      <point x="362" y="314"/>
      <point x="403" y="319"/>
      <point x="426" y="333" type="curve"/>
      <point x="419" y="369"/>
      <point x="418" y="402"/>
      <point x="426" y="434" type="curve"/>
      <point x="377" y="455"/>
      <point x="331" y="464"/>
      <point x="269" y="464" type="curve" smooth="yes"/>
      <point x="133" y="464"/>
      <point x="57" y="420"/>
      <point x="57" y="343" type="curve" smooth="yes"/>
      <point x="57" y="280"/>
      <point x="107" y="244"/>
      <point x="241" y="244" type="curve"/>
      <point x="241" y="249" type="line"/>
      <point x="98" y="249"/>
      <point x="30" y="203"/>
      <point x="30" y="125" type="curve" smooth="yes"/>
      <point x="30" y="43"/>
      <point x="105" y="-6"/>
    </contour>
  </outline>
</glyph>
<glyph name="zeta" format="2">
  <advance width="481"/>
  <unicode hex="03B6"/>
  <anchor x="247" y="708" name="top"/>
  <outline>
    <contour>
      <point x="232" y="-249" type="curve"/>
      <point x="346" y="-208"/>
      <point x="471" y="-145"/>
      <point x="471" y="-2" type="curve" smooth="yes"/>
      <point x="471" y="79"/>
      <point x="431" y="128"/>
      <point x="351" y="153" type="curve" smooth="yes"/>
      <point x="303" y="168"/>
      <point x="246" y="173"/>
      <point x="246" y="249" type="curve" smooth="yes"/>
      <point x="246" y="342"/>
      <point x="331" y="464"/>
      <point x="471" y="569" type="curve"/>
      <point x="471" y="616"/>
      <point x="461" y="677"/>
      <point x="439" y="710" type="curve"/>
      <point x="411" y="709"/>
      <point x="315" y="708"/>
      <point x="235" y="708" type="curve" smooth="yes"/>
      <point x="155" y="708"/>
      <point x="79" y="709"/>
      <point x="47" y="710" type="curve"/>
      <point x="47" y="634"/>
      <point x="42" y="541"/>
      <point x="30" y="491" type="curve"/>
      <point x="64" y="474"/>
      <point x="89" y="474"/>
      <point x="131" y="474" type="curve"/>
      <point x="149" y="535"/>
      <point x="171" y="548"/>
      <point x="243" y="548" type="curve" smooth="yes"/>
      <point x="355" y="548" type="line"/>
      <point x="335" y="568" type="line"/>
      <point x="96" y="388"/>
      <point x="37" y="305"/>
      <point x="37" y="192" type="curve" smooth="yes"/>
      <point x="37" y="97"/>
      <point x="80" y="36"/>
      <point x="209" y="6" type="curve" smooth="yes"/>
      <point x="231" y="1"/>
      <point x="281" y="-11"/>
      <point x="281" y="-61" type="curve" smooth="yes"/>
      <point x="281" y="-103"/>
      <point x="246" y="-138"/>
      <point x="185" y="-175" type="curve"/>
      <point x="189" y="-207"/>
      <point x="207" y="-236"/>
    </contour>
  </outline>
</glyph>
<glyph name="eta" format="2">
  <advance width="679"/>
  <unicode hex="03B7"/>
  <anchor x="340" y="458" name="top"/>
  <outline>
    <contour>
      <point x="456" y="-250" type="curve"/>
      <point x="514" y="-218"/>
      <point x="569" y="-201"/>
      <point x="635" y="-192" type="curve"/>
      <point x="626" y="-158"/>
      <point x="619" y="-99"/>
      <point x="619" y="-40" type="curve" smooth="yes"/>
      <point x="619" y="299" type="line" smooth="yes"/>
      <point x="619" y="415"/>
      <point x="536" y="462"/>
      <point x="451" y="462" type="curve" smooth="yes"/>
      <point x="395" y="462"/>
      <point x="353" y="441"/>
      <point x="322" y="409" type="curve" smooth="yes"/>
      <point x="302" y="389"/>
      <point x="290" y="363"/>
      <point x="281" y="342" type="curve"/>
      <point x="288" y="365"/>
      <point x="293" y="386"/>
      <point x="293" y="406" type="curve" smooth="yes"/>
      <point x="293" y="437"/>
      <point x="281" y="457"/>
      <point x="259" y="467" type="curve"/>
      <point x="227" y="451"/>
      <point x="144" y="434"/>
      <point x="45" y="434" type="curve"/>
      <point x="34" y="413"/>
      <point x="32" y="384"/>
      <point x="32" y="359" type="curve"/>
      <point x="97" y="353"/>
      <point x="103" y="335"/>
      <point x="103" y="270" type="curve" smooth="yes"/>
      <point x="103" y="0" type="line"/>
      <point x="293" y="0" type="line"/>
      <point x="293" y="190" type="line" smooth="yes"/>
      <point x="293" y="281"/>
      <point x="324" y="345"/>
      <point x="376" y="345" type="curve" smooth="yes"/>
      <point x="412" y="345"/>
      <point x="429" y="314"/>
      <point x="429" y="242" type="curve" smooth="yes"/>
      <point x="429" y="-55" type="line" smooth="yes"/>
      <point x="429" y="-160"/>
      <point x="429" y="-176"/>
      <point x="418" y="-204" type="curve"/>
      <point x="425" y="-225"/>
      <point x="434" y="-241"/>
    </contour>
  </outline>
</glyph>
<glyph name="kappa" format="2">
  <advance width="674"/>
  <unicode hex="03BA"/>
  <anchor x="327" y="458" name="top"/>
  <outline>
    <contour>
      <point x="623" y="460" type="curve"/>
      <point x="597" y="459"/>
      <point x="566" y="458"/>
      <point x="529" y="458" type="curve" smooth="yes"/>
      <point x="462" y="458"/>
      <point x="383" y="459"/>
      <point x="359" y="460" type="curve"/>
      <point x="359" y="434"/>
      <point x="362" y="410"/>
      <point x="372" y="383" type="curve"/>
      <point x="393" y="381"/>
      <point x="398" y="376"/>
      <point x="398" y="366" type="curve" smooth="yes"/>
      <point x="398" y="358"/>
      <point x="393" y="349"/>
      <point x="362" y="322" type="curve" smooth="yes"/>
      <point x="266" y="238" type="line"/>
      <point x="339" y="153"/>
      <point x="421" y="46"/>
      <point x="456" y="-9" type="curve"/>
      <point x="500" y="-2"/>
      <point x="594" y="0"/>
      <point x="645" y="0" type="curve"/>
      <point x="655" y="22"/>
      <point x="659" y="51"/>
      <point x="659" y="75" type="curve"/>
      <point x="622" y="79"/>
      <point x="619" y="82"/>
      <point x="591" y="120" type="curve" smooth="yes"/>
      <point x="537" y="197"/>
      <point x="477" y="265"/>
      <point x="398" y="327" type="curve"/>
      <point x="416" y="264" type="line"/>
      <point x="480" y="323" type="line" smooth="yes"/>
      <point x="527" y="368"/>
      <point x="552" y="378"/>
      <point x="611" y="383" type="curve"/>
      <point x="620" y="408"/>
      <point x="623" y="430"/>
    </contour>
    <contour>
      <point x="296" y="295" type="line"/>
      <point x="106" y="295" type="line"/>
      <point x="106" y="0" type="line"/>
      <point x="296" y="0" type="line"/>
    </contour>
    <contour>
      <point x="261" y="467" type="curve"/>
      <point x="229" y="451"/>
      <point x="144" y="434"/>
      <point x="45" y="434" type="curve"/>
      <point x="34" y="413"/>
      <point x="32" y="384"/>
      <point x="32" y="359" type="curve"/>
      <point x="92" y="353"/>
      <point x="106" y="335"/>
      <point x="106" y="289" type="curve" smooth="yes"/>
      <point x="106" y="266" type="line"/>
      <point x="296" y="266" type="line"/>
      <point x="296" y="403" type="line" smooth="yes"/>
      <point x="296" y="438"/>
      <point x="283" y="457"/>
    </contour>
  </outline>
</glyph>
